<svg width="162" height="162" viewBox="0 0 162 162" fill="none" xmlns="http://www.w3.org/2000/svg">
<path d="M148.711 75.9375V40.5C148.711 39.8039 148.331 39.171 147.73 38.823L119.886 23.6355C119.317 23.3191 118.652 23.3191 118.083 23.6355L110.742 27.5273V20.25C110.742 19.5539 110.362 18.921 109.761 18.573L81.9176 3.3855C81.348 3.06909 80.6836 3.06909 80.1141 3.3855L14.3016 38.823C13.7004 39.1394 13.2891 39.8039 13.2891 40.5V75.9375C13.2891 76.6335 13.6687 77.2664 14.2699 77.6144L20.4398 81L14.2699 84.4171C13.6687 84.7652 13.2891 85.398 13.2891 86.0941V121.532C13.2891 122.228 13.6688 122.86 14.3016 123.209L80.1141 158.646C80.6836 158.962 81.348 158.962 81.9176 158.646L109.761 143.459C110.362 143.11 110.742 142.478 110.742 141.782V134.504L118.083 138.396C118.652 138.712 119.317 138.712 119.886 138.396L147.73 123.209C148.331 122.86 148.711 122.228 148.711 121.532V86.0624C148.711 85.3664 148.331 84.7335 147.698 84.3855L141.37 81L147.73 77.6144C148.331 77.2664 148.711 76.6335 148.711 75.9375ZM118.969 27.464L142.826 40.5L81 73.7859L57.143 60.75L118.969 27.464ZM44.9297 56.8265L106.945 23.4457V29.5839L52.2387 59.1046C51.6375 59.421 51.2262 60.0855 51.2578 60.7816V84.5753L44.9297 87.9609V56.8265ZM55.0547 63.9457L79.1016 77.0449V108.148L55.0547 95.0167V63.9457ZM81 7.21401L104.857 20.25L43.0312 53.5359L19.1742 40.5L81 7.21401ZM17.0859 74.83V43.6957L41.1328 56.7949V87.9292L25.2809 79.323L17.0859 74.83ZM24.3633 83.1515L42.1137 92.7703C42.6832 93.0867 43.3477 93.0867 43.9172 92.7703L51.2578 88.8152V96.1874C51.2578 96.8835 51.6375 97.5163 52.2387 97.8644L80.0824 113.052C80.652 113.368 81.3164 113.368 81.8859 113.052L99.6047 103.496L104.857 106.312L81 119.348L19.1426 86.0308L24.3633 83.1515ZM109.35 98.2441L117.07 102.389V133.523L110.742 130.169V106.312C110.742 105.616 110.362 104.984 109.73 104.635L103.591 101.345L109.35 98.2441ZM17.0859 89.2265L79.1016 122.607V153.773L17.0859 120.361V89.2265ZM106.945 140.611L82.8984 153.742V122.639L106.945 109.508V140.611ZM120.867 133.492V102.389L144.914 89.2582V120.361L120.867 133.492ZM142.826 86.0941L118.969 99.0984L113.368 96.0925L137.32 83.1832L142.826 86.0941ZM82.8984 108.211V77.0765L144.914 43.6957V74.7984L82.8984 108.211Z" fill="#FF0000"/>
</svg>
