<?xml version="1.0" encoding="utf-8"?>
<!-- Generator: Adobe Illustrator 27.9.1, SVG Export Plug-In . SVG Version: 6.00 Build 0)  -->
<svg version="1.1" id="Слой_1" xmlns="http://www.w3.org/2000/svg" xmlns:xlink="http://www.w3.org/1999/xlink" x="0px" y="0px"
	 viewBox="0 0 841.9 284.1" style="enable-background:new 0 0 841.9 284.1;" xml:space="preserve">
<style type="text/css">
	.st0{fill:#001B71;}
</style>
<path class="st0" d="M803.8,248.2c-255,0-509.9,0-764.9,0c-1.1-1.7-0.7-3.7-0.7-5.5c0-28.7-0.1-57.3,0.2-86c0-4.9-2-7.7-6-9.6
	c0-0.6,0-1.2,0-1.8c1.2,0.2,1.8-1,2.9-1.2c6.2-1.3,12-3.8,18.1-5.6c9.6-2.8,19-6.5,28.6-9.5c2.9-0.9,5.6-2.2,8.8-2.2
	c63.5,0.1,127,0.1,190.5,0.1c1.3,0,2.6-0.1,3.9,0c1.7,0.1,2.3-0.8,2.3-2.4c0-9.4,0-18.7,0-28.1c0-1.9-0.8-3.1-2.6-3.9
	c-2.3-1-4.4-2.2-6.6-3.3c-0.6-0.3-1.3-0.7-1.2-1.5c0.1-0.7,0.6-1.3,1.4-1.5c3.7-0.8,7.1-2.5,10.6-3.7c5.9-2,11.7-4.1,17.6-6.2
	c5.4-1.9,10.7-3.9,16.1-5.8c5.6-2,11.2-3.8,16.8-5.8c5.5-2,10.9-4.1,16.4-6.1c5.8-2,11.6-3.8,17.4-5.9c7.2-2.6,14.4-5.2,21.6-7.9
	c7-2.6,14.1-5.2,21.3-7.3c0.9-0.3,1.9-0.7,2.3-1.7c1.6,0,3.2,0,4.8,0c1.6,1.1,3.3,1.6,5.1,2.3c5.5,2.1,11,3.9,16.6,5.8
	c5.7,1.9,11.3,4.1,17,6.1c5.4,1.9,10.8,3.7,16.2,5.6c6,2.1,11.9,4.2,17.8,6.5c5.2,2,10.4,3.8,15.7,5.5c6,1.9,11.9,4.2,17.8,6.4
	c5.6,2,11.1,4,16.7,6c5.8,2,11.5,4.1,17.3,6c1,0.3,1.9,0.6,2.1,1.8c0.2,1-0.8,1.2-1.5,1.6c-1.3,0.5-2.4,1.3-3.7,1.8
	c-3.6,1.4-5.4,3.7-5.1,8.1c0.5,7.2,0.2,14.5,0.2,21.8c0,7-0.7,5.8,5.9,5.8c63.5,0,127,0,190.6,0c1.4,0,2.7,0,4.1,0.5
	c6,2.1,12.1,4.2,18.2,6.2c6.5,2.2,13,4.4,19.5,6.4c2.6,0.8,4.9,2.2,7.4,2.8c3.3,0.8,6.5,1.4,9.4,3.2c0,0.4,0,0.8,0,1.2
	c-3,0.9-6,4.5-6,7.4c0,29.8,0,59.6,0,89.4C804.4,245.3,804.5,246.8,803.8,248.2z M706.3,219.5l-0.1,0L706.3,219.5c1,2.1,3,1,4.4,1
	c29.4,0.1,58.8,0,88.2,0c1,0,2.2,0.5,3-0.8c-1.5-0.9-3.2-0.6-4.7-0.6c-27.9,0-55.8,0-83.7,0C711.1,219.2,708.7,218.9,706.3,219.5z
	 M743.6,129.7c-1.5-1.1-2.5-0.8-3.5-0.8c-59.3,0-118.7,0-178,0c-6.7,0-6.6,0-6.6,6.6c0,2.3,0.6,3.2,3,3.1c4.1-0.1,4.3,0.4,2.3,3.9
	c-0.3,0.5-0.5,1.1-0.8,1.6c-0.5,0.7-1.4,1.4-1,2.4c0.5,1.1,1.8,0.7,2.7,0.7c11,0,21.9,0,32.9,0c33.1,0,66.2,0,99.3,0
	c1.2,0,3,0.5,3.3-0.6c0.9-2.7,3.2-2.6,5.2-3.3c8.2-2.6,16.4-5.3,24.6-8C732.4,133.4,737.7,131.6,743.6,129.7z M99.7,129.2
	c0.3,0.8,0.8,0.8,1.3,1c5.6,1.8,11.1,3.6,16.7,5.4c6.7,2.2,13.4,4.3,20.1,6.5c2.1,0.7,5.3,1,6.1,2.5c1.6,2.8,3.8,2.4,6.1,2.4
	c42.9,0,85.8,0,128.7,0c5.4,0,5.4,0,3.1-4.7c-1.8-3.6-1.7-3.9,2.1-3.8c2.7,0.1,3.6-1,3.3-3.5c-0.1-0.9-0.1-1.8,0-2.7
	c0.4-3-0.9-3.7-3.7-3.7c-60.1,0.1-120.3,0-180.4,0C101.9,128.8,100.8,128.6,99.7,129.2z M421.4,99.7L421.4,99.7
	c-22.6,0-45.3,0-67.9,0c-20.1,0-40.3,0-60.4,0c-2.9,0-3.8,0.9-3.7,3.8c0.2,5.5,0.1,11,0.1,16.5c0,8.5,0,8.4,8.5,8.3
	c2.3,0,2.9-0.7,2.9-2.9c-0.1-6.3-0.1-12.6,0-18.9c0-3.6,0.3-3.9,4-3.9c3.8,0,7.6,0,11.4,0c3.3,0,4,0.8,4,4.1
	c0,6.1,0.1,12.2-0.1,18.2c-0.1,2.4,0.6,3.3,3.2,3.3c2.5,0,3.3-0.8,3.2-3.3c-0.2-5.8-0.1-11.6-0.1-17.4c0-5,0-5,4.9-5
	c3.7,0,7.4,0.1,11.1,0c2.6-0.1,3.5,0.9,3.5,3.5c-0.1,5.9,0,11.8,0,17.6c0,2.3-0.7,4.7,3.3,4.6c4.2-0.1,2.8-2.8,2.8-4.7
	c0.1-5.9,0.1-11.8,0-17.6c-0.1-2.5,0.9-3.4,3.3-3.3c4.1,0.1,8.2,0.2,12.3,0c2.8-0.1,3.8,0.8,3.8,3.7c-0.2,8.8-0.1,8.7,8.8,8.4
	c2.2-0.1,2.8-0.9,2.7-2.9c-0.1-2.2,0-4.4-0.1-6.6c0-1.7,0.7-2.6,2.5-2.6c4.8,0,9.6,0,14.4,0c1.8,0,2.5,0.8,2.5,2.6
	c0,0.9,0,1.8,0,2.7c0,7.4,0,7.4,7.4,6.8c1.6-0.1,2.3-0.7,2.3-2.3c-0.1-2.4,0-4.8,0-7.2c0-1.8,0.7-2.5,2.5-2.5c4.6,0,9.2,0,13.8,0
	c2.1,0,3.1,0.9,2.9,3.1c-0.1,0.8,0,1.6,0,2.4c0,7,0,6.9,6.9,6.6c2-0.1,2.9-0.7,2.8-2.8c-0.1-2.2,0-4.4,0-6.6
	c-0.1-1.9,0.7-2.7,2.6-2.7c4.3,0.1,8.6,0.1,12.9,0c2.8-0.1,3.8,0.8,3.8,3.7c-0.1,9,0,9,9,8.4c1.8-0.1,2.5-0.8,2.5-2.5
	c-0.1-2.2,0.1-4.4,0-6.6c-0.1-2.1,0.7-3,3-3c4.3,0.1,8.6,0.1,12.9,0c2.8-0.1,3.6,1.1,3.5,3.8c-0.1,6.3,0,12.6-0.1,18.9
	c0,2.1,0.4,3.1,2.8,3c2.1-0.1,3.6,0,3.5-2.9c-0.2-6.3,0.1-12.6-0.1-18.9c-0.1-3.1,1-4,4-3.9c4.1,0.2,8.2,0.1,12.3,0
	c2.3,0,3.2,0.8,3.2,3.1c-0.1,6.5,0.1,13-0.1,19.5c0,2.4,0.7,3.1,3.1,3.1c2.3,0,3.4-0.5,3.3-3.1c-0.2-6.1-0.1-12.2,0-18.2
	c0-4.1,0.1-4.2,4.1-4.3c3.7,0,7.4,0,11.1,0c4,0,4.1,0.1,4.1,4.2c0,6.2,0.1,12.4,0,18.5c0,2,0.5,3,2.7,2.8c2.1-0.1,4.2-0.1,6.3,0
	c1.7,0.1,2.5-0.4,2.5-2.3c-0.1-7.9-0.1-15.8,0-23.6c0-2-0.8-2.6-2.7-2.6c-7.7,0.1-15.4,0-23,0C492.2,99.7,456.8,99.7,421.4,99.7z
	 M180.8,245.4c2.2,1.1,3.8,0.9,5.4,0.9c57.5,0,115.1,0,172.6,0c2.1,0,4.2,0,6.3,0c1.6,0,2.4-0.5,2.4-2.3c0-6.3,0-12.6,0-18.9
	c0-1.9-0.9-2.4-2.6-2.1c-10.9,2-21.9,2.8-32.9,4.2c-19.1,2.4-38.3,4.6-57.5,7c-13,1.6-26,3.5-39,4.9c-12.1,1.3-24.1,2.7-36.2,4
	C193.3,243.8,187.4,244.6,180.8,245.4z M660.9,245.6c-1-0.8-2.1-0.5-3.1-0.6c-11.2-1.4-22.3-2.7-33.5-4c-8.7-1-17.4-1.7-26.1-3
	c-5.2-0.8-10.5-1-15.7-1.9c-8-1.4-16.2-2-24.2-3.1c-6.6-0.9-13.3-1.6-19.9-2.4c-11.5-1.4-22.9-3.1-34.4-4.4c-8.5-1-17-1.7-25.5-3.2
	c-2.3-0.4-3.3,0.2-3.3,2.7c0.1,5.8,0.2,11.6,0,17.4c-0.1,2.6,0.9,3.2,3.3,3.2c59.5,0,119.1,0,178.6,0
	C658.4,246.3,659.8,246.6,660.9,245.6z M198,240.7c-2.1-1.9-5.8,0.8-6.4-2.8c-0.4-2.5-0.1-5.2-0.1-7.8c0-0.1,0-0.2,0-0.3
	c-0.1-1.7,0.7-2.5,2.5-2.5c4.7,0.1,9.4,0.1,14.1,0c2,0,2.7,0.9,2.6,2.7c-0.1,2.3,0.1,4.6,0,6.9c-0.1,1.9,0.7,2.6,2.5,2.3
	c2.4-0.4,4.7-0.9,7.1-1.2c6.8-0.8,6.9-0.7,7.1-7.3c0.1-2.5,0.8-3.6,3.5-3.5c3.6,0.2,7.2,0,10.8,0c4.8,0,4.9,0,5,4.8
	c0,2,0.7,2.6,2.7,2.4c3.7-0.4,7.3-0.5,11-1.1c6.7-1,13.4-1.9,20.1-2.5c4.9-0.5,4.9-0.3,4.9-5.3c0-0.3,0-0.6,0-0.9
	c0.5-2.9-0.8-3.7-3.7-3.7c-20.5,0.1-41.1,0.1-61.6,0.1c-25.9,0-51.8,0-77.7-0.1c-2.4,0-3.3,0.7-3.2,3.2c0.2,6.1,0.2,12.2,0,18.2
	c-0.1,2.8,0.8,3.7,3.7,3.8c15,0.5,29.7-3,44.6-4C190.8,242.1,194.2,241.3,198,240.7z M646.4,240.9c1.3,0.2,2.7,0.4,4,0.7
	c5.2,1.1,10.5,1,15.7,1.8c11.3,1.6,22.7,3.3,34.2,3c2.2-0.1,3.2-0.6,3.2-3c-0.1-6.4-0.2-12.8,0-19.1c0-2.4-0.8-3-3.1-3
	c-34,0.1-68,0.1-102,0.1c-12.7,0-25.3,0-38,0c-1.2,0-2.9-0.5-3,1.5c-0.1,2.1,0,4.2,0,6.3c0,1,0.6,1.8,1.7,1.8
	c6.8,0.2,13.4,1.9,20.1,2.5c4.6,0.4,9.3,1.1,13.9,1.7c1.5,0.2,2.4,0.1,2.8-1.7c0.2-1,0.3-2,0.2-2.9c-0.1-2.2,0.8-3.1,3-3
	c2.9,0.1,5.8,0,8.7,0c7.3,0,7.3,0,7.6,7.4c0,0.2,0,0.4,0,0.6c-0.1,1.3,0.5,2,1.8,2.2c4,0.5,8.1,1,12.1,1.6c2,0.3,2.7-0.6,2.6-2.5
	c-0.1-2.3,0-4.6,0-6.9c0-1.8,0.8-2.5,2.6-2.5c3.4,0,6.8,0,10.2,0c6.8,0,6.5-0.8,6.5,6.4C651.2,239.1,651.2,239.1,646.4,240.9z
	 M88.9,222.7C88.9,222.7,88.9,222.7,88.9,222.7c-14.8,0-29.7,0-44.6,0c-4.2,0-4.2,0-4.2,4.3c0,5.4,0.1,10.8,0,16.1
	c0,2.2,0.5,3.2,3,3.2c30.2-0.1,60.4-0.1,90.6,0c2.6,0,3.2-0.9,3.2-3.3c-0.1-5.7-0.2-11.4,0-17c0.1-2.7-0.9-3.3-3.4-3.3
	C118.6,222.8,103.8,222.7,88.9,222.7z M754.1,246.3c15.1,0,30.1,0,45.2,0c2.5,0,3.3-0.8,3.2-3.3c-0.2-4.4,0-8.8,0-13.2
	c0-7.2,0-7.2-7.2-7.2c-28.5,0-57,0-85.6,0c-3.9,0-3.9,0-3.9,4c0,5.4,0.1,10.8-0.1,16.1c-0.1,2.8,0.8,3.6,3.6,3.5
	C724.1,246.2,739.1,246.3,754.1,246.3z M421.4,140.7c-2.6,0-5.2,0-7.8,0c-13.7,0-27.3,0-41,0c-1.7,0-3.1-0.1-3.1,2.4
	c0.1,6.8,0,13.6,0,20.4c0,1.6,0.6,2.4,2.3,2.4c10.3,0,20.5,0,30.8,0c1.2,0,2-0.4,2.1-1.9c0.6-6.7,4.2-11.1,10.4-13.9
	c9.5-4.3,21.1,2.5,22.5,12.7c0.3,2.5,1.2,3.2,3.5,3.2c9.7-0.1,19.4-0.1,29,0c2.2,0,3-0.7,2.9-2.9c-0.1-6.3-0.2-12.6,0-18.8
	c0.1-2.9-0.9-3.5-3.5-3.5C453.5,140.8,437.5,140.7,421.4,140.7z M88.3,150.5L88.3,150.5c15.2,0,30.3,0,45.5,0c1,0,2.1,0.1,3-0.2
	c1.7-0.6,3.3-1.8,3.8-3.5c0.4-1.5-1.5-1.7-2.4-2c-7.8-2.6-15.7-5-23.5-7.5c-6.2-2-12.6-3.7-18.7-6.1c-5-2-9.5-2.1-14.6-0.2
	c-7.9,2.9-16,5.3-24,7.9c-6,2-12.1,3.9-18.1,6c-1.1,0.4-3.4,0.2-3,1.9c0.3,1.7,2,2.9,3.8,3.4c0.9,0.3,2,0.2,3,0.2
	C58.2,150.5,73.3,150.5,88.3,150.5z M754,150.5c15.3,0,30.7-0.1,46.1,0.1c2.5,0,4.2-1,5.7-2.7c0.8-0.8,1.1-1.6-0.5-2.2
	c-8.5-2.8-16.9-5.6-25.4-8.4c-6.4-2.1-12.8-4.4-19.2-6.3c-2.5-0.8-4.9-2.6-7.7-1.7c-5.3,1.6-10.6,3.2-15.9,4.9
	c-10.6,3.4-21.1,6.8-31.6,10.3c-1.4,0.5-3.8,0.7-3.6,2.3c0.2,1.7,2.2,3,4,3.6c0.8,0.2,1.8,0.1,2.7,0.1
	C723.7,150.5,738.8,150.5,754,150.5z M421.1,92.3C421.1,92.3,421.1,92.3,421.1,92.3c42.7,0,85.4,0,128,0.1c3.7,0,7-0.7,10-2.8
	c0.6-0.4,1.8-0.2,1.7-1.3c-0.1-0.8-1-1.2-1.8-1.4c-5.2-2-10.5-4-15.7-5.9c-7.4-2.7-14.8-5.3-22.1-7.9c-7-2.5-14-5-21-7.5
	c-8.8-3.1-17.6-6.1-26.3-9.3s-17.5-6.5-26.2-9.5c-7.6-2.6-15.2-5.1-22.6-8.1c-2.3-0.9-4.6-0.9-7-0.1c-6,2.2-11.9,4.3-17.9,6.5
	c-8.8,3.1-17.5,6.3-26.3,9.4c-7,2.5-14,5-21,7.4c-8.7,3-17.4,6-26.1,9.1c-9.2,3.2-18.3,6.6-27.4,9.9c-5.4,2-10.8,3.9-16.2,5.9
	c-1.7,0.6-2,1.4-0.2,2.5c2.7,1.6,5.4,3,8.8,3C334.7,92.2,377.9,92.3,421.1,92.3z M421.4,223.9c16.1,0,32.3-0.1,48.4,0.1
	c2.7,0,3.5-0.8,3.3-3.4c-0.2-2.8-0.2-5.6,0-8.4c0.1-2.2-0.6-3.1-3-3.1c-9,0.1-17.9,0-26.9,0c-5.1,0-5.1,0-5.2,5c0,2.6-1,3.7-3.8,3.6
	c-7.8-0.1-15.5,0-23.3,0c-6.4,0-6.3,0.9-6.1-6.1c0-1.7-0.5-2.5-2.3-2.5c-10.2,0-20.3,0.1-30.5,0c-1.9,0-2.4,0.8-2.3,2.5
	c0.1,2.6,0,5.2,0,7.8c0,4.5,0,4.5,4.6,4.5C389.9,223.9,405.7,223.9,421.4,223.9z M421.5,226.2L421.5,226.2c-16.2,0-32.5,0-48.7,0
	c-1.7,0-3.2-0.1-3.2,2.3c0.1,5.2,0,10.4,0,15.5c0,1.7,0.8,2.3,2.4,2.2c0.9,0,1.8-0.1,2.7,0c2.1,0.2,2.8-0.8,2.7-2.8
	c-0.1-3.4,0-6.8,0-10.2c0-1.7,0.8-2.5,2.5-2.5c4.6,0.1,9.2,0.1,13.8,0c2.2,0,3,0.8,3,3c0,3.4,0,6.8,0,10.2c0,1.6,0.5,2.4,2.2,2.4
	c3.5-0.1,7-0.1,10.5,0c1.9,0,2.4-0.9,2.3-2.6c-0.1-3.4,0.1-6.8,0-10.2c0-1.9,0.6-2.8,2.6-2.8c4.6,0,9.2,0,13.8,0
	c2,0,2.9,0.8,2.8,2.9c-0.1,3.4,0.1,6.8,0,10.2c0,1.8,0.6,2.5,2.4,2.5c3.3-0.1,6.6-0.1,9.9,0c2.1,0.1,2.8-0.8,2.7-2.9
	c-0.1-3.2,0-6.4,0-9.6c0-2,0.6-3.2,2.9-3.1c4.6,0.1,9.2,0.1,13.8,0c2.2,0,2.8,1.1,2.7,3c0,3.4,0,6.8-0.1,10.2c0,1.6,0.6,2.4,2.3,2.4
	c0.9,0,1.8-0.1,2.7,0c2.1,0.2,3-0.5,3-2.9c-0.2-4.7-0.2-9.4,0-14c0.1-2.7-0.9-3.3-3.5-3.3C453.6,226.2,437.6,226.2,421.5,226.2z
	 M327.5,174.8L327.5,174.8c-12.4,0-24.7,0.1-37.1,0c-2.2,0-3,0.7-3,2.9c0.1,9.5,0,18.9,0,28.4c0,1.9,0.7,2.5,2.4,2.5
	c2.6-0.1,5.2-0.1,7.8,0c2.3,0.1,3.1-0.7,3.1-3.1c-0.1-8,0.1-16-0.1-23.9c-0.1-2.9,1.1-3.9,3.9-3.8c4.1,0.1,8.2,0.2,12.3,0
	c2.5-0.1,3.3,1,3.2,3.3c-0.1,8.1,0,16.1,0,24.2c0,2,0.1,3.9,2.7,3.6c2-0.2,3.9-0.5,3.8-3.6c-0.3-8,0-16-0.1-23.9
	c0-2.6,0.8-3.8,3.6-3.7c4,0.2,8,0.2,12,0c2.9-0.1,3.9,0.9,3.8,3.8c-0.1,8,0.1,16-0.1,23.9c0,2.4,0.8,3.3,3.1,3c0.6-0.1,1.2,0,1.8,0
	c2.5,0.3,3.3-0.6,3.2-3.2c-0.1-8.1,0-16.1-0.1-24.2c0-2.5,0.9-3.4,3.3-3.3c2.8,0.1,5.6,0,8.4,0c1.1,0,2.1-0.2,2-1.6
	c0-1.4-1.1-1.5-2.1-1.5c-0.8,0-1.6,0-2.4,0C351,174.8,339.3,174.8,327.5,174.8z M515.2,174.8C515.2,174.8,515.2,174.8,515.2,174.8
	c-12.5,0-24.9,0-37.4,0.1c-1.1,0-2.4-0.1-2.4,1.5s1.3,1.5,2.4,1.5c2.6,0,5.2,0.1,7.8,0c2.6-0.2,3.5,0.9,3.5,3.5
	c-0.1,7.5,0,15,0,22.4c0,4.6-1.2,4.7,4.9,4.8c2.3,0,3.1-0.6,3.1-3c-0.1-8,0.1-16-0.1-23.9c-0.1-2.9,1-3.9,3.8-3.8
	c4.1,0.2,8.2,0.1,12.3,0c2.5-0.1,3.3,0.9,3.3,3.3c-0.1,8,0,16-0.1,23.9c0,2.2,0.2,3.6,3,3.5c2.5,0,3.5-0.7,3.4-3.4
	c-0.2-7.9,0-15.8-0.1-23.6c0-2.9,1-3.9,3.9-3.7c3.8,0.2,7.6,0,11.4,0c4,0,4.2,0.1,4.2,4.3c0,7.9,0.1,15.8,0,23.6
	c0,2.1,0.7,2.9,2.7,2.8c2.5-0.1,5-0.1,7.5,0c2.5,0.2,3-0.9,3-3.2c-0.1-9.1-0.2-18.1,0-27.2c0-2.6-0.8-3.5-3.4-3.4
	C539.5,174.9,527.4,174.8,515.2,174.8z M327.1,172.6C327.1,172.6,327.1,172.6,327.1,172.6c12.5,0,24.9,0,37.4,0
	c1.1,0,2.7,0.5,2.8-1.4c0.1-1.9-1.5-1.4-2.7-1.5c-2.7-0.1-5.4-0.1-8.1,0c-2,0.1-2.9-0.9-2.9-2.8c0-3.5,0.1-7,0-10.5
	c0-1.8,0.8-2.6,2.5-2.6c2.7,0,5.4-0.1,8.1,0c1.8,0,3.1-0.1,3.1-2.5c0-2.5-1.7-2-3.1-2.1c-24.6,0-49.3,0-73.9-0.1
	c-2.4,0-3.1,0.9-3,3.1c0.1,5.6,0.2,11.2,0,16.8c-0.1,2.8,0.8,3.6,3.5,3.6C303,172.6,315.1,172.6,327.1,172.6z M515,172.7
	C515,172.6,515,172.6,515,172.7c12.3,0,24.5-0.1,36.8,0c2.4,0,3.3-0.7,3.3-3.2c-0.2-5.7-0.1-11.4,0-17c0-2.3-0.6-3.2-3.1-3.2
	c-24.6,0.1-49.2,0-73.9,0c-1.4,0-2.9-0.3-2.9,2c-0.1,2.3,1.2,2.6,3,2.6c2.7,0,5.4,0,8.1,0c1.6,0,2.5,0.6,2.5,2.3c0,3.8,0,7.6,0,11.4
	c0,1.6-0.8,2.3-2.4,2.3c-2.4-0.1-4.8-0.1-7.2,0c-1.4,0.1-3.8-1-3.7,1.5c0.1,2.1,2.4,1.3,3.7,1.3C491.1,172.7,503.1,172.7,515,172.7z
	 M307.1,210.7C307.1,210.7,307.1,210.7,307.1,210.7c-5.6,0-11.2,0-16.8,0.1c-1.3,0-2.8-0.2-2.8,1.8c0,5.2,0,10.4,0,15.6
	c0,1.3,0.8,1.8,2.2,1.7c8.6-0.6,17.2-2.1,25.8-2.9c7.8-0.6,15.6-2,23.4-3c7.4-0.9,14.8-1.7,22.2-2.8c6.4-0.9,6.3-1.1,6.2-7.7
	c0-2-0.6-2.9-2.8-2.8c-4.4,0.1-8.8,0-13.2,0c-5.5,0-5.5,0-5.7,5.6c0,1.9-0.5,3.1-2.6,3.1c-4.8,0-9.6,0-14.4,0
	c-1.8,0-2.5-0.9-2.5-2.6c0-0.9-0.1-1.8,0-2.7c0.4-2.7-0.8-3.5-3.4-3.4C317.6,210.8,312.4,210.7,307.1,210.7z M555,220.3L555,220.3
	c0-1.9,0-3.8,0-5.7c0-3.9,0-3.9-4-3.9c-9.6,0-19.2,0-28.7,0c-7,0-6-0.2-6,5.6c0,2.4-1,3.2-3.2,3.1c-3.5-0.1-7,0-10.5,0
	c-6.4,0-5.9,0-5.7-5.6c0.1-2.4-0.8-3.2-3.1-3.1c-4,0.1-8,0.1-12,0.1c-6.5,0-6.4,0-6.6,6.5c-0.1,2.7,1,3.3,3.4,3.6
	c9.6,1.3,19.2,2.2,28.8,3.4c14.9,1.9,29.8,3.6,44.8,5.4c2.3,0.3,2.9-0.6,2.9-2.6C555,224.9,555,222.6,555,220.3z M88.4,217.1
	c14,0,27.9,0,41.9,0c6.6,0,6.6,0,6.6-6.7c0-2.3-0.5-3.2-3-3.1c-10.2,0.1-20.3,0.1-30.4,0c-2.8,0-4.1,0.7-3.7,3.7
	c0.3,2.5-0.8,3.3-3.3,3.2c-5.3-0.1-10.6-0.1-15.8,0c-2.6,0.1-3.8-0.7-3.5-3.4c0.4-2.8-0.9-3.6-3.6-3.5c-9,0.1-17.9,0-26.9,0.1
	c-8,0-6.2-0.8-6.6,6.4c-0.1,2.6,0.8,3.4,3.4,3.4C58.5,217.1,73.4,217.1,88.4,217.1z M754.1,217.1c14,0,27.9,0,41.9,0
	c7.4,0,6.3,1.2,6.5-6.5c0.1-2.4-0.7-3.3-3.2-3.3c-10.2,0.1-20.3,0.1-30.4,0c-2.6,0-3.7,0.8-3.4,3.4c0.4,2.8-1,3.6-3.7,3.5
	c-5.1-0.2-10.2-0.2-15.2,0c-2.8,0.1-4.2-0.7-3.8-3.7c0.4-2.5-0.8-3.2-3.2-3.2c-9.3,0.1-18.5,0-27.8,0c-6,0-5.8,0-6.1,6
	c-0.2,3.2,1,3.8,3.9,3.8C724.4,217.1,739.2,217.1,754.1,217.1z M369.6,187.8c0,4.9,0,9.8,0,14.6c0,4.5,0.1,4.3,4.5,4.5
	c2.6,0.1,3.4-0.7,3.3-3.4c-0.2-9.2,0-18.3-0.1-27.5c0-2.6,0.9-3.6,3.5-3.5c4.1,0.1,8.2,0.1,12.2,0c2.7-0.1,3.7,1,3.7,3.7
	c-0.1,8.5,0,16.9,0,25.4c0,5.6,0,5.5,5.6,5.3c1.8-0.1,2.4-0.7,2.4-2.5c-0.1-11.2-0.1-22.3,0-33.5c0-2-0.6-2.9-2.7-2.9
	c-10,0.1-19.9,0.1-29.9,0c-1.9,0-2.6,0.7-2.6,2.6C369.6,176.4,369.6,182.1,369.6,187.8z M473.1,187.7
	C473.1,187.7,473.1,187.7,473.1,187.7c0-5.7,0-11.4,0-17c0-2-0.7-2.6-2.6-2.6c-9.8,0.1-19.5,0.1-29.3,0c-2.7,0-3.4,1-3.3,3.5
	c0.1,10.8,0,21.5,0,32.3c0,3.5,0.1,3.4,4.1,3.6c2.9,0.1,3.8-0.9,3.8-3.8c-0.1-8.9,0-17.7,0-26.6c0-4.3,0.2-4.5,4.6-4.5
	c3.6,0,7.2,0,10.8,0c3.8,0,4,0.2,4,4.1c0,9.1,0.1,18.1,0,27.2c-0.1,3.4,1.6,3.5,4.2,3.6c2.8,0.1,3.9-0.7,3.7-3.7
	C472.9,198.5,473.1,193.1,473.1,187.7z M59.3,173.2C59.3,173.2,59.3,173.2,59.3,173.2c-5.2,0-10.4,0.1-15.5-0.1
	c-3-0.1-3.7,0.9-3.6,3.8c0.2,7.4,0.1,14.8,0.1,22.1c0,6.2,0,6,6.1,6.2c2.8,0,3.5-1,3.5-3.7c-0.2-7-0.1-14,0-20.9
	c0-4.3,0.1-4.5,4.6-4.5c3.8,0,7.6,0.1,11.4,0c2.6-0.1,3.5,1,3.5,3.5c-0.1,6.3-0.1,12.6-0.1,18.8c0,6.9,0,6.9,7.1,6.8
	c2.1,0,2.8-0.7,2.8-2.8c-0.1-4.4,0.2-8.8-0.1-13.1c-0.2-4,1.3-8.3-1.4-12.1c-0.2-0.3-0.1-1,0.1-1.4c1-2.4-0.4-2.5-2.1-2.5
	C70.1,173.3,64.7,173.2,59.3,173.2z M117.9,173.2c-5.5,0-11,0-16.4,0c-0.8,0-2.5-0.1-2.2,0.8c0.8,2.7-1.3,4.7-1.2,7.2
	c0.2,5.8,0.1,11.6,0.1,17.4c0,6.7,0,6.6,6.6,6.6c2.3,0,3.1-0.7,3.1-3.1c-0.1-7.5,0-15-0.1-22.4c0-2.5,0.8-3.7,3.5-3.6
	c4.2,0.1,8.4,0.1,12.6,0c2.5-0.1,3.3,0.9,3.3,3.3c-0.1,6.3-0.1,12.6,0,18.8c0.1,7.2,0.1,7.1,7.3,7c2,0,2.6-0.8,2.6-2.6
	c-0.1-8.9-0.1-17.8,0-26.6c0-2.2-0.8-2.7-2.8-2.7C128.7,173.3,123.3,173.2,117.9,173.2z M724.7,173.2c-5.4,0-10.8,0.1-16.2,0
	c-2.2,0-2.9,0.7-2.9,2.9c0.1,7.5,0,15,0.1,22.4c0.1,7.3-1.6,6.4,6.7,6.6c2.4,0.1,3.1-0.8,3.1-3.1c-0.1-7.5,0.1-15,0-22.4
	c0-2.8,1-3.7,3.7-3.6c4.1,0.1,8.2,0.2,12.3,0c2.7-0.1,3.5,1.1,3.4,3.6c-0.1,6.2,0,12.4,0,18.5c0,7.5,0,7.5,7.5,7
	c1.7-0.1,2.2-0.7,2.2-2.4c-0.1-3.8,0.2-7.6-0.1-11.4c-0.4-4.8,1.6-9.9-1.4-14.5c-0.1-0.2-0.1-0.6,0-0.9c1.3-2.9-0.5-2.9-2.5-2.9
	C735.2,173.3,730,173.2,724.7,173.2z M96.6,170.5c0.4,0.2,0.6,0.4,0.7,0.4c12.6,0,25.1,0,37.7,0c1.4,0,1.9-0.6,1.9-2
	c0-2.7-0.2-5.4,0-8.1c0.2-2.5-0.7-3.2-3.2-3.2c-21.8,0.1-43.7,0-65.5,0c-8.3,0-16.5,0.1-24.8-0.1c-2.7,0-3.5,0.8-3.3,3.4
	c0.2,2.4,0.2,4.8,0,7.2c-0.1,2.1,0.7,2.7,2.8,2.7c8.3-0.1,16.5,0,24.8,0c4.1,0,8.3,0,12.8,0c-2.4-3.5-1.5-6.9-1.5-10.1
	c0-1.4,1.1-1.8,2.3-1.8c4.9,0,9.8,0,14.7,0c1,0,2,0.3,2,1.4C97.9,163.8,99.3,167.3,96.6,170.5z M783.5,173.3L783.5,173.3
	c-5.5,0-11,0-16.5,0c-0.8,0-2.5,0-2.2,0.8c1.2,2.6-1.1,4.5-1.1,6.8c0,5.9,0,11.8,0,17.6c0,6.7,0.1,6.6,6.8,6.7
	c2.3,0,2.9-0.7,2.9-2.9c-0.1-7.3,0-14.6,0-21.8c0-4.2,0.1-4.3,4.4-4.3c3.8,0,7.6,0.1,11.4,0c2.6-0.1,3.6,0.9,3.5,3.5
	c-0.1,6.3-0.1,12.6-0.1,18.8c0.1,7.1,0.1,7,7.2,6.8c2,0,2.6-0.8,2.6-2.6c-0.1-8.9-0.1-17.8,0-26.6c0-2.2-0.8-2.7-2.8-2.7
	C794.2,173.3,788.9,173.3,783.5,173.3z M761.8,171c13.2,0,25.9,0,38.6,0c1.7,0,2-0.9,2-2.2c0-2.5-0.2-5,0-7.5
	c0.3-2.8-0.8-3.5-3.5-3.5c-28.5,0.1-57,0.1-85.6,0c-1.9,0-3.7,1.2-5.5,0.5c-1.8-0.7-2.1,0.2-2.2,1.6c0,3.1,0,6.2,0,9.3
	c0,1.5,0.5,2,2.1,2c12-0.1,23.9,0,35.9-0.1c0.7,0,1.6,0.4,2.1-0.6c-2.3-3.1-1.1-6.7-1.1-10.1c0-1.1,1.1-1.3,2.1-1.3
	c4.9,0,9.8,0,14.7,0c1,0,2.2,0.2,2.2,1.5C763.6,163.9,764.9,167.5,761.8,171z M285.3,180.9c0-7.8-0.1-15.5,0-23.3
	c0-2.4-0.7-3.4-3.2-3.3c-5.4,0.2-10.8,0.1-16.1,0.1c-4.4,0-5.7,1.3-5.7,5.9c0,14.5,0,29.1,0,43.6c0,1.2-0.4,2.9,1.6,2.8
	c1.8-0.1,1.3-1.7,1.3-2.8c0-6.7,0-13.4,0-20c0-4.4,0-4.4,4.3-4.4c3.4,0,6.8,0,10.2,0c4.8,0,4.9,0,4.9,5c0,6.7,0,13.4,0,20
	c0,1-0.2,2.2,1.2,2.2c1.6,0.1,1.5-1.2,1.6-2.3c0-0.3,0-0.6,0-0.9C285.3,196,285.3,188.5,285.3,180.9z M249.4,181.9L249.4,181.9
	c0-7.2,0-14.4,0-21.5c0-4.8-1.2-6-5.9-6c-4.6,0-9.2,0-13.8,0c-4.2,0-6.5,2.7-5.7,6.9c0.3,1.3,0.4,2.5,0.4,3.8c0,12.9,0,25.7,0,38.6
	c0,1.1-0.6,3,1.4,3.1c2.3,0.1,1.5-1.9,1.5-3.1c0.1-7,0.1-14,0-20.9c0-2.3,0.9-3.2,3.2-3.2c3.9,0.1,7.8,0,11.7,0c4.4,0,4.4,0,4.4,4.5
	c0,6.8,0,13.6,0,20.3c0,1.2-0.1,2.8,1.4,2.8c1.2,0,1.6-1.6,1.5-2.9c0-0.4,0-0.8,0-1.2C249.4,196,249.4,188.9,249.4,181.9z
	 M557.3,180.6C557.3,180.6,557.3,180.6,557.3,180.6c0,5.2,0,10.4,0,15.5c0,3.1,0,6.2,0,9.3c0,0.8,0.2,1.8,1.2,1.8
	c0.9,0,1.7-0.6,1.7-1.7c0-0.7,0-1.4,0-2.1c0-6.9,0.1-13.8,0-20.6c0-2.5,0.9-3.4,3.3-3.3c4.1,0.1,8.2,0.2,12.2,0
	c3-0.2,3.8,1.1,3.7,3.8c-0.1,6.9,0,13.7,0,20.6c0,1.2-0.6,3,1.5,2.9c1.8-0.1,1.3-1.7,1.3-2.8c0-8.8,0.1-17.5,0.1-26.3
	c0-6.1,0-12.1-0.1-18.2c-0.1-3.9-1.5-5-5.3-5c-5.5,0-11,0.1-16.4,0c-2.4-0.1-3.3,0.7-3.3,3.2C557.4,165.3,557.3,172.9,557.3,180.6z
	 M593.1,181.5C593.1,181.5,593.1,181.5,593.1,181.5c0,7.5,0,15,0,22.4c0,1.2-0.5,2.9,1.6,2.8c1.8-0.1,1.3-1.7,1.3-2.8
	c0-6.8,0-13.6,0-20.4c0-3.9,0.2-4.1,4-4.1c3.5,0,7,0,10.5,0c4.8,0,4.8,0,4.8,4.8c0,6.8,0,13.6,0,20.4c0,1-0.1,2.2,1.4,2.1
	c1.4,0,1.5-1.1,1.5-2.1c0-0.3,0-0.6,0-0.9c0-12.5,0-24.9,0-37.4c0-2.5,0.2-5-0.1-7.5c-0.3-2.9-1.4-4.8-4.9-4.6
	c-4.8,0.3-9.6,0.1-14.4,0.1c-4.4,0-5.7,1.3-5.7,5.9C593.1,167.3,593.1,174.4,593.1,181.5z M628.9,181.9L628.9,181.9
	c0,4.8,0,9.6,0,14.4c0,2.9,0,5.8,0,8.7c0,1,0.2,1.9,1.4,1.9c1.2,0,1.5-0.8,1.5-1.8c0-1,0-2,0-3c0-6.4,0.1-12.8-0.1-19.1
	c-0.1-2.6,0.9-3.5,3.5-3.4c3.8,0.2,7.6,0,11.4,0c4.3,0,4.4,0.1,4.4,4.3c0,6.6,0,13.2,0,19.7c0,1.2-0.8,3.2,1.5,3.2
	c2,0,1.3-1.9,1.3-3.1c0-6,0-12,0-18c0-8.8,0-17.5-0.1-26.3c-0.1-4-1.4-5-5.3-5c-4.4,0-8.8,0.3-13.2-0.1c-5.9-0.5-6.5,2.2-6.5,6.6
	C628.9,167.9,628.9,174.9,628.9,181.9z M188.6,181.8C188.6,181.8,188.6,181.8,188.6,181.8c0,7.4-0.1,14.7,0,22.1
	c0,1.1-0.5,2.7,1.3,2.8c2,0.1,1.6-1.7,1.6-2.9c0-7.1,0.1-14.1,0-21.2c0-2.3,0.8-3.2,3.1-3.2c4.2,0.1,8.4,0.2,12.6,0
	c2.7-0.1,3.7,0.8,3.7,3.6c-0.1,7.1-0.1,14.1,0,21.2c0,1-0.4,2.5,1.3,2.5c1.9,0.1,1.6-1.4,1.6-2.6c0-4.6,0-9.2,0-13.8
	c0-10.2,0.1-20.3,0-30.5c0-4.4-1.3-5.6-5.7-5.6c-4.5,0-9,0-13.4,0c-4.6,0-5.8,0.9-5.9,5.7C188.5,167.3,188.6,174.6,188.6,181.8z
	 M177.8,181.8C177.8,181.8,177.7,181.8,177.8,181.8c0-7.5,0-15-0.1-22.4c0-3.7-1.4-5-5-5c-5.1,0-10.2,0.2-15.2-0.1
	c-2.9-0.1-3.9,1.5-4.5,3.7c-0.3,0.9-0.2,2-0.2,3c0,14.3,0,28.5,0,42.8c0,1.2-0.6,2.9,1.4,3c2.1,0.1,1.4-1.7,1.5-2.9
	c0.1-6.9,0.1-13.8,0-20.6c-0.1-2.7,0.7-4,3.7-3.8c4,0.2,8,0.2,12,0c2.7-0.1,3.7,0.7,3.6,3.5c-0.2,7-0.1,14,0,20.9
	c0,1-0.6,2.7,1.2,2.8c2.1,0.1,1.6-1.6,1.6-2.8C177.8,196.6,177.8,189.2,177.8,181.8z M689.8,182L689.8,182c0-7.5,0-15,0-22.4
	c0-4.2-1.3-5.3-5.4-5.2c-4.5,0-9,0-13.5,0c-5,0-6.2,1.2-6.2,6.4c0,9.4,0,18.7,0,28.1c0,5.3,0,10.6,0,15.9c0,1.1,0.2,2.1,1.5,2
	c1.2,0,1.4-0.9,1.4-1.9c0-0.8,0-1.6,0-2.4c0-6.7,0.1-13.4,0-20c0-2.1,0.7-3.1,3-3c4.3,0.1,8.6,0.1,12.9,0c2.6-0.1,3.5,1,3.5,3.5
	c-0.1,7.1,0,14.2,0,21.2c0,1.1-0.3,2.7,1.5,2.6c1.6-0.1,1.2-1.6,1.2-2.6C689.8,196.8,689.8,189.4,689.8,182z M407,184
	C407,184,407,184,407,184c0,6.9,0,13.8,0,20.6c0,0.9-0.2,1.9,1,2.2c0.6,0.1,1.3,0.1,1.5-0.6c0.2-0.7,0.3-1.5,0.3-2.3
	c0-9.1,0.1-18.1,0-27.2c0-2.9,0.8-4.2,3.9-4c5.1,0.2,10.2,0.2,15.3,0c3-0.1,3.8,1.1,3.8,3.9c-0.1,9.4,0,18.8,0,28.1
	c0,1-0.3,2.4,1.2,2.4c1.5,0.1,1.8-1.1,1.8-2.5c0-13.3,0.1-26.5-0.1-39.8c-0.1-7.1-6.5-13.5-13.6-13.8c-7.3-0.2-15,5.1-15,14.1
	C407,171.4,407,177.7,407,184z M325.8,140.8C325.8,140.8,325.8,140.8,325.8,140.8c-7.4,0-14.8,0-22.1,0c-5.7,0-11.4,0-17,0
	c-0.9,0-2.2-0.4-2.2,1.2c0,2.4,2.6,5,5.1,5c25,0,50,0,75.1,0.1c2.6,0,2.9-1.1,2.9-3.2c0-2.3-0.7-3.1-3.1-3.1
	C351.5,140.9,338.6,140.8,325.8,140.8z M515.3,147.1c12.3,0,24.5,0,36.8,0c0.7,0,1.4,0,2.1-0.1c1.3-0.2,4.4-4.1,4-5.1
	c-0.8-1.9-2.6-1-3.9-1c-15.6,0-31.1,0-46.7,0c-9.8,0-19.5,0-29.3,0c-1,0-2.2-0.4-2.8,1c-1.3,3,0.2,5.2,3.4,5.2
	C491,147.1,503.2,147.1,515.3,147.1z M692,189.1c0,9,0.1,17.9-0.1,26.9c0,2.7,1.3,2.9,3.3,2.9c2,0,3.1-0.3,3.1-2.7
	c-0.1-17.8-0.1-35.7,0-53.5c0-2.3-0.7-3.2-3.1-3.1c-2.3,0.1-3.4,0.6-3.3,3.2C692.1,171.6,692,180.3,692,189.1z M251.7,189.3
	L251.7,189.3c0,8.9,0.1,17.7-0.1,26.6c-0.1,2.8,1.4,3,3.5,3c2.3,0.1,2.8-0.9,2.8-3c0-17.6,0-35.3,0-52.9c0-2.4-0.6-3.4-3.2-3.4
	c-2.6,0-3.2,1.1-3.2,3.4C251.8,171.7,251.7,180.5,251.7,189.3z M620.4,189C620.4,189,620.3,189,620.4,189c0,9.1,0,18.1-0.1,27.2
	c0,2.4,1.2,2.8,3.2,2.7c1.8,0,3.3,0,3.3-2.6c-0.1-17.8-0.1-35.6,0-53.5c0-2-0.2-3.4-2.9-3.3c-2.6,0.1-3.5,0.8-3.5,3.4
	C620.5,171.6,620.4,180.3,620.4,189z M662.5,189.5c0-8.8,0-17.5,0-26.3c0-2.2,0-3.8-3.1-3.7c-2.7,0.1-3.3,1.1-3.3,3.6
	c0.1,17.5,0.1,35.1,0,52.6c0,2.6,1,3.2,3.3,3.2c2.4,0,3.1-0.7,3.1-3.1C662.4,207.1,662.5,198.3,662.5,189.5z M216,189.3L216,189.3
	c0,8.8,0,17.5,0,26.3c0,2.1-0.1,3.9,3,3.9c2.9,0,3.2-1.5,3.2-3.8c0-17.5,0-35.1,0-52.7c0-2.2-0.3-3.5-3.1-3.5c-2.6,0-3.2,1-3.2,3.4
	C216,171.7,216,180.5,216,189.3z M327.4,138.5C327.4,138.6,327.4,138.6,327.4,138.5c11.7,0,23.3,0,35,0c0.9,0,2.4,0.5,2.4-0.9
	c0-1-1.1-1.8-2.3-2c-0.7-0.1-1.4-0.1-2.1-0.1c-1.9,0-3.8,0-5.7,0c-1.7,0-2.9-0.5-2.8-2.6c0.2-2-0.9-2.6-2.8-2.5
	c-1.6,0.1-3.6-0.4-3.5,2.4c0.1,1.8-0.7,2.8-2.6,2.8c-4.7,0-9.4,0-14,0c-1.6,0-2.7-0.6-2.7-2.4c0.1-2.2-1-2.9-3.1-2.8
	c-1.9,0.1-3.4,0.4-3.3,2.8c0.1,1.5-0.7,2.5-2.3,2.5c-4.9,0-9.8,0-14.6,0c-1.2,0-2.4-0.4-2.3-1.8c0.4-3.6-1.8-3.5-4.3-3.3
	c-1.3,0.1-2.6,0.2-3.9,0c-3-0.5-3.5,1.2-3.4,3.7c0.1,4.4,0,4.4,3.5,4.4C304.3,138.6,315.9,138.5,327.4,138.5z M590.8,189.3
	c0-8.9,0-17.7,0-26.6c0-1.1,0.3-2.5-1.3-3c-3.2-1-5,0.2-5,3.5c0,17.5,0,35,0,52.5c0,2.5,0.9,3.2,3.3,3.2c2.7,0,3.1-1.1,3.1-3.4
	C590.8,206.8,590.8,198,590.8,189.3z M144.3,189c0,9,0.1,18.1,0,27.1c0,2.7,1.5,2.7,3.4,2.8c2.1,0.1,2.8-0.7,2.8-2.8
	c0-17.9-0.1-35.7,0-53.5c0-2.5-1.1-3-3.3-3c-2.4-0.1-3.1,0.8-3,3.1C144.3,171.4,144.3,180.2,144.3,189z M180,189.3
	c0,8.9,0.1,17.7,0,26.6c0,2.4,0.9,3.1,3.2,3c2.2,0,3.2-0.4,3.2-3c-0.1-17.6-0.1-35.2,0-52.9c0-2.4-0.5-3.6-3.3-3.6
	c-2.7,0-3.1,1.3-3.1,3.5C180.1,171.8,180,180.5,180,189.3z M515,138.6L515,138.6c1,0,2,0,3,0c10.8,0,21.5,0,32.3,0
	c1.1,0,2.4,0.4,2.9-1.3c1.4-4.6-0.1-6.8-4.9-6.8c-1.3,0-2.6,0-3.9,0c-1.7-0.1-2.7,0.5-2.6,2.3c0.1,2.3-1.2,2.9-3.2,2.9
	c-4.3-0.1-8.6-0.1-12.8,0c-2.2,0-3.4-0.6-3.4-3c0-2.7-2.1-2-3.7-2.2c-1.7-0.1-2.8,0.5-2.6,2.4c0.2,2.2-1,2.8-2.9,2.8
	c-4.6,0-9.2,0-13.7,0c-1.8,0-2.8-0.7-2.7-2.7c0.2-2.7-1.7-2.3-3.4-2.5c-1.8-0.1-2.9,0.4-2.8,2.4c0.1,2.2-1.2,2.7-3.1,2.7
	c-2.4,0-4.8,0-7.2,0c-1.3,0-2.6,0.9-2.6,2c0,1.6,1.6,0.9,2.5,0.9C491.9,138.6,503.5,138.6,515,138.6z M421.4,130.4L421.4,130.4
	c-18.5,0-37.1,0-55.6,0c-0.9,0-2.4-0.6-2.4,0.9c0,1,1.2,1.8,2.4,1.9c0.6,0.1,1.2,0,1.8,0c10.8,0,21.5,0,32.3,0
	c25.2,0,50.4,0,75.6,0.1c1.8,0,3.7-0.4,3.6-2.2c0-1.4-2.2-0.8-3.3-0.8C457.7,130.4,439.5,130.4,421.4,130.4z M212.5,152.1
	C212.5,152.1,212.5,152.1,212.5,152.1c23.2,0,46.5,0,69.7-0.1c1.1,0,3,0.7,2.9-1.4c0-1.9-1.7-1.3-2.8-1.3c-46.1,0-92.1,0-138.2,0
	c-1.6,0-3.6,0.3-3.6,1.8c0.1,1.8,2.2,1,3.4,1C166.8,152.1,189.6,152.1,212.5,152.1z M629.6,152.1L629.6,152.1c23,0,46,0,69.1,0
	c1.2,0,3.2,0.7,3.3-0.9c0.1-1.7-1.9-1.9-3.5-1.9c-0.4,0-0.8,0-1.2,0c-45.3,0-90.7,0-136.1,0.1c-1.3,0-3.8-1.1-3.7,1.5
	c0.1,2.1,2.4,1.3,3.7,1.3C584,152.1,606.8,152.1,629.6,152.1z M88.4,155.5c15.1,0,30.1,0,45.2,0c0.7,0,1.4,0,2.1,0
	c0.9,0,1.2-0.7,1.2-1.4c0-0.8-0.4-1.3-1.2-1.4c-0.7,0-1.4,0-2.1,0c-29.8,0-59.6,0-89.4,0c-0.9,0-1.8,0-2.7,0.1
	c-0.8,0.1-1.3,0.5-1.2,1.4c0,0.8,0.5,1.3,1.3,1.3c0.7,0,1.4,0,2.1,0C58.5,155.5,73.5,155.5,88.4,155.5z M753.9,155.6
	c14.9,0,29.7,0,44.6-0.1c1.3,0,3.8,1.1,3.8-1.4c0-2.5-2.5-1.4-3.8-1.4c-28.2-0.1-56.5,0-84.7,0c-2.1,0-4.2,0-6.3,0
	c-0.9,0-1.6,0.3-1.7,1.3c-0.1,1.2,0.7,1.5,1.7,1.5c0.8,0,1.6,0,2.4,0C724.6,155.6,739.3,155.6,753.9,155.6z M201.3,209.1
	c-1.9,0-3.8,0-5.7,0c-8.3,0.2-6.9-1.7-7.1,7.3c0,1.8,0.6,2.5,2.5,2.4c5.2-0.1,10.4,0,15.5,0c8.5-0.1,6.8,1.4,7.1-7.3
	c0.1-1.9-0.7-2.5-2.5-2.4C207.9,209.2,204.6,209.1,201.3,209.1z M677.5,209.1C677.5,209.1,677.5,209.1,677.5,209.1
	c-2.1,0-4.2,0-6.3,0c-7.9,0-6.2-0.7-6.5,6.7c-0.1,2.4,0.8,3,3.1,3.1c5.9,0.1,11.9-0.5,17.8,0.4c3.5,0.5,4.2-0.6,4.2-4.2
	c0-1.3,0-2.6,0-3.9c0.1-1.5-0.6-2.1-2.1-2.1C684.3,209.2,680.9,209.1,677.5,209.1z M569.6,218.9c1.9,0,3.8,0,5.7,0
	c8.2-0.1,7,1.5,7.1-7.4c0-1.9-0.7-2.4-2.5-2.4c-5.2,0.1-10.3,0-15.5,0c-7.3,0-7.2,0-7.1,7.3c0,1.9,0.7,2.5,2.4,2.4
	C563,218.8,566.3,218.9,569.6,218.9z M641.5,209.1c-1.9,0-3.8,0-5.7,0c-7,0-6.9,0-6.9,6.9c0,2.3,0.9,2.9,3,2.8
	c5.1-0.1,10.1,0,15.2,0c8.1-0.1,6.7,1.3,6.9-7.3c0-1.8-0.6-2.5-2.4-2.5C648.2,209.2,644.9,209.1,641.5,209.1z M237.1,209.1
	L237.1,209.1c-3.5,0-6.9,0-10.4,0c-1.4,0-2.5,0.5-2.2,2c0.6,2.5-1.6,5.5,1.2,7.6c0.2,0.1,0.6,0.1,0.9,0.1c6.9,0,13.7,0,20.6,0
	c1.4,0,2.5-0.6,2.2-2c-0.5-2.5,1.6-5.6-1.3-7.6c-0.5-0.3-1.4-0.1-2.1-0.1C243,209.1,240,209.1,237.1,209.1z M273.2,209.1
	L273.2,209.1c-2,0-4,0-6,0c-8.1,0.1-6.9-1.3-7,7.2c0,2,0.8,2.6,2.7,2.6c5.2-0.1,10.4,0,15.5,0c8-0.1,6.6,1.5,6.8-7
	c0-0.2,0-0.4,0-0.6c0.1-1.6-0.7-2.1-2.2-2.1C279.8,209.2,276.5,209.1,273.2,209.1z M605.4,209.1L605.4,209.1c-1.9,0-3.8,0-5.7,0
	c-8.1,0.1-6.3-1.1-6.7,6.9c-0.1,2.3,0.9,3,3,2.9c5.1-0.1,10.2,0,15.2,0c7.9-0.1,6.6,1.4,6.8-7.1c0.1-2.2-0.9-2.8-2.9-2.7
	C612,209.2,608.7,209.1,605.4,209.1z M164.9,218.9C164.9,218.9,164.9,218.9,164.9,218.9c2,0,4,0,6,0c8.1-0.2,6.6,1.5,6.9-7
	c0.1-2.1-0.8-2.8-2.8-2.8c-5.2,0.1-10.4,0-15.6,0.1c-8.1,0.1-6.5-1.3-6.7,7.1c-0.1,1.9,0.7,2.7,2.6,2.7
	C158.5,218.8,161.7,218.9,164.9,218.9z M455.7,246.3c1.4,0,2.8-0.1,4.2,0c2.3,0.2,3.3-0.6,3.1-3c-0.2-2.6-0.1-5.2,0-7.8
	c0.1-1.8-0.5-2.6-2.4-2.5c-2.3,0.1-4.6,0-6.9,0c-5.7,0-5.7,0-5.6,5.5C448.1,246.3,448.1,246.3,455.7,246.3z M386.9,246.3
	c1.6,0,3.2-0.1,4.8,0c2,0.1,2.9-0.7,2.8-2.8c-0.1-2.7-0.1-5.4,0-8c0-1.5-0.4-2.5-2.1-2.4c-2.3,0.1-4.6,0-6.9,0c-5.9,0-5.9,0-5.8,5.8
	C379.6,246.3,379.6,246.3,386.9,246.3z M421.3,233.1c-1.7,0-3.4,0-5.1,0c-1.7-0.1-2.3,0.7-2.2,2.4c0.1,2.8,0.1,5.6,0,8.4
	c-0.1,1.8,0.6,2.6,2.4,2.5c2.1-0.1,4.2,0,6.3,0c7.2,0,5.9,0.4,5.9-5.8C428.6,233,428.6,233,421.3,233.1z M421.1,215.4
	c4.1,0,8.2-0.1,12.2,0c3.1,0.1,2.2-2.3,2.4-3.8c0.2-1.4-0.4-2.6-2.3-2.6c-8.1,0-16.1,0.1-24.2,0c-2.8,0-2.2,1.8-2.3,3.4
	c-0.1,1.9,0.2,3,2.5,2.9C413.4,215.3,417.2,215.4,421.1,215.4z M703.4,180.9C703.4,180.9,703.4,180.9,703.4,180.9
	c0-7.3,0.1-14.5,0-21.8c0-1.4,1-3.7-0.7-3.8c-1.7-0.1-1.9,2.4-2.1,4.1c0,0.3,0,0.6,0,0.9c0,14.7,0,29.3,0,44c0,1.2-0.2,2.7,1.6,2.6
	c1.6-0.1,1.3-1.5,1.3-2.5C703.4,196.4,703.4,188.7,703.4,180.9z M139.1,180.9C139.1,180.9,139.1,180.9,139.1,180.9
	c0,4.9,0,9.8,0,14.6c0,3.1,0,6.2,0,9.3c0,1.1,0.2,2.1,1.6,2c1.2-0.1,1.3-1,1.3-2c0-0.4,0-0.8,0-1.2c0-14.5,0-28.9,0-43.4
	c0-1.1-0.1-2.2-0.4-3.2c-0.3-0.8-0.6-2.3-1.9-1.9c-1,0.3-0.6,1.6-0.6,2.4C139,165.3,139.1,173.1,139.1,180.9z M514,123.4
	C513.9,123.4,513.9,123.4,514,123.4c-0.1-2.5-0.2-5,0-7.5c0.2-2.6-1.3-2.6-3.1-2.6c-1.8,0-3.3-0.2-3.2,2.5c0.2,4.9,0.2,9.7,0,14.6
	c-0.1,2.3,0.8,3,3,2.9c1.9-0.1,3.6-0.1,3.4-2.8C513.8,128.2,514,125.8,514,123.4z M335,123.2c0-2.5-0.1-5,0-7.5
	c0.1-1.9-0.8-2.6-2.5-2.3c-1.6,0.2-3.9-0.9-3.9,2.1c0,5.2,0,10.4,0,15.5c0,2.8,2,2.1,3.6,2.3c1.8,0.2,2.9-0.3,2.9-2.4
	C334.9,128.4,335,125.8,335,123.2z M343.5,123.3c0-2.6-0.1-5.2,0-7.7c0.1-2.3-1.4-2.2-3-2.1c-1.5,0.1-3.4-0.7-3.4,2
	c0,5.2,0.1,10.3,0,15.5c0,2.7,1.7,2.4,3.4,2.4c1.9,0.1,3.1-0.3,3-2.6C343.4,128.3,343.5,125.8,343.5,123.3z M309.3,123.2
	c0-2.6-0.1-5.2,0-7.7c0.1-2.4-1.5-2.1-3-2.1c-1.5,0-3.4-0.5-3.3,2.1c0.1,5.2,0,10.3,0,15.5c0,2.8,1.9,2.2,3.5,2.3
	c1.7,0.1,2.9-0.2,2.8-2.4C309.2,128.4,309.3,125.8,309.3,123.2z M488.4,123.1c0-2.3-0.1-4.6,0-6.9c0.1-2-0.5-2.8-2.7-2.9
	c-2.8-0.2-4.2,0.6-3.6,3.6c0,0.2,0,0.4,0,0.6c-1.1,4.9,1.7,9.8,0.1,14.7c-0.1,0.2,0.1,0.7,0.3,0.8c1.4,0.6,2.9,0.3,4.4,0.1
	c1.3-0.1,1.4-1.2,1.4-2.3C488.4,128.3,488.4,125.7,488.4,123.1z M465.7,128.1c0.7,0,1.4-0.1,2.1,0c2.7,0.4,4-0.6,3.5-3.5
	c-0.1-0.5,0-1,0-1.5c0-7.4,0.5-6.2-6.1-6.3c-5.9-0.1-5.4-0.5-5.4,5.5C459.9,129,458.8,128.1,465.7,128.1z M539.6,123.4
	C539.6,123.4,539.6,123.4,539.6,123.4c0-2.6-0.1-5.2,0-7.7c0.1-2.6-1.6-2.3-3.2-2.3c-1.6,0-3.3-0.4-3.2,2.2c0.1,5.1,0.1,10.1,0,15.2
	c0,2,0.8,2.7,2.7,2.5c1.7-0.1,3.8,0.5,3.7-2.5C539.6,128.4,539.6,125.9,539.6,123.4z M505.4,123.3c0-2.6-0.1-5.2,0-7.8
	c0.1-2.4-1.5-2.2-3-2.1c-1.5,0-3.3-0.5-3.3,2.1c0.1,5.2,0.1,10.4,0,15.5c0,2.4,1.4,2.2,3,2.2c1.6,0,3.4,0.3,3.3-2.2
	C505.3,128.5,505.4,125.9,505.4,123.3z M524.7,123.2C524.7,123.2,524.7,123.2,524.7,123.2c0,2.6,0.1,5.2-0.1,7.8
	c-0.1,2.5,1.5,2.3,3.2,2.4c1.7,0,3.2,0.1,3.2-2.3c-0.1-5.1-0.1-10.2,0-15.2c0-2.5-1.5-2.3-3.2-2.4s-3.3-0.2-3.2,2.3
	C524.8,118.2,524.7,120.7,524.7,123.2z M317.8,123.2C317.8,123.2,317.8,123.2,317.8,123.2c0-2.6-0.1-5.2,0-7.8
	c0.1-2.1-1.3-2.2-2.8-2.1c-1.4,0.1-3.5-0.7-3.5,1.9c0,5.3,0,10.6,0,15.9c0,2.8,2.2,1.9,3.8,2.1c1.6,0.2,2.7-0.3,2.6-2.3
	C317.7,128.4,317.8,125.8,317.8,123.2z M136.2,220.2c0-0.2,0-0.5,0-0.7c-31.9,0-63.8,0-95.6,0c0,0.2,0,0.5,0,0.7
	C72.4,220.2,104.3,220.2,136.2,220.2z M376.8,128.1c6.6-0.1,5.9,0.8,5.8-5.3c0-6.9,0.7-5.9-5.8-5.9c-6.5,0-5.5-0.4-5.6,5.6
	C371.2,128.8,370.4,128.1,376.8,128.1z M360.5,121.2c0-2.3,0-4.2,0-6.1c0-1.5-0.9-1.9-2.1-1.7c-1.4,0.2-3.8-1-3.9,1.3
	c-0.3,5.6-0.1,11.3-0.1,17c0,1,0.6,1.5,1.5,1.5c1.5,0,3.1,0.6,4.3-0.5c0.8-0.7-0.2-1.4-0.6-2c-0.3-0.5-0.7-1.2-0.3-1.6
	C361.6,126.5,359.9,123.5,360.5,121.2z M430.9,122.4c0,1,0.1,2,0,3c-0.2,2,0.4,2.9,2.6,2.8c8.7-0.3,6.8,1.1,7-7.1
	c0.1-4.1,0-4.1-4-4.1C430.2,116.9,430.9,116.2,430.9,122.4z M411.7,122.7c0-0.8-0.1-1.6,0-2.4c0.3-2.6-0.6-3.5-3.3-3.4
	c-7.5,0.2-6.3-0.6-6.4,6.7c0,0.2,0,0.4,0,0.6c0,4,0,4,4.1,4C412.7,128.1,411.6,129,411.7,122.7z M335.9,217.1
	C335.9,217.1,335.9,217.1,335.9,217.1c1.7,0,3.4-0.1,5,0c2.5,0.2,2.6-1.2,2.6-3.1c0-1.9-0.1-3.3-2.6-3.2c-3.3,0.1-6.5,0.1-9.8,0
	c-1.7,0-2.5,0.5-2.6,2.3c-0.2,3.7,0,4,3.8,4C333.5,217.1,334.7,217.1,335.9,217.1z M506.6,217.1c1.8,0,3.6,0,5.4,0
	c2.2,0.1,2.1-1.4,2-2.9s0.7-3.5-2-3.5c-3.6,0-7.2,0-10.8,0c-0.9,0-1.7,0.1-2.1,1.2c-1.1,3.3,0.1,5.1,3.6,5.1
	C504.1,217.1,505.4,217.1,506.6,217.1z M479.9,120.9L479.9,120.9c0-1.6-0.1-3.2,0-4.8c0.2-2.6-1.3-2.8-3.3-2.8c-2,0-3.2,0.3-3.1,2.7
	c0.2,3.2,0.1,6.3,0,9.5c-0.1,2.2,0.9,2.6,2.8,2.7c2.6,0.1,4-0.5,3.5-3.5C479.7,123.5,479.9,122.2,479.9,120.9z M369,120.8
	C369,120.8,369,120.8,369,120.8c0-1.8,0-3.6,0.1-5.4c0.1-2.1-1.3-2.2-2.8-2c-1.4,0.2-3.5-0.8-3.5,1.9c0,3.7,0,7.4,0,11.1
	c0,0.7,0.2,1.3,1,1.6c3,1.2,5.2-0.1,5.2-3.3C369,123.4,369,122.1,369,120.8z M391.3,120.7L391.3,120.7c0-1.7-0.1-3.4,0-5
	c0.2-2.3-1.2-2.4-2.8-2.2c-1.5,0.1-3.6-0.7-3.6,2.2c0.1,3.4,0.1,6.7,0,10.1c0,1.8,0.6,2.4,2.4,2.5c3.8,0.1,3.9,0,3.9-3.6
	C391.3,123.3,391.3,122,391.3,120.7z M399.8,120.9C399.8,120.9,399.8,120.9,399.8,120.9c0-1.8,0-3.6,0.1-5.4
	c0.1-2.6-1.8-2.1-3.3-2.2c-1.5,0-3.1-0.2-3,2.1c0.1,3.3,0.1,6.6,0,9.9c-0.1,2.1,0.6,2.7,2.7,2.8c2.9,0.2,4-0.8,3.6-3.7
	C399.6,123.4,399.8,122.1,399.8,120.9z M442.8,120.5c0,1.8,0.1,3.6,0,5.4c-0.2,2.6,1.5,2.3,3.1,2.3c1.6,0,3.2,0.3,3.1-2.3
	c-0.2-3.3-0.1-6.6,0-9.9c0.1-2-0.7-2.5-2.6-2.6c-2.8-0.2-4.2,0.5-3.7,3.6C443,118.1,442.8,119.3,442.8,120.5z M420.2,121
	c0-1.7-0.1-3.4,0-5.1c0.2-2.4-1.1-2.6-2.9-2.5c-1.7,0.1-3.5-0.3-3.4,2.4c0.1,3.4,0.1,6.8,0,10.2c0,1.8,0.8,2.2,2.4,2.2
	c3.8,0.1,3.9,0.1,3.9-3.6C420.2,123.4,420.2,122.2,420.2,121z M457.6,120.7C457.6,120.7,457.6,120.7,457.6,120.7c0-1.8,0-3.6,0-5.4
	c0-2.9-2.2-1.8-3.7-2c-1.6-0.2-2.7,0.2-2.6,2.2c0.1,3.3,0.2,6.5,0,9.8c-0.1,2.4,0.9,2.7,3,2.8c2.5,0.1,3.7-0.6,3.4-3.3
	C457.5,123.5,457.6,122.1,457.6,120.7z M428.6,121C428.6,121,428.6,121,428.6,121c0-1.8,0-3.6,0-5.4c0.1-2.6-1.7-2.2-3.2-2.2
	c-1.6-0.1-3-0.1-2.9,2.2c0.1,3.4,0.1,6.8,0,10.1c-0.1,1.9,0.8,2.3,2.5,2.4c2.8,0.2,4.1-0.6,3.7-3.6
	C428.5,123.4,428.6,122.2,428.6,121z M420.2,179.7c-0.2-1.3,0.8-3.4-0.6-4.3c-1.8-1.2-4.3-0.8-6.4-0.3c-1.7,0.4-1.2,2.3-1.2,3.6
	c0.2,6.8-1.3,5.6,6.2,5.8c1.4,0,2-0.5,2-1.9C420.1,181.7,420.2,180.8,420.2,179.7z M420.2,202.2c0-1.1,0-2.2,0-3.3
	c0-1-0.5-1.5-1.6-1.8c-5.4-1-6.5-0.1-6.6,5.2c0,0.2,0,0.4,0,0.6c0,4.5,0,4.5,4.4,4.5C420.1,207.4,420.2,207.3,420.2,202.2z
	 M430.4,179.6c-0.3-1.3,0.8-3.4-0.9-4.5c-3.2-2-7,0.2-6.9,3.9c0,5.8,0,5.7,5.7,5.5c1.7-0.1,2.3-0.8,2.2-2.4
	C430.4,181.4,430.4,180.6,430.4,179.6z M88.4,211.9L88.4,211.9c2.4,0,4.8-0.1,7.2,0c1.5,0,2.2-0.6,2.1-2.1c-0.1-1.3-0.2-2.4-1.9-2.4
	c-4.8,0-9.5,0-14.3,0c-1.6,0-2,0.9-2,2.3c0,1.5,0.6,2.2,2.1,2.2C83.8,211.9,86.1,211.9,88.4,211.9z M754,211.9c2.4,0,4.8,0,7.2,0
	c1.6,0,2-0.8,2-2.3c0-1.4-0.3-2.3-2-2.3c-4.7,0.1-9.4,0.1-14,0c-1.8,0-2.1,1-2.2,2.5c-0.1,1.6,0.8,2.1,2.2,2.1
	C749.5,211.9,751.8,211.9,754,211.9z M88.3,176C88.3,176,88.3,176,88.3,176c2,0,4,0,5.9,0c0.7,0,1.5,0.2,1.9-0.5
	c0.5-0.8-0.2-1.5-0.7-2.1c-4.4-5.3-10.5-4.5-14.7,0.5c-1,1.2-0.2,2,1.3,2C84.1,176,86.2,176,88.3,176z M430.4,202.1
	C430.4,202.1,430.4,202.1,430.4,202.1c0-1.1,0-2.2,0-3.3c0-0.8-0.3-1.5-1.1-1.5c-1.9-0.1-3.8-0.2-5.6,0.1c-1.6,0.3-1.2,2-1,3
	c0.3,2.1-1.3,5,1.1,6.2c1.7,0.9,4.2,0.8,6.1-0.1c1.5-0.7,0.4-2.7,0.7-4.1C430.4,202.3,430.4,202.2,430.4,202.1z M754.1,176
	c2,0,4,0,6,0c2.1,0,2.1-1,1.2-2.4c-3.2-5.1-11.6-4.9-14.6,0.2c-0.9,1.5-0.5,2.2,1.2,2.2C750,176,752,176,754.1,176z M420.2,191.4
	c-0.1-2.4,0.9-4.9-3.1-4.7c-5.1,0.3-5.1,0-5.1,3.7c0,4.5,0,4.5,4,4.5C420.2,194.9,420.2,194.9,420.2,191.4z M52.1,192.1
	c0.5,1.6-1.5,4.5,2.6,4.5c3.6,0,3.8,0,3.8-3.8c0-0.9-0.1-1.8,0-2.7c0.2-2.2-0.3-3.5-3-3.5c-2.6,0-3.8,0.8-3.4,3.4
	C52.2,190.7,52.1,191.3,52.1,192.1z M732.6,191.5c-0.7-1.4,1.6-4.2-2-4.7c-3.8-0.5-4.3-0.1-4.3,3.8c0,1,0.1,2,0,3
	c-0.3,2.4,0.7,3.1,3,3c2.2,0,3.7-0.4,3.4-3.1C732.5,193,732.6,192.4,732.6,191.5z M81.1,191.6c0,5.1,0,5,3.4,5
	c2.4,0.1,3.2-0.9,2.9-3.2c-0.1-1.2-0.1-2.4,0-3.6c0.3-2.6-0.9-3.1-3.3-3.1c-2.3,0-3.4,0.6-3.1,3.1C81.2,190.4,81.1,191,81.1,191.6z
	 M724,191.4c-0.6-1.5,1.6-4.6-2.7-4.6c-2.8,0-4.1,0.7-3.7,3.7c0.2,1,0.1,2,0,3c-0.3,2.5,0.7,3.3,3.2,3.2c2.4,0,3.6-0.7,3.2-3.2
	C723.9,192.8,724,192.2,724,191.4z M66.9,191.7c0-4.8,0-4.6-2.7-4.9c-2.8-0.3-4.1,0.6-3.7,3.6c0.2,1.1,0.1,2.2,0,3.3
	c-0.3,2.4,0.8,3.1,3.1,3c2.3,0,3.7-0.6,3.3-3.2C66.8,192.9,66.9,192.3,66.9,191.7z M379.6,179.6c0.1,5.2,0.1,5,4.1,4.9
	c2.3-0.1,2.6-1.6,2.1-3c-0.7-2.2,2.2-5.8-2-6.7C380,174.1,379.5,174.9,379.6,179.6z M790.5,191.6c0-4.3,0-4.3-1.2-4.7
	c-3.2-1.1-5.1,0.1-5.1,3.5c0,1,0.1,2,0,3c-0.3,2.5,0.7,3.3,3.2,3.2c2.4,0,3.6-0.7,3.2-3.2C790.4,192.8,790.5,192.2,790.5,191.6z
	 M118.6,191.8c0,4.9,0.3,5.2,4.5,4.8c2.1-0.2,2-1.6,1.7-2.8c-0.6-2.3,1.9-5.8-1.6-6.9c-3.8-1.2-4.6-0.2-4.6,3.6
	C118.6,191,118.6,191.4,118.6,191.8z M394.5,180c0-1.2,0-2.3,0-3.4c0-0.9-0.5-1.4-1.4-1.7c-3.4-1-5,0.2-5,3.7c0,0.7,0,1.4,0,2.1
	c0,3.8,0.2,4,4,3.8C395.9,184.3,393.9,181.5,394.5,180z M422.5,190.2c0,4.8,0,4.7,3.8,4.8c2.2,0,4.4,0.4,4.1-3.2
	c-0.3-4.9-0.1-4.8-4.5-5C422.9,186.6,422,187.8,422.5,190.2z M454.4,179.5c-0.4-1.9,1.4-4.9-3-4.7c-2.6,0.1-3.6,1-3.3,3.5
	c0.1,0.9,0.1,1.8,0,2.7c-0.4,2.7,0.6,3.6,3.4,3.7c2.9,0,3.1-1.4,2.9-3.5C454.3,180.6,454.4,180.1,454.4,179.5z M385.9,201.9
	c-0.6-1.6,1.5-4.6-2.6-4.8c-2.9-0.1-4,0.8-3.7,3.7c0.1,1,0.1,2,0,3c-0.4,2.6,0.9,3.1,3.3,3.1c2.6,0,3.4-0.9,3.1-3.3
	C385.9,203.1,385.9,202.6,385.9,201.9z M388.1,202.2c0.5,1.7-1.5,4.7,2.7,4.8c2.8,0.1,4.1-0.7,3.7-3.7c-0.1-1-0.1-2,0-3
	c0.3-2.6-1-3.1-3.3-3.2c-2.4,0-3.3,0.8-3.1,3.1C388.2,200.8,388.1,201.4,388.1,202.2z M781.9,191.7
	C781.9,191.7,781.9,191.7,781.9,191.7c0-1.1,0-2.2,0-3.3c0-0.9-0.3-1.4-1.3-1.6c-3.7-0.8-4.9,0.1-4.9,3.9c0,1.4,0,2.8,0,4.2
	c0,0.6-0.1,1.4,0.6,1.5c1.6,0.1,3.2,0.4,4.7,0c1.6-0.4,0.7-2,0.9-3.1C782,192.7,781.9,192.2,781.9,191.7z M456.6,179.3
	c0,1.4,0,2.5,0,3.5c0,1.1,0.6,1.5,1.7,1.7c3.9,0.6,4.7,0,4.6-3.8c0-0.7,0-1.4,0-2.1c0-3.8-0.3-4-4-3.8
	C455.2,175.1,457.2,177.9,456.6,179.3z M454.3,202.1c0-4.9,0-4.7-2.8-5c-2.8-0.2-3.7,0.9-3.5,3.5c0.1,1.4,0,2.8,0,4.1
	c0,0.7-0.1,1.5,0.7,1.8c1.5,0.5,3.2,0.5,4.7,0.1c1.5-0.4,0.8-2,0.9-3.1C454.4,203.1,454.3,202.6,454.3,202.1z M116.4,191.8
	c0-0.9,0-1.8,0-2.7c0.1-1.6-0.5-2.3-2.2-2.4c-3.8-0.1-4,0-4,3.8c0,1,0.1,2,0,3c-0.4,2.6,0.9,3.1,3.2,3.1s3.3-0.7,3-3.1
	C116.3,193,116.4,192.4,116.4,191.8z M761.5,191.9c0-0.8-0.1-1.6,0-2.4c0.3-2.2-0.8-2.6-2.8-2.8c-2.5-0.1-3.8,0.5-3.4,3.3
	c0.2,1.2,0.2,2.4,0,3.6c-0.4,2.5,0.9,3,3.1,3c2.1,0,3.6-0.3,3.1-2.9C761.4,193.1,761.5,192.5,761.5,191.9z M753,191.8c0-1,0-2,0-3
	c0.1-1.4-0.6-1.9-1.9-2c-3.8-0.4-4.3,0-4.3,3.8c0,1,0.1,2,0,3c-0.3,2.3,0.6,3.1,3,3.1c2.3,0,3.7-0.5,3.3-3.1
	C752.9,193,753,192.4,753,191.8z M462.9,202c-0.3-1.4,0.8-3.4-0.8-4.5c-1.3-0.8-3.6-0.9-4.5,0c-2,2.1-0.7,5-0.9,7.6
	c-0.1,1,0.4,1.9,1.6,2.2c0.2,0,0.4,0,0.6,0C462,207.8,462.9,206.7,462.9,202z M95.9,192.1c0-1.2,0-2.4,0-3.6c0-0.9-0.4-1.4-1.3-1.7
	c-3.5-1-4.9,0.1-5,3.7c0,0.9,0.1,1.8,0,2.7c-0.3,2.5,0.6,3.3,3.2,3.4C96.9,196.8,95.7,194.2,95.9,192.1z M317.7,204.4
	c-0.3-1.1,0.8-2.9-0.8-3.6c-1.4-0.6-3.2-0.5-4.6,0s-0.7,2-0.8,3.1c-0.1,0.7,0,1.4,0,2.1c-0.2,1.8,0.5,2.5,2.3,2.6
	C317.4,208.8,317.6,208.6,317.7,204.4z M309.2,194.4c0-4.2,0-4-3.3-4.3c-3.8-0.3-2.9,2.3-2.9,4.3c0,0.5,0,1,0,1.5
	c-0.2,1.9,0.6,2.4,2.4,2.4C309.2,198.4,309.2,198.5,309.2,194.4z M303,204.4c0,4.1,0,3.9,3.1,4.2c3.5,0.3,3.4-1.7,3.2-4.1
	c0-0.7,0-1.4,0-2.1c0-1.4-0.7-1.8-2-1.9C303.3,200.3,303,200.5,303,204.4z M309.2,184.3c0.1-2.3,0.5-4.4-3-4.2
	c-3.7,0.2-3.6,0.1-3.9,4.5c-0.2,3,1.2,3.3,3.6,3.5C309.4,188.3,309.5,186.5,309.2,184.3z M337.1,194.1c0,4.3,0,4.1,3.3,4.3
	c3.7,0.3,3-2.2,3-4.3c0-0.4-0.1-0.8,0-1.2c0.2-2-0.6-2.8-2.7-2.8C337.1,190.2,337.1,190.1,337.1,194.1z M271.8,194.2
	c-0.4-1.1,0.9-2.9-0.9-3.8c-2.9-1.5-5.4,0.2-5.4,3.3c0,0.8,0,1.6,0,2.4c-0.1,1.6,0.6,2.2,2.3,2.3
	C271.6,198.5,271.7,198.5,271.8,194.2z M337.1,204.1c-0.2,2.4-0.6,4.7,3,4.5c2.3-0.1,3.8-0.5,3.3-3.1c-0.4-2,1.5-5-2.9-5
	C337.4,200.4,336.6,201.7,337.1,204.1z M684.7,194.3c-0.3-1.3,0.9-3.1-1-3.9c-3-1.3-5.3,0.2-5.3,3.4c0,0.5,0.1,1,0,1.5
	c-0.3,2.3,0.5,3,2.9,3.1C684.7,198.6,685.2,197,684.7,194.3z M533.5,204.4c0.3,1.3-0.9,3,0.9,4c2.8,1.5,5.4-0.1,5.4-3.3
	c0-0.5-0.1-1,0-1.5c0.4-2.4-0.7-3-3-3.1C533.7,200.3,532.9,201.6,533.5,204.4z M505.4,204.6c0.4-2.5,0.3-4.2-3.1-4.2
	c-3.3,0-3.2,1.8-3,4c0,0.4,0.1,0.8,0,1.2c-0.4,2.2,0.6,2.9,2.8,3C505.4,208.9,506,207.3,505.4,204.6z M379.6,191c0,3.9,0,3.7,3.2,4
	c3.3,0.3,3.2-1.7,3.1-3.9c0-0.5,0-1,0-1.5c0.3-2.1-0.7-2.8-2.7-2.8C379.7,186.7,379.6,186.7,379.6,191z M676.2,194.4
	c0-0.3,0-0.6,0-0.9c0.4-2.6-0.7-3.4-3.3-3.4c-2.7,0-3.2,1.1-3,3.4c0,0.5,0.1,1,0,1.5c-0.5,2.8,0.8,3.5,3.5,3.4
	C676.7,198.4,676.2,196.4,676.2,194.4z M334.9,204.7c0.1-2.3,0.5-4.6-3.1-4.3c-3.2,0.3-3.1,0.1-3.2,5c-0.1,2.7,1.1,3,3.4,3.1
	C335.2,208.8,335.2,206.9,334.9,204.7z M539.7,194.4c0-4.1,0-3.9-3-4.2c-3.8-0.4-3.3,2-3.3,4.3c0,0.4,0,0.8,0,1.2
	c-0.2,1.9,0.5,2.7,2.5,2.7C539.6,198.5,539.7,198.5,539.7,194.4z M640.4,194.3c0-4.3,0-4.2-4-4.1c-3.8,0.1-1.9,2.9-2.3,4.6
	c-0.6,2.7,0.6,3.5,3.4,3.6C641,198.5,640.4,196.3,640.4,194.3z M317.7,194.3c-0.2-1.2,0.7-2.9-0.7-3.7c-1.3-0.8-3.1-0.5-4.6-0.1
	c-1.5,0.4-0.9,1.8-1,2.8c-0.1,0.9,0,1.8,0,2.7c-0.2,1.8,0.6,2.4,2.4,2.5C317.5,198.5,317.7,198.4,317.7,194.3z M514,194.7
	c0-4.5,0-4.3-3.6-4.5c-3.7-0.2-2.4,2.4-2.7,4.2c0,0.3,0,0.6,0,0.9c-0.4,2.7,0.8,3.3,3.4,3.2C514.3,198.5,514.2,196.6,514,194.7z
	 M514,204.7c0.2-2.3,0.5-4.4-3-4.2c-2.7,0.1-3.5,1-3.2,3.5c0.2,2.3-0.7,4.8,3.3,4.7C514.3,208.6,514.2,206.9,514,204.7z
	 M334.9,194.4c-0.2-1.2,0.8-2.9-0.6-3.8c-1.3-0.9-3.1-0.5-4.6-0.2c-1.4,0.3-1,1.7-1.1,2.8c-0.1,1.1,0,2.2,0,3.3c0,1.4,0.7,1.8,2,1.9
	C334.5,198.7,334.9,198.4,334.9,194.4z M362.2,195c0-2.7,0.7-5-2.9-4.7c-3.4,0.3-3.3,0.1-3.5,5c-0.1,2.6,1,3,3.3,3.2
	C362.7,198.7,362.2,196.4,362.2,195z M505.5,194.4c0-3.7,0-3.7-0.9-4.1c-2.8-1.3-5.3,0.3-5.4,3.5c0,0.8,0,1.6,0,2.4
	c-0.1,1.3,0.5,2,1.8,2.1C504.8,198.9,505.5,198.3,505.5,194.4z M394.4,190.8c-0.2-1.3,0.8-3-0.9-3.7c-1.4-0.6-3.5-0.9-4.6,0.1
	c-1.8,1.8-0.8,4.3-0.6,6.5c0.1,1.7,1.8,1,2.9,1.2C394.7,195.4,394.7,193.2,394.4,190.8z M362.1,204c0.5-2.1-0.1-3.6-3.5-3.5
	c-4.3,0.1-2.5,3.1-2.8,5.1c-0.5,3,1.5,2.9,3.6,3C362.8,208.8,362.2,206.6,362.1,204z M311.4,184c-0.2,2.2-0.6,4.3,2.8,4.1
	c2.3-0.2,3.9-0.4,3.4-3.3c-0.3-2,1-4.7-3-4.7C311.5,180,311,181.5,311.4,184z M486.7,204.7c0.2-2.3,0.6-4.5-3-4.3
	c-2.5,0.1-4,0.4-3.6,3.5c0.3,2.2-0.8,4.8,3.3,4.7C486.4,208.6,487.2,207.4,486.7,204.7z M539.7,184.8c0-2.6,0.5-4.7-3.1-4.7
	c-3.2,0-3.3,1.6-3.2,3.9c0.1,1.9-0.8,4.3,2.8,4.2C539.1,188.1,540.4,187.3,539.7,184.8z M462.9,190.9c0.1-2.3,0.5-4.3-2.9-4.2
	c-2.9,0-3.7,1.1-3.4,3.7c0.2,2.1-0.8,4.6,3.1,4.6C463.3,195.1,463.1,193.2,462.9,190.9z M337,183.1c0.1,2.9-0.7,5.1,2.9,5
	c2.7-0.1,3.8-0.8,3.5-3.5c-0.2-2.2,0.6-4.6-3.2-4.5C337,180.1,336.9,181.7,337,183.1z M454.4,190.7c-0.2-0.9,0.6-2.5-0.5-3.4
	c-1.3-1.1-3.1-0.6-4.6-0.3c-1.4,0.2-1.3,1.5-1.2,2.6c0,0.9,0.1,1.8,0,2.7c-0.2,1.9,0.5,2.7,2.5,2.7
	C454.3,195.1,454.4,195,454.4,190.7z M514,184.5c0.1-2.4,0.5-4.5-3-4.5c-3.1,0.1-3.3,1.6-3.2,4c0,2.3-0.3,4.2,3.2,4.2
	C514,188.1,514.4,186.7,514,184.5z M568.6,194.4c-0.2-1.3,0.7-3-0.6-3.9c-1.3-0.9-3.1-0.5-4.6-0.2c-1.5,0.3-0.9,1.8-1,2.8
	c-0.1,0.7,0.1,1.4,0,2.1c-0.3,2.3,0.5,3,2.9,3.2C568.7,198.7,569,197,568.6,194.4z M208.3,193.8c-0.4-0.8,1.2-2.8-1.1-3.5
	c-3.3-1.1-5,0.2-5,3.6c0,0.5,0.1,1,0,1.5c-0.3,2.3,0.7,2.9,3,3.1C208.7,198.6,208.7,196.8,208.3,193.8z M280.2,194.3
	c-0.4-1.2,0.9-3.1-1.1-4c-3-1.3-5.1,0.1-5.1,3.4c0,0.7,0.1,1.4,0,2.1c-0.2,1.9,0.6,2.6,2.5,2.6C280.1,198.4,280.2,198.4,280.2,194.3
	z M229.6,194.1c0.1,2-0.8,4.3,3,4.3c3.7,0,3.3-2.1,3.2-4.4c0-0.4-0.1-0.8,0-1.2c0.3-2.1-0.6-2.8-2.7-2.8
	C229.7,190.2,229.7,190.1,229.6,194.1z M531.2,194.1c0-3.9-0.1-4-4-3.9c-3.7,0.1-1.9,2.9-2.3,4.6c-0.5,2.6,0.5,3.6,3.3,3.6
	C531.7,198.5,531.1,196.3,531.2,194.1z M577.1,194.3c-0.4-1.1,1-3.1-1.1-4c-3.1-1.3-5.1,0.1-5.1,3.4c0,0.9,0,1.8,0,2.7
	c0,1.4,0.7,1.8,2,2C576.8,198.7,577.1,198.4,577.1,194.3z M244.2,194c-0.6-0.9,1.1-2.8-0.9-3.6c-3-1.3-5.1,0.1-5.1,3.4
	c0,0.9,0,1.8,0,2.7c0,1.2,0.4,1.8,1.7,1.9C243.6,198.9,244.2,198.4,244.2,194z M200,193.9c-0.2-0.9,0.8-2.7-0.7-3.4
	c-1.5-0.6-3.8-1-4.8,0.2c-1.6,1.8-0.7,4.4-0.5,6.5c0.2,1.6,1.9,0.9,3,1.1C200.5,198.9,200.1,196.5,200,193.9z M648.8,194.2
	c-0.3-1.2,0.7-2.8-0.5-3.6c-1.4-0.9-3.3-0.5-4.9-0.1c-1.2,0.3-0.7,1.6-0.8,2.6c0,0.8,0.1,1.6,0,2.4c-0.3,2.2,0.6,2.8,2.8,3
	C648.9,198.7,649.2,196.9,648.8,194.2z M486.7,194.4c0-2.1,0.6-4.3-3-4.3c-3.7,0-3.4,2-3.3,4.4c0,0.4,0,0.8,0,1.2
	c-0.2,2.1,0.7,2.8,2.7,2.8C486.7,198.4,486.7,198.4,486.7,194.4z M524.9,204.3c-0.2,2.3-0.5,4.5,3,4.3c2.4-0.1,3.3-0.8,3.2-3.2
	c-0.1-4.5-0.2-4.7-3.2-4.9C524.8,200.2,524.7,202.1,524.9,204.3z M604.4,194.3c0.3-2.2,0.6-4.1-3-4.2c-3.5,0-3.3,1.9-3.2,4.1
	c0,0.4,0,0.8,0,1.2c-0.3,2.1,0.6,2.9,2.8,3C604.5,198.7,604.9,197,604.4,194.3z M606.8,194.2c0,0.2,0,0.4,0,0.6
	c-0.2,2.3,0,3.7,3,3.6c2.8-0.1,3.5-1,3.2-3.5c-0.1-0.4-0.1-0.8,0-1.2c0.5-3-0.9-3.6-3.6-3.6C605.8,190.2,607,192.5,606.8,194.2z
	 M531.1,184.1c0.3-2.5,0-4.1-3.3-4.1c-2.8,0-3.4,1.8-3.5,3.5c-0.2,3.9,0.4,4.2,3.5,4.5C531.1,188.3,531.5,186.6,531.1,184.1z
	 M164.1,193.9c0.3-2,0.4-3.8-3.1-3.8c-3.6,0-3.2,2-3.1,4.2c0,0.3,0.1,0.6,0,0.9c-0.4,2.5,0.7,3.1,3.2,3.2
	C164.7,198.7,164.2,196.5,164.1,193.9z M200,233.8c-0.2-1.8,0.9-4.2-2.7-4.2c-3.4,0-3.6,1.6-3.5,4.2c0.1,2.3,0,4,3.1,4
	C200,237.7,200.3,236.2,200,233.8z M208.4,233.4c0.3-2.1,0.3-3.9-3.2-3.9c-4.1,0.1-2.6,2.8-2.9,4.8c-0.3,2.4,0.6,3.3,3.1,3.4
	C208.7,237.9,208.6,235.9,208.4,233.4z M499.3,184c-0.1,2.1-0.5,4.2,2.9,4.1c2.5-0.1,3.7-0.6,3.4-3.3c-0.3-2.2,0.8-4.9-3.2-4.8
	C499,180.1,499.1,181.8,499.3,184z M172.6,194.2c-0.4-1.1,0.9-2.9-0.9-3.8c-2.8-1.4-5.2,0.2-5.2,3.3c0,0.7,0.1,1.4,0,2.1
	c-0.2,2,0.6,2.6,2.6,2.6C172.6,198.4,172.6,198.4,172.6,194.2z M355.9,184.3c-0.4,2.4,0,3.8,3.1,3.9c3.3,0.1,3.2-1.8,3.1-4
	c-0.1-2,0.5-4.2-3-4.1C355.9,180.1,355.6,181.7,355.9,184.3z M634.2,233.9c-0.2,2-0.3,3.8,3,3.8c3.1,0,3.3-1.6,3.2-4
	c-0.1-2.2,0.3-4.3-3.2-4.2C633.8,229.6,634,231.5,634.2,233.9z M648.9,233.7c-0.4-1.1,0.8-2.9-1-3.8c-2.8-1.4-5.3,0.1-5.3,3.2
	c0,0.7,0,1.4,0,2.1c-0.2,1.8,0.7,2.5,2.4,2.5C648.6,237.8,648.9,237.6,648.9,233.7z M486.8,185c-0.1-2.6,0.6-4.9-3.1-4.9
	c-3.4,0-3.3,1.9-3.3,4.2c0,2.4,0.1,3.9,3.2,3.9C486.6,188.1,487.1,186.8,486.8,185z M484.8,111c2.3,0.4,3.9-0.1,3.6-3
	c-0.2-1.6,0.5-3.5-2.4-3.2c-2.1,0.2-4.6-0.5-4.5,3C481.6,109.8,481.9,111.7,484.8,111z M334.9,184.2c0.1-2.3,0.2-4.2-3.2-4.1
	c-3.6,0-3,2.2-3.1,4.3c-0.1,2.4,0.2,3.8,3.3,3.8C335.1,188.1,335.1,186.4,334.9,184.2z M451.3,107.9c-0.2,2.3,0,3.9,3,3.9
	c3.2,0,3-1.9,3.3-4.1c0.3-3-1.5-2.8-3.5-2.9C451.6,104.6,450.9,105.7,451.3,107.9z M729.2,184.6c2,0.2,3.8,0.2,3.5-2.6
	c-0.2-1.9,0.5-4.3-2.8-4.2c-2.4,0.1-3.7,1.1-3.7,3.9C726.2,184,726.9,185,729.2,184.6z M84.2,205c2.9,0.8,3.1-0.9,3.3-3.4
	c0.2-3-1.5-2.7-3.5-2.9c-3.1-0.3-2.9,1.6-3,3.7C80.9,204.8,81.9,205.4,84.2,205z M60.7,202.1c-0.7,2.4,0.4,3.2,2.9,3.1
	c2.2-0.1,3.5-0.2,3.5-3c-0.1-2.5-0.6-3.5-3.3-3.5C61.3,198.7,60.1,199.3,60.7,202.1z M84.1,167.5c2.1,0.3,3.5,0,3.4-2.8
	c-0.1-2.5-0.5-3.5-3.3-3.4c-2.4,0.1-3.7,0.6-3.8,3.3C80.4,167.1,81.8,167.8,84.1,167.5z M84.1,178.4c-2.6-0.7-3.1,0.6-3.1,3
	c0,2.3,0.4,3.3,3.1,3.3c2.6,0,3.5-0.7,3.3-3.3C87.3,179,86.9,177.7,84.1,178.4z M271.7,203.7c0.6-2.6-0.5-3.2-3-3.3
	c-2.7-0.1-3.3,0.9-3.4,3.4c0,2.7,1,3,3.3,3.1C271.1,207,272.3,206.3,271.7,203.7z M732.5,202.1c0.6-2.5-0.4-3.3-3.1-3.4
	c-2.8-0.1-3.1,1.1-3.3,3.5c-0.2,2.8,1.2,3,3.4,3C731.7,205.2,733.1,204.8,732.5,202.1z M790.4,201.9c0.5-2.4-0.4-3.3-2.8-3.2
	c-2.2,0-3.6,0.2-3.5,3c0.1,2.1,0.2,3.6,3,3.5C789.6,205.1,791,204.7,790.4,201.9z M724,202c0.5-2.4-0.3-3.4-3-3.4
	c-2.6,0-3.4,0.8-3.4,3.5c0,2.7,1.2,3,3.5,3C723.3,205.2,724.5,204.5,724,202z M507.7,107.6c-0.2,2.2,0,3.6,2.8,3.5
	c2.5-0.1,3.4-0.6,3.5-3.3c0.1-3-1.5-3-3.6-3.1C508.2,104.7,507.2,105.4,507.7,107.6z M634.2,203.6c-0.7,2.8,0.8,3.3,3.2,3.4
	c2.4,0,3-0.8,3-3.1c0-2.3-0.4-3.5-3.1-3.4C635.2,200.6,633.5,200.7,634.2,203.6z M58.4,201.9c0.6-2.6-0.7-3.2-3-3.2
	c-2.4,0-3.3,0.7-3.3,3.2c0,2.5,0.7,3.3,3.2,3.3C57.7,205.2,58.9,204.5,58.4,201.9z M63.3,184.6c2,0.1,3.9,0.3,3.7-2.7
	c-0.1-2.3-0.4-3.6-3.3-3.6c-2.9,0-3.1,1.4-3.2,3.6C60.4,184.1,61.1,185,63.3,184.6z M669.9,184.6c0,3.3,0.1,3.1,2.9,3.5
	c2.9,0.4,3.8-1.3,3.9-3.4c0.1-2.1-1.2-2.9-3.5-2.9C670.8,181.7,669.5,182.3,669.9,184.6z M121.6,205c2.2,0.4,3.5-0.1,3.3-2.7
	c-0.1-2.2-0.1-3.9-3.1-3.6c-2.1,0.1-3.4,0.3-3.2,2.9C118.6,203.8,118.5,205.7,121.6,205z M673,206.8c2.6,0.5,3.2-0.8,3.3-3.1
	c0.1-2.5-0.8-3.4-3.2-3.3c-2.1,0.1-3.4,0.4-3.2,3C670,205.7,670,207.5,673,206.8z M684.6,203.7c0.8-3-1-3.1-3.3-3.3
	c-2.7-0.1-3,1.1-3,3.4c0,2.3,0.5,3.2,3,3.1C683.6,206.9,685.4,206.8,684.6,203.7z M335,107.6c0.5-2.5-1-2.8-3.1-2.9
	c-2.3,0-3.4,0.5-3.4,3.1c0,2.6,1.1,3.3,3.6,3.4C334.8,111.3,335.2,109.9,335,107.6z M343.5,107.8c0.6-2.6-0.8-3.1-3.1-3
	c-2.1,0-3.3,0.3-3.3,2.9c0,2.7,1,3.6,3.7,3.5C343.3,111.2,343.8,110,343.5,107.8z M388.1,111.1c2.6,0.5,3.2-0.8,3.3-3.2
	c0-2.3-0.6-3.3-3-3.1c-1.9,0.1-3.6,0-3.4,2.7C385,109.7,385,111.7,388.1,111.1z M396.7,111.1c3.1,0.6,3-1.3,3.2-3.5
	c0.2-2.8-1.6-2.6-3.4-2.7c-2.1-0.1-3.2,0.4-3,2.8C393.5,109.8,393.7,111.7,396.7,111.1z M309.2,107.9c0.5-2.4-0.6-3.1-3-3.1
	c-2.2,0.1-3.5,0.3-3.4,3.1c0.1,2.5,0.9,3.3,3.3,3.3C308.7,111.2,309.7,110.3,309.2,107.9z M55.3,184.5c2.2,0.4,3.5-0.3,3.2-2.8
	c-0.2-1.8,0-3.6-2.8-3.5c-2.3,0.1-3.8,0.3-3.7,3.2C52.1,183.9,52.8,185,55.3,184.5z M779,184.5c2.2,0.6,3.1-0.2,3-2.7
	c-0.1-2.1-0.1-3.6-3-3.6c-2.7,0-3.3,1-3.4,3.5C775.5,184.4,776.7,184.9,779,184.5z M787.5,184.6c2.3,0.4,3.2-0.5,3.1-2.9
	c-0.1-2.1-0.3-3.5-3.1-3.4c-2.7,0.1-3.3,1.2-3.3,3.6C784,184.5,785.4,184.8,787.5,184.6z M476.5,111c2.7,0.5,3.4-0.8,3.5-3.3
	c0.1-2.6-1.2-2.9-3.3-2.9c-2.1,0-3.4,0.4-3.2,2.9C473.6,109.8,473.6,111.7,476.5,111z M640.3,185.1c0.4-2.3-0.4-3.4-3-3.4
	c-2.8,0-3.2,1.1-3.3,3.5c-0.1,2.7,1.3,2.8,3.3,2.8C639.5,188.1,640.9,187.7,640.3,185.1z M121.7,178.4c-3-0.6-3.1,1.2-3.2,3.5
	c-0.2,2.7,1.3,2.7,3.2,2.8c2.5,0.2,3.3-0.7,3.2-3.2C124.8,179.2,124.3,177.8,121.7,178.4z M362.8,108.1c-0.6,2.7,0.9,3,3.2,3.1
	c3.1,0.2,2.9-1.6,3.1-3.7c0.2-2.5-1.2-2.7-3.1-2.7C363.6,104.8,362.2,105.2,362.8,108.1z M720.9,184.5c2.1,0.3,3.4-0.1,3.2-2.8
	c-0.2-2.1-0.3-3.6-3.1-3.5c-2.7,0-3.3,1.1-3.4,3.5C717.5,184.4,718.8,184.8,720.9,184.5z M442.8,107.3c0.1,2.4-0.4,4.5,2.9,4.4
	c2.7-0.1,3.2-1.3,3.3-3.7c0.2-2.9-1.3-3.1-3.5-3.2C443.1,104.7,442.5,105.7,442.8,107.3z M417,104.9c-2.6-0.5-3,0.9-3.1,3.2
	c-0.1,2.7,1.3,2.9,3.4,3.1c3,0.2,2.7-1.5,2.9-3.5C420.4,105.1,419.2,104.5,417,104.9z M601.5,200.6c-2.1-0.5-3.3,0-3.2,2.7
	c0.1,2.2,0.1,3.9,3.1,3.6c2-0.2,3.5-0.1,3.2-2.9C604.4,202,604.7,199.9,601.5,200.6z M755.4,202.1c-0.8,2.9,1,3,3.3,3.1
	c3,0.1,2.7-1.5,2.8-3.6c0.2-2.9-1.4-2.9-3.5-2.9C755.5,198.6,754.9,199.7,755.4,202.1z M752.8,201.9c0.6-2.4-0.3-3.2-2.9-3.2
	c-2.4,0-3.3,0.7-3.2,3.2c0,2.4,0.6,3.3,3.2,3.3C752.2,205.1,753.5,204.6,752.8,201.9z M244.2,203.5c0.7-3-1.1-2.9-3.2-3
	c-2.5-0.1-2.9,1-2.9,3.2c0,2.3,0.4,3.4,3.1,3.4C243.8,206.9,244.8,206.1,244.2,203.5z M89.7,201.8c-0.5,2.4,0.3,3.5,2.9,3.4
	c2.3-0.1,3.5-0.5,3.4-3.1c-0.1-2.3-0.4-3.5-3.1-3.4C90.7,198.8,89.1,199,89.7,201.8z M274,203.6c-0.4,2.1,0,3.5,2.8,3.4
	c2.2-0.1,3.6-0.2,3.4-3c-0.1-2.1-0.1-3.6-3-3.4C275.2,200.7,273.4,200.5,274,203.6z M360.4,107.9c0.4-2-0.1-3.3-2.7-3.1
	c-2,0.2-3.7-0.1-3.6,2.9c0.1,2.5,0.8,3.5,3.4,3.5C360,111.2,360.8,110.3,360.4,107.9z M775.8,201.8c-0.4,2.4,0.3,3.5,2.9,3.4
	c2.3-0.1,3.4-0.5,3.3-3.1c-0.1-2.2-0.3-3.5-3-3.4C776.8,198.8,775.1,199,775.8,201.8z M202.3,203.6c-0.4,2.3,0.2,3.5,2.9,3.4
	c2.3-0.1,3.4-0.5,3.3-3.1c-0.1-2.2-0.4-3.5-3.1-3.4C203.2,200.5,201.7,200.8,202.3,203.6z M116.3,202c0.5-2.5-0.5-3.2-3-3.3
	c-2.8-0.1-3.2,1.1-3.2,3.5c-0.1,2.5,1,3,3.2,3C115.6,205.1,116.9,204.6,116.3,202z M92.6,184.5c2.3,0.5,3.5-0.2,3.4-2.9
	c-0.1-2,0-3.6-2.9-3.5c-2.3,0.1-3.7,0.3-3.5,3.2C89.7,183.5,89.8,185.2,92.6,184.5z M113.4,184.5c2.2,0.5,3.1-0.4,3-2.8
	c-0.1-2.1-0.2-3.6-3-3.5c-2.6,0.1-3.4,1-3.4,3.5C110,184.3,111.1,184.9,113.4,184.5z M648.8,203.5c0.5-2.5-0.7-3-3-3
	c-2.4,0-3.3,0.6-3.3,3.2c0,2.6,0.8,3.3,3.4,3.4C648.8,207,649.2,205.7,648.8,203.5z M750,178.3c-2.6-0.6-3.2,0.6-3.2,3
	c0,2.4,0.6,3.4,3.1,3.3c2-0.1,3.4-0.2,3.2-2.9C752.9,179.6,753,177.6,750,178.3z M761.4,181.3c0.7-2.5-0.5-3.1-3-3.1
	c-2.5,0-3.2,0.8-3.2,3.2c0,2.4,0.6,3.3,3.2,3.2C760.8,184.6,762,184,761.4,181.3z M235.8,203.8c0.5-2.2-0.1-3.4-2.8-3.4
	c-2.2,0-3.6,0.4-3.4,3.1c0.1,2.1,0.2,3.6,3,3.4C234.8,206.9,236.4,206.7,235.8,203.8z M193.9,203.6c-0.5,2.4,0.4,3.3,2.9,3.4
	c2.8,0.1,3.3-1,3.3-3.5c0-2.4-0.8-3.1-3.1-3C194.8,200.6,193.2,200.8,193.9,203.6z M229.6,233c0.3,1.2-0.8,3.5,1.9,3.3
	c2-0.2,4.6,0.5,4.4-3.1c-0.1-2.1-0.2-3.5-3-3.5C230.5,229.6,229.1,230.2,229.6,233z M268.6,181.9c-2.9-0.7-3.2,0.9-3.3,3.3
	c-0.1,2.5,1.1,3,3.2,2.9c1.9-0.1,3.5,0,3.3-2.8C271.6,183.1,271.7,181.1,268.6,181.9z M577.1,203.7c0.7-2.6-0.7-3.1-3-3.2
	c-2.5-0.1-3.2,0.8-3.2,3.2c0,2.5,0.7,3.3,3.2,3.2C576.5,206.9,577.7,206.2,577.1,203.7z M681.6,187.9c2.1,0.4,3.2-0.2,3.2-2.9
	c0-2.7-0.9-3.3-3.4-3.4c-3.1-0.1-2.9,1.6-3.1,3.7C678.2,187.8,679.4,188.2,681.6,187.9z M499.2,107.9c-0.7,2.5,0.5,3.3,3.1,3.3
	c2.7,0,3-1.2,3.1-3.4c0.1-2.6-1.1-3-3.2-2.9C500.1,104.8,498.6,105,499.2,107.9z M527.8,104.9c-2.2-0.4-3.1,0.5-3.2,2.9
	c0,2.5,0.7,3.4,3.4,3.5c2.8,0,3-1.4,3.1-3.5C531.2,105.2,530,104.6,527.8,104.9z M533.3,107.9c-0.4,2.4,0.5,3.3,3.1,3.3
	c2.5,0,3.2-1,3.3-3.3c0.1-2.7-1.3-3-3.5-3.1C533.9,104.7,532.9,105.5,533.3,107.9z M568.6,203.7c0.6-2.6-0.5-3.2-3-3.2
	c-2.5,0-3.2,0.8-3.2,3.3c0,2.5,0.8,3.2,3.2,3.2C568.1,207,569.2,206.3,568.6,203.7z M613.1,232.6c0.3-1.8-0.4-3-3.2-3
	c-2.5,0-3,1-3.2,3.3c-0.3,3.5,1.9,3.2,4.1,3.4C613.4,236.6,613,234.7,613.1,232.6z M613,203.9c0.4-2.3-0.1-3.5-2.8-3.5
	c-2.2,0.1-3.5,0.3-3.4,3.1c0.1,2.2,0.2,3.6,3,3.4C611.9,206.8,613.6,206.8,613,203.9z M422.6,107.7c-0.2,2.1,0,3.4,2.7,3.4
	c2.5,0,3.4-0.8,3.5-3.4c0.1-2.9-1.4-2.9-3.5-3C423,104.7,422.2,105.6,422.6,107.7z M314.8,104.9c-2.2-0.3-3.5,0.2-3.5,3
	c0,2.8,1.2,3.2,3.6,3.3c3,0.1,2.8-1.6,2.9-3.6C318,105.2,317,104.5,314.8,104.9z M92.6,167.5c2.4,0.5,3.4-0.4,3.3-3
	c0-2.4-0.7-3.3-3.2-3.3c-2.6,0-3.2,0.9-3.2,3.3C89.6,166.7,90.1,168,92.6,167.5z M577.1,184.9c0.5-2.3-0.3-3.2-3-3.2
	c-2.8,0-3.2,1.1-3.3,3.5c-0.1,2.6,1.3,2.8,3.3,2.8C576.4,188.1,577.6,187.5,577.1,184.9z M642.7,185.1c-0.5,2.3,0.5,3,2.7,3
	c2,0,3.7,0,3.5-2.9c-0.1-2.1-0.2-3.6-3-3.5C643.4,181.8,642.2,182.5,642.7,185.1z M565.7,187.9c2,0.4,3.2-0.2,3-2.7
	c-0.2-2.1-0.1-3.6-3-3.5c-2.5,0.1-3.5,0.8-3.4,3.4C562.4,187.5,563.3,188.4,565.7,187.9z M274,185c-0.6,2.3,0.5,3.1,2.8,3
	c1.9-0.1,3.5,0,3.4-2.7c-0.1-2.3-0.3-3.7-3.2-3.6C274.6,181.8,273.5,182.4,274,185z M761.4,164.2c0.7-2.6-0.8-2.9-3.1-3
	c-3.1-0.2-2.9,1.6-3.1,3.7c-0.2,2.9,1.6,2.5,3.4,2.6C761.1,167.7,761.9,166.7,761.4,164.2z M604.5,184.8c0.5-2.6-0.8-3.1-3.1-3.1
	c-3-0.1-3,1.5-3.1,3.7c-0.1,2.8,1.7,2.5,3.5,2.6C604.2,188.2,604.9,187.1,604.5,184.8z M609.8,187.9c2.2,0.4,3.4-0.2,3.3-2.7
	c-0.1-2.1-0.2-3.6-3-3.5c-2.3,0.1-3.4,0.5-3.4,3.1C606.8,187.2,607.2,188.5,609.8,187.9z M193.9,185.2c-0.8,2.7,0.9,2.8,3,2.8
	c2,0,3.4-0.2,3.2-2.9c-0.1-2.1-0.1-3.6-2.9-3.5C194.6,181.8,193.3,182.5,193.9,185.2z M244.2,184.9c0.8-2.9-1-3-3.3-3.2
	c-2.7-0.2-2.7,1.3-2.8,3.2c-0.2,2.6,1,3.1,3.3,3.1C243.6,188.1,244.8,187.5,244.2,184.9z M205.3,181.9c-2.6-0.7-3.1,0.7-3.1,3.1
	c0,2.2,0.4,3.3,2.9,3.1c2.1-0.1,3.6-0.1,3.4-3C208.4,182.9,208.2,181.3,205.3,181.9z M753,164.5c0.5-2.5-0.7-3.2-3.1-3.3
	c-2.6,0-3.1,0.9-3.2,3.3c-0.1,2.7,1.2,3,3.4,3.1C752.4,167.6,753.5,166.9,753,164.5z M235.9,185c0.4-2.2-0.3-3.3-2.8-3.3
	c-2.6,0-3.5,0.8-3.5,3.4c0,2.4,0.8,3,3.1,3C234.9,188,236.4,187.6,235.9,185z M169.4,200.6c-2.5-0.6-3,0.7-3,3.1
	c0,2.4,0.6,3.3,3.1,3.3c2.4,0,3.3-0.7,3.2-3.2C172.6,201.5,172.1,200.1,169.4,200.6z M164.1,184.8c0.7-2.9-1.1-3-3.4-3.1
	c-2.9-0.2-2.8,1.4-2.9,3.5c-0.2,2.9,1.5,2.8,3.5,2.9C163.8,188.2,164.5,187.1,164.1,184.8z M166.5,185c-0.7,2.4,0.4,3,2.8,3
	c2.2,0,3.5-0.3,3.4-3.1c-0.1-2.3-0.6-3.4-3.1-3.3C167.2,181.8,165.9,182.3,166.5,185z M164.1,203.5c0.8-2.7-0.8-2.9-3.1-3
	c-2.5-0.1-3.2,0.8-3.2,3.2c0,2.5,0.9,3.2,3.3,3.2C163.6,207,164.6,206.2,164.1,203.5z M604.6,232.3c0.5-2.2-0.9-2.8-3.4-2.7
	c-2,0.1-3,0.5-2.9,2.7c0.1,2.4,1.5,3.6,4.4,3.5C605,235.8,604.5,234.2,604.6,232.3z M241.4,229.7c-3.2,0-3.3,0.1-3.3,3.3
	c0,1.3-0.5,2.9,1.8,2.9c2.9,0,4.3-1.2,4.4-3.6C244.5,229.8,243.1,229.4,241.4,229.7z M703.4,213.8
	C703.4,213.8,703.4,213.8,703.4,213.8c0-1,0-2,0-3c0-0.8-0.2-1.6-1.2-1.7c-1.2-0.1-1.6,0.6-1.6,1.7c0,2.2,0,4.3,0,6.5
	c0,0.9,0.6,1.5,1.5,1.4c0.8-0.1,1.2-0.7,1.2-1.4C703.5,216.2,703.4,215,703.4,213.8z M359.4,167.4c1.7,0.3,2.9-0.1,2.9-2.4
	c0-2.3-1.4-2.3-3-2.2c-1.5,0.1-3.4-0.5-3.5,2.1C355.8,167.4,357.3,167.6,359.4,167.4z M483.5,167.4c1.7,0.1,3.2,0.1,3.2-2.3
	c0-2.8-2-2.2-3.5-2.3c-1.7-0.1-2.9,0.2-2.9,2.4C480.3,167.6,481.8,167.6,483.5,167.4z M359,156.1c-1.5,0-3.1-0.3-3.2,2.2
	c0,2.4,1.5,2.4,3.1,2.4c1.5,0,3.2,0.4,3.2-2.2C362.3,156,360.8,156,359,156.1z M484.3,156.1c-2.5-0.1-4-0.2-4,2.3
	c0,2.2,1.4,2.3,3,2.2c1.6-0.1,3.5,0.4,3.5-2.3C486.7,155.7,484.9,156.2,484.3,156.1z M367.3,194.4
	C367.3,194.4,367.3,194.4,367.3,194.4c0-0.8,0-1.6,0-2.4c0-1-0.4-1.8-1.6-1.7c-1.2,0-1.4,0.9-1.4,1.9c0,1.4,0,2.8,0,4.2
	c0,1,0.2,1.9,1.4,1.9c1.4,0,1.6-1,1.5-2C367.3,195.6,367.3,195,367.3,194.4z M367.3,204.8C367.3,204.8,367.3,204.8,367.3,204.8
	c0-0.7,0-1.4,0-2.1c0-1.1-0.1-2-1.5-2c-1.5,0-1.5,1-1.5,2c0,1.4,0,2.8,0,4.2c0,1.1,0.6,1.7,1.7,1.6c0.9-0.1,1.4-0.6,1.3-1.6
	C367.3,206.2,367.3,205.5,367.3,204.8z M141.9,214C141.9,214,141.9,214,141.9,214c0-1,0-2,0-3c0-1-0.2-1.8-1.4-1.8s-1.4,0.9-1.4,1.8
	c0,2.1,0,4.1,0,6.2c0,0.9,0.4,1.5,1.4,1.5c1,0,1.4-0.7,1.4-1.5C142,216.2,141.9,215.1,141.9,214z M364.3,184c0,0.7,0,1.4,0,2.1
	c0,1,0.1,1.8,1.4,1.9c1.4,0,1.6-0.9,1.6-2c0-1.2,0-2.4,0-3.5c0-1-0.1-2.2-1.4-2.2c-1.6-0.1-1.5,1.2-1.6,2.3
	C364.3,183,364.3,183.5,364.3,184z M478.2,204.7c0-0.8,0-1.3,0-1.8c-0.1-1.1,0.2-2.4-1.5-2.3c-1.4,0.1-1.3,1.2-1.3,2.2
	c0,0.5-0.1,1,0,1.5c0.4,1.4-1.3,4,1.5,4C479.4,208.3,477.6,205.7,478.2,204.7z M478.2,184.3c0-0.7,0-1.4,0-2.1c0-0.9,0-1.9-1.3-1.9
	c-1.1,0-1.5,0.8-1.5,1.8c0,1.5,0,3,0,4.5c0,1,0.6,1.4,1.5,1.4c0.9,0,1.2-0.5,1.3-1.3C478.2,185.8,478.2,185.1,478.2,184.3z
	 M475.4,194.1C475.4,194.1,475.4,194.1,475.4,194.1c0,0.7,0,1.4,0,2.1c0,1.1,0.3,2.1,1.5,2.1c1.2,0,1.3-1,1.3-1.9c0-1.4,0-2.8,0-4.1
	c0-0.9-0.1-1.9-1.3-1.9c-1.4,0-1.6,0.9-1.5,2C475.4,192.9,475.4,193.5,475.4,194.1z M254.7,157.3c0,0,0-0.1,0-0.1c0.6,0,1.2,0,1.8,0
	c1-0.1,2.1-0.3,2-1.6c-0.1-1.2-1.2-1.1-2.1-1.1c-1.2,0-2.4,0-3.6,0c-0.7,0-1.5,0.1-1.6,1c-0.1,0.9,0.4,1.5,1.4,1.7
	C253.3,157.3,254,157.3,254.7,157.3z M694.8,157.3c0.9,0,1.5-0.1,2.1-0.1c1,0,1.9-0.3,2-1.4c0-1.4-1.2-1.4-2.2-1.4
	c-1.2,0-2.4,0-3.6,0c-0.7,0-1.5,0.1-1.5,1.1c-0.1,1,0.5,1.5,1.4,1.6C693.7,157.2,694.4,157.3,694.8,157.3z M146.7,157.3
	c0.9,0,1.3,0,1.7,0c1.1,0,2.4-0.1,2.5-1.5c0-1.6-1.4-1.3-2.4-1.4c-1.1-0.1-2.2-0.1-3.2,0c-0.7,0-1.4,0.2-1.4,1.1
	c0,0.8,0.4,1.3,1.1,1.5C145.6,157.2,146.4,157.3,146.7,157.3z M218.3,157.3c1.1,0,1.5,0,1.9,0c1.1,0,2.4-0.1,2.4-1.5
	c0-1.6-1.4-1.3-2.5-1.3c-1.1,0-2.2,0-3.2,0c-0.7,0-1.4,0.3-1.4,1.2c0,0.8,0.5,1.3,1.2,1.5C217.4,157.3,218.2,157.3,218.3,157.3z
	 M587.5,154.5c-0.9,0.4-3.3-0.9-3.3,1.3c0,2,2.2,1.3,3.6,1.5c0.6,0.1,1.2,0,1.8,0c0.9-0.1,1.6-0.5,1.6-1.4c0-1-0.8-1.3-1.6-1.3
	C589,154.4,588.4,154.5,587.5,154.5z M183.3,157.2C183.3,157.2,183.3,157.2,183.3,157.2c0.5,0,1,0.1,1.5,0c0.9-0.1,1.9-0.1,2-1.3
	c0.1-1.5-1.1-1.4-2-1.5c-1.1-0.1-2.2-0.1-3.2,0c-0.9,0-1.9,0.1-1.9,1.4c0,0.9,0.8,1.3,1.6,1.4C182,157.3,182.6,157.2,183.3,157.2z
	 M623.9,154.4c-0.8,0-1.3,0-1.8,0c-0.8,0.1-2-0.1-2,1.1c-0.1,1.3,0.9,1.6,1.9,1.7c0.5,0,1,0.1,1.5,0c1.4-0.1,3.6,0.5,3.6-1.5
	C627.1,153.6,624.8,154.8,623.9,154.4z M659.3,154.4c-1,0.3-3.3-0.9-3.3,1.4c0,2.1,2.2,1.3,3.6,1.5c0.6,0.1,1.2,0,1.8-0.1
	c0.9-0.1,1.6-0.6,1.6-1.5c0-1.1-0.8-1.2-1.7-1.3C660.7,154.4,660.1,154.4,659.3,154.4z M367.3,158.2c0.1-1.2-0.2-2-1.5-2
	c-1.2,0-1.4,1-1.3,1.9c0.1,1.1-0.2,2.4,1.5,2.3C367.5,160.4,367.2,159.2,367.3,158.2z M475.4,165.3c0,1,0.1,2.1,1.5,2
	c1.4-0.1,1.2-1.3,1.2-2.2c0.1-1,0-2.1-1.4-2C475.3,163.1,475.3,164.3,475.4,165.3z M478.1,158.4c0-1,0-2.1-1.4-2.1
	c-1.2,0-1.4,0.9-1.3,1.9c0.1,1-0.3,2.1,1.2,2.3C478.2,160.5,478,159.4,478.1,158.4z M471.4,137c-0.1-1.1-0.8-1.5-1.7-1.3
	c-0.7,0.1-1.7,0.4-1.5,1.4c0.1,0.8,0.4,1.9,1.5,1.9C470.9,139,471.2,137.9,471.4,137z M366.9,165.3c-0.1-0.9,0.4-2.2-1.3-2
	c-1,0.1-1.7,0.6-1.6,1.7c0.1,1,0.1,2.3,1.6,2.4C367.3,167.5,366.8,166.2,366.9,165.3z M357.5,97.4c0.8-0.1,1.4-0.6,1.2-1.5
	c-0.1-0.9-0.6-1.5-1.5-1.4c-0.9,0.1-1.4,0.7-1.4,1.6C355.8,97.1,356.6,97.4,357.5,97.4z M551.6,97.9c0.9-0.4,1.8-0.7,2-1.8
	c0.1-1.1-0.8-1.5-1.7-1.5c-0.9,0-1.8,0.1-1.8,1.4C550.1,97,550.6,97.5,551.6,97.9z M379.2,137c-0.2-1-0.8-1.4-1.7-1.3
	c-1,0.1-1.3,0.8-1.2,1.7c0.1,0.9,0.6,1.7,1.4,1.6C378.5,138.8,379.2,138,379.2,137z M413.6,138.5c0.9,0,1.5-0.6,1.4-1.5
	c0-0.9-0.6-1.4-1.5-1.3c-0.8,0-1.3,0.4-1.3,1.3C412.2,137.8,412.7,138.4,413.6,138.5z M449.5,138.5c0.9-0.1,1.3-0.6,1.3-1.4
	c0-1-0.6-1.4-1.5-1.4c-0.8,0-1.3,0.5-1.2,1.3C448.1,137.9,448.6,138.4,449.5,138.5z M454.2,139c0.8-0.4,1.6-0.7,1.8-1.7
	c0.1-0.8-0.3-1.4-1.1-1.5c-1-0.2-1.6,0.3-1.6,1.2C453.3,137.7,453.2,138.6,454.2,139z M321.5,97.4c0.9,0,1.5-0.5,1.4-1.5
	c-0.1-0.9-0.7-1.4-1.6-1.4c-0.8,0.1-1.2,0.6-1.3,1.4C320,96.9,320.5,97.4,321.5,97.4z M301,94.5c-0.9,0-1.4,0.6-1.5,1.4
	c-0.1,1,0.5,1.4,1.4,1.4c0.9,0,1.6-0.3,1.5-1.3C302.4,95.2,302,94.5,301,94.5z M317.7,96c-0.1-0.8-0.4-1.5-1.4-1.5
	c-1,0-1.4,0.6-1.3,1.5c0.1,0.8,0.3,1.3,1.2,1.3C317.2,97.4,317.7,97,317.7,96z M372.6,135.6c-0.9,0.1-1.5,0.5-1.4,1.5
	c0.1,0.8,0.6,1.3,1.4,1.3c1,0,1.4-0.6,1.3-1.6C373.9,136.1,373.5,135.6,372.6,135.6z M439.2,135.7c-0.9,0-1.3,0.4-1.3,1.2
	c0,0.9,0.3,1.6,1.3,1.5c1,0,1.3-0.7,1.3-1.6C440.6,136,440,135.7,439.2,135.7z M418.7,135.6c-1,0-1.4,0.6-1.3,1.5
	c0,0.8,0.4,1.3,1.2,1.4c0.9,0,1.5-0.4,1.5-1.4C420.2,136.1,419.6,135.7,418.7,135.6z M413.5,94.6c-0.9,0.1-1.4,0.7-1.4,1.6
	c0,1,0.7,1.3,1.6,1.2c0.9-0.1,1.5-0.5,1.4-1.5C415,95,414.4,94.5,413.5,94.6z M384.3,136.9c0-0.9-0.6-1.2-1.4-1.3
	c-1,0-1.5,0.5-1.4,1.5c0.1,0.8,0.5,1.3,1.4,1.3C383.9,138.4,384.3,137.9,384.3,136.9z M537.9,95.9c-0.1-0.9-0.5-1.5-1.5-1.4
	c-1,0.1-1.3,0.8-1.3,1.6c0,0.9,0.6,1.2,1.4,1.2C537.4,97.3,537.9,96.9,537.9,95.9z M306.2,94.5c-1,0-1.5,0.5-1.5,1.4
	c-0.1,1,0.5,1.4,1.4,1.4c0.9,0,1.5-0.4,1.5-1.4C307.6,95.1,307.2,94.5,306.2,94.5z M430.3,137.2c0-1-0.5-1.5-1.4-1.4
	c-0.9,0-1.9,0.3-1.9,1.4c0,0.9,1,1.1,1.7,1.3C429.7,138.6,430.2,138,430.3,137.2z M471.5,95.9c-0.2-0.9-0.7-1.4-1.6-1.3
	c-1,0.1-1.2,0.8-1.2,1.7c0,0.9,0.6,1.1,1.4,1.1C471,97.3,471.5,96.8,471.5,95.9z M312.6,95.7c0-0.8-0.6-1.2-1.5-1.1
	c-1,0.1-1.3,0.9-1.2,1.7c0.1,0.8,0.6,1.1,1.4,1.1C312.3,97.4,312.7,96.8,312.6,95.7z M372.4,97.8c0.7-0.5,1.8-0.5,1.6-1.7
	c-0.1-0.9-0.5-1.5-1.5-1.5c-1,0-1.3,0.6-1.4,1.5C371.1,97,371.4,97.6,372.4,97.8z M425.2,137.1c0-0.8-0.2-1.4-1.1-1.3
	c-0.8,0.1-1.9,0-2,1.2c-0.1,1.1,0.8,1.2,1.6,1.4C424.7,138.6,425.1,138,425.2,137.1z M541.4,94.6c-0.7,0.2-1.2,0.7-1.2,1.6
	c0.1,1,0.8,1.2,1.7,1.2c0.8,0,1.2-0.6,1.1-1.4C542.9,95.2,542.5,94.5,541.4,94.6z M368.9,95.9c0-1-0.5-1.5-1.5-1.4
	c-1.1,0.1-1.3,0.8-1.2,1.7c0,0.9,0.5,1.2,1.4,1.2C368.6,97.4,368.9,96.9,368.9,95.9z M531.3,94.6c-1.1,0.1-1.3,0.8-1.2,1.7
	c0.1,0.8,0.6,1.2,1.4,1.1c0.8-0.1,1.3-0.5,1.3-1.3C532.8,95.1,532.2,94.6,531.3,94.6z M403.3,138.5c1,0,1.4-0.6,1.4-1.5
	c0-0.8-0.5-1.2-1.3-1.3c-0.9,0-1.3,0.4-1.4,1.2C402,137.7,402.3,138.4,403.3,138.5z M428.6,94.6c-0.5,0.4-1.7,0.3-1.6,1.5
	c0.1,1,1.1,1.1,1.8,1.2c0.9,0.1,1.6-0.3,1.5-1.3C430.3,95.1,429.8,94.6,428.6,94.6z M408.5,94.5c-1,0-1.4,0.5-1.5,1.5
	c0,0.8,0.4,1.3,1.2,1.3c0.9,0,1.6-0.2,1.6-1.3C409.9,95.2,409.5,94.5,408.5,94.5z M404.7,95.5c0-0.4-0.4-1-1.4-1
	c-1,0-1.4,0.6-1.4,1.5c0,0.9,0.4,1.4,1.4,1.4C404.4,97.4,404.8,96.9,404.7,95.5z M336.8,97.4c1,0,1.4-0.5,1.4-1.5
	c0-0.7-0.4-1.3-1.2-1.3c-0.9,0-1.5,0.5-1.6,1.4C335.3,96.9,335.9,97.3,336.8,97.4z M480.5,94.6c-1.1,0-1.6,0.5-1.6,1.4
	c0,0.8,0.4,1.3,1.2,1.4c0.8,0.1,1.4-0.2,1.5-1.1C481.6,95.4,481.4,94.7,480.5,94.6z M378.9,95.8c-0.1-0.6-0.5-1.2-1.4-1.3
	c-1,0-1.5,0.5-1.4,1.5s0.7,1.8,1.7,1.8C378.7,97.8,378.9,96.9,378.9,95.8z M464.8,94.6c-0.9,0-1.4,0.5-1.4,1.5c0,1,0.6,1.3,1.5,1.3
	c0.8,0,1.3-0.4,1.3-1.3C466.2,95.2,465.8,94.6,464.8,94.6z M546.7,97.4c1,0,1.5-0.4,1.5-1.4c0-0.9-0.5-1.5-1.4-1.5
	c-0.8,0-1.2,0.6-1.3,1.3C545.3,96.8,545.8,97.3,546.7,97.4z M459.8,94.6c-1,0-1.4,0.5-1.5,1.4c0,0.9,0.4,1.5,1.4,1.5
	c0.8,0,1.3-0.4,1.3-1.2C461.1,95.4,460.9,94.6,459.8,94.6z M459.7,138.4c0.8,0,1.3-0.4,1.3-1.2c0.1-0.9-0.2-1.6-1.2-1.5
	c-0.8,0-1.3,0.3-1.4,1.2C458.4,137.8,458.7,138.4,459.7,138.4z M466.2,137.2c0-1-0.4-1.5-1.4-1.5c-0.8,0-1.3,0.3-1.4,1.2
	c0,1,0.5,1.4,1.4,1.5C465.6,138.5,466.1,138,466.2,137.2z M408.4,135.7c-0.8,0-1.3,0.4-1.4,1.3c0,1,0.4,1.5,1.4,1.6
	c0.8,0,1.3-0.5,1.4-1.3C409.9,136.2,409.4,135.7,408.4,135.7z M343.4,95.9c-0.1-0.9-0.6-1.4-1.6-1.4c-1,0-1.3,0.7-1.3,1.6
	c0,0.8,0.6,1.2,1.4,1.2C342.8,97.4,343.4,97,343.4,95.9z M362.5,97.4c1,0,1.4-0.5,1.4-1.5c0-0.8-0.5-1.2-1.3-1.3
	c-1-0.1-1.5,0.5-1.5,1.4C361,96.9,361.6,97.3,362.5,97.4z M328,96.1c0-0.9-0.4-1.5-1.4-1.5c-1,0-1.4,0.7-1.4,1.5
	c0,0.8,0.4,1.3,1.2,1.3C327.4,97.4,328,97.1,328,96.1z M491.9,96c-0.1-1-0.6-1.5-1.5-1.4c-0.9,0.1-1.2,0.6-1.2,1.4
	c0,1,0.6,1.4,1.6,1.3C491.5,97.3,491.9,96.8,491.9,96z M297.2,96.2c0-0.7,0-1.5-1.1-1.6c-0.9-0.1-1.5,0.3-1.6,1.3
	c-0.1,0.8,0.1,1.4,1,1.5C296.3,97.5,297,97.3,297.2,96.2z M290.4,94.6c-0.6,0.2-1.1,0.7-1,1.6c0.1,0.8,0.7,1.1,1.5,1.1
	c1.1,0,1.3-0.7,1.2-1.6C292,94.9,291.5,94.5,290.4,94.6z M527.9,96.3c-0.2-1-0.5-1.7-1.5-1.7c-1,0-1.5,0.5-1.5,1.5
	c0,1,0.7,1.3,1.6,1.2C527.2,97.2,527.9,97,527.9,96.3z M388,138.5c1-0.1,1.4-0.6,1.4-1.6c0-0.8-0.6-1.2-1.4-1.2s-1.3,0.4-1.4,1.2
	C386.6,137.9,387,138.4,388,138.5z M398.3,138.5c0.8-0.2,1.4-0.6,1.3-1.6c0-0.8-0.6-1.2-1.4-1.3c-0.8,0-1.3,0.4-1.4,1.2
	C396.8,137.8,397.3,138.4,398.3,138.5z M394.5,137c-0.1-0.8-0.4-1.3-1.3-1.4c-0.9,0-1.5,0.5-1.5,1.4c0,0.9,0.6,1.5,1.6,1.4
	C394.1,138.4,394.4,137.8,394.5,137z M502.1,96.2c-0.1-0.9-0.3-1.6-1.3-1.6c-0.9,0-1.5,0.5-1.5,1.4c0,0.8,0.4,1.3,1.2,1.4
	C501.4,97.5,502,97.1,502.1,96.2z M456,96.1c0-0.9-0.5-1.5-1.4-1.5c-0.9,0-1.4,0.6-1.4,1.5c0,0.8,0.5,1.2,1.3,1.3
	C455.3,97.4,455.9,97,456,96.1z M476.5,96c0-0.9-0.4-1.5-1.4-1.5c-1,0-1.4,0.7-1.4,1.5c0,0.8,0.5,1.2,1.3,1.3
	C475.9,97.4,476.5,97,476.5,96z M434,94.6c-0.9,0.1-1.3,0.7-1.3,1.6c0.1,1,0.8,1.2,1.7,1.1c0.8-0.1,1.2-0.6,1.1-1.4
	C435.5,95,435,94.6,434,94.6z M389.4,96.1c-0.1-0.6-0.1-1.4-1.2-1.5c-0.9-0.1-1.5,0.3-1.6,1.3c-0.1,0.8,0.1,1.4,1,1.5
	C388.5,97.5,389.2,97.3,389.4,96.1z M444.3,94.6c-1,0-1.4,0.6-1.4,1.5c0,0.9,0.6,1.2,1.4,1.2c0.8,0,1.4-0.3,1.4-1.2
	C445.7,95.2,445.3,94.6,444.3,94.6z M485.4,94.5c-1,0.1-1.5,0.5-1.5,1.4c0,1,0.6,1.4,1.5,1.3c0.8,0,1.3-0.4,1.3-1.2
	C486.7,95.2,486.3,94.6,485.4,94.5z M348.5,96.2c0-0.8-0.1-1.5-1.2-1.7c-0.9-0.1-1.5,0.3-1.6,1.3c0,0.7,0.1,1.4,1,1.5
	C347.6,97.4,348.3,97.3,348.5,96.2z M382.8,94.5c-1,0.1-1.3,0.7-1.3,1.6c0,0.8,0.5,1.2,1.4,1.2c1,0,1.5-0.5,1.4-1.4
	C384.3,95,383.8,94.5,382.8,94.5z M495.5,94.6c-1.1,0.1-1.2,0.8-1.2,1.7c0.1,0.9,0.6,1.2,1.4,1.1c1.1-0.1,1.3-0.8,1.2-1.7
	C496.8,94.9,496.3,94.5,495.5,94.6z M444.5,138.4c0.7-0.1,1.2-0.6,1.1-1.4c0-1-0.7-1.4-1.6-1.3c-0.9,0.1-1.1,0.7-1.1,1.5
	C443.1,138.1,443.6,138.4,444.5,138.4z M425.2,96.2c0-1.1-0.4-1.7-1.5-1.6c-0.9,0-1.2,0.6-1.2,1.4c0,1,0.5,1.5,1.5,1.4
	C424.9,97.4,425.2,96.8,425.2,96.2z M331.5,97.4c1,0.1,1.5-0.4,1.5-1.4c0-0.9-0.4-1.5-1.4-1.5c-0.9,0-1.2,0.5-1.3,1.3
	C330.2,96.7,330.5,97.4,331.5,97.4z M353.5,96.1c0-0.9-0.3-1.5-1.4-1.5c-1,0-1.4,0.6-1.4,1.5c0,0.8,0.4,1.3,1.2,1.4
	C352.9,97.4,353.5,97.1,353.5,96.1z M511.4,97.3c0.5-0.1,1-0.5,1-1.3c0-1-0.6-1.5-1.5-1.4c-0.8,0.1-1.2,0.6-1.3,1.4
	C509.5,97,510.2,97.4,511.4,97.3z M399.7,96.1c0-0.9-0.5-1.5-1.4-1.5c-1,0-1.4,0.6-1.4,1.5c0,0.8,0.5,1.3,1.3,1.3
	C399,97.4,399.6,97.1,399.7,96.1z M517.3,95.9c-0.1-0.8-0.4-1.3-1.3-1.3c-1,0-1.4,0.6-1.4,1.5c0,1,0.7,1.3,1.6,1.3
	C517.2,97.3,517.4,96.7,517.3,95.9z M440.6,96.2c-0.1-1.1-0.5-1.6-1.5-1.6c-0.9,0.1-1.2,0.7-1.2,1.4c0,1,0.5,1.4,1.5,1.4
	C440.3,97.3,440.6,96.8,440.6,96.2z M165.3,239.8c-2.3,0-4.6,0-6.9,0c-2,0-2.9-0.8-2.9-2.8c0.1-2.4,0.1-4.8,0.1-7.1
	c0-1.7,0.6-2.6,2.4-2.5c4.8,0.1,9.5,0,14.3,0c1.8,0,2.5,0.8,2.5,2.5c-0.1,2.5-0.1,5,0,7.4c0.1,1.8-0.7,2.6-2.4,2.6
	C170.1,239.8,167.7,239.8,165.3,239.8z M172.6,233.8c0.1-2.2,0.6-4.3-3-4.3c-3.3,0-3.1,1.7-3.1,3.9c0,2.4-0.2,4.4,3.4,4.3
	C173,237.7,172.7,235.8,172.6,233.8z M164.1,233.4c0.2-2,0.3-3.9-3.2-3.9c-3.9,0-2.9,2.4-3.1,4.5c-0.3,2.6,0.6,3.7,3.4,3.7
	C164.7,237.8,164.2,235.7,164.1,233.4z M677.2,227.4c2.4,0,4.8,0,7.2,0c1.8,0,2.6,0.8,2.6,2.5c0,2.5,0,5,0,7.4
	c0,1.7-0.7,2.6-2.5,2.6c-4.8,0-9.5,0-14.3,0.1c-1.8,0-2.4-0.8-2.5-2.5C667,227.3,667,227.3,677.2,227.4z M676.1,233.8
	c0.2-2.5,0.3-4.3-3.2-4.3c-4,0-2.8,2.6-3,4.6c-0.2,2.1,0,3.6,2.9,3.6C675.9,237.8,676.6,236.4,676.1,233.8z M678.4,233.5
	c0.1,1.9-0.8,4.3,2.7,4.3c2.9,0,3.9-1,3.7-3.9c-0.2-2.3,0.4-4.4-3.3-4.4C678.2,229.5,678.3,231.3,678.4,233.5z M117.7,227.4
	c2.4,0,4.8,0,7.2,0c1.5,0,2.2,0.6,2.2,2.1c0,2.7-0.1,5.4,0,8.1c0,1.5-0.7,2.2-2.1,2.2c-5,0-10,0-14.9,0c-1.3,0-2-0.7-2.1-2
	c0-0.2,0-0.4,0-0.6C107.2,227.4,107.2,227.4,117.7,227.4z M118.6,234.3c-0.1,1.4-0.5,3.4,2.9,3.5c3.2,0.1,3.5-1.5,3.4-4
	c0-2.5,0.1-4.3-3.4-4.3C117.9,229.5,118.6,231.6,118.6,234.3z M110.1,233.6c0.2,1.2-0.7,2.8,0.6,3.5c1.5,0.9,3.7,1.1,4.8,0.1
	c1.8-1.7,0.8-4.3,0.7-6.5c-0.1-1.6-1.6-1-2.6-1.2C110.4,229.1,109.6,230.8,110.1,233.6z M59.5,239.8c-2.4,0-4.8,0-7.2,0
	c-1.8,0-2.6-0.8-2.5-2.5c0-2.5,0-5,0-7.5c0-1.7,0.8-2.5,2.6-2.5c4.7,0.1,9.4,0.1,14.1,0c1.7,0,2.6,0.6,2.6,2.4c0,2.6,0,5.2,0,7.8
	c0,1.7-0.9,2.3-2.4,2.3C64.3,239.8,61.9,239.8,59.5,239.8z M60.5,232.5c0.1,3.1-0.5,5.3,3.1,5.3c3,0,3.4-1.4,3.3-3.8
	c-0.1-2.3,0.4-4.4-3.3-4.4C60.3,229.5,60.5,231.3,60.5,232.5z M52.1,233.3c-0.2,2.4-0.5,4.5,3.1,4.4c2.6-0.1,3.7-0.8,3.3-3.4
	c-0.3-2,1-4.7-3-4.6C52.4,229.7,51.6,230.8,52.1,233.3z M88.5,227.4c2.3,0,4.6,0.1,6.9,0c2.1-0.1,2.9,0.9,2.8,2.9
	c-0.1,2.3-0.1,4.6,0,6.9c0.1,2.1-0.9,2.8-2.9,2.8c-4.5-0.1-9-0.1-13.4,0c-2.2,0-3-0.9-2.9-3c0.1-2.3,0.1-4.6,0-6.9
	c-0.1-2,0.8-2.6,2.7-2.6C83.9,227.4,86.2,227.4,88.5,227.4z M81.1,233.1c0,5.2,0.9,5.8,5,4.3c2.5-0.9,1-3,1.3-4.6
	c0.4-2.3-0.5-3.1-3-3.3C80.6,229.3,81,231.5,81.1,233.1z M95.8,233c0.4-2.1-0.1-3.5-3.3-3.5c-3.9,0-2.6,2.6-2.8,4.5
	c-0.3,2.5,0.3,3.8,3.3,3.7C96.5,237.7,95.7,235.5,95.8,233z M782.8,239.8c-2.2,0-4.4,0-6.6,0c-2,0-3-0.7-2.8-2.8
	c0.1-2.4,0.1-4.8,0-7.1c0-1.7,0.8-2.6,2.5-2.5c4.8,0.2,9.7-0.3,14.5,0.4c1.8,0.3,2.2,1,2.2,2.4c0,2.5,0,5,0,7.5
	c0,1.6-0.9,2.3-2.5,2.3C787.8,239.8,785.3,239.8,782.8,239.8C782.8,239.8,782.8,239.8,782.8,239.8z M784.2,233.5
	c-0.2,2.3-0.3,4.2,3.2,4.2c3.3,0,3.2-1.8,3.1-4c0-2.2,0.3-4.3-3.2-4.2C784,229.6,784,231.3,784.2,233.5z M782,234.2
	c0-4.5-0.1-4.4-3.1-4.6c-3.8-0.3-3.1,2.2-3.2,4.5c-0.1,2.3,0.1,3.7,3.1,3.7C781.9,237.8,782.2,236.2,782,234.2z M725.1,239.8
	c-2.2,0-4.4-0.1-6.6,0c-2.4,0.1-3.2-0.9-3.1-3.2c0.1-2.4,0.1-4.8,0.1-7.2c0-1.5,0.7-2.1,2.2-2.1c4.8,0,9.6,0,14.3,0
	c1.8,0,2.6,0.8,2.6,2.5c0,2.5,0,5,0,7.5c0,1.8-0.8,2.5-2.5,2.5C729.9,239.8,727.5,239.8,725.1,239.8z M732.5,234
	c0.2-2.5,0.3-4.6-3.3-4.4c-2.6,0.1-3.2,1.1-3,3.4c0.2,2.2-0.9,4.9,3.2,4.8C732.4,237.7,732.9,236.3,732.5,234z M717.7,233.3
	c-0.1,2.3-0.5,4.5,2.8,4.4c2.5,0,3.9-0.6,3.5-3.4c-0.3-2,1.1-4.8-2.9-4.8C718,229.5,717.3,230.8,717.7,233.3z M754.2,227.4
	c2.4,0,4.8,0,7.2,0c1.6,0,2.4,0.8,2.4,2.3c0,0.1,0,0.2,0,0.3c0,12.1,1.5,9.6-8.9,9.8c-2.5,0-5,0-7.5,0c-2,0-3-0.7-2.8-2.8
	c0.1-2.5,0.1-5,0-7.5c0-1.5,0.7-2.2,2.2-2.2C749.2,227.4,751.7,227.4,754.2,227.4C754.2,227.4,754.2,227.4,754.2,227.4z
	 M761.4,233.5c0.3-2.3,0.2-4-3.2-4c-3.8,0-2.8,2.4-3,4.4c-0.2,2.5,0.3,3.8,3.3,3.8C761.9,237.8,761.6,235.7,761.4,233.5z M746.8,233
	c0,0.6,0,0.8,0,1c-0.2,2.3,0.2,3.8,3.1,3.8c2.8,0,3.5-1.2,3.2-3.6c-0.1-0.6-0.1-1.2,0-1.8c0.2-2.1-0.7-2.7-2.8-2.8
	C747.3,229.4,746.2,230.6,746.8,233z M455.4,147c2.3,0,4.6,0.1,6.9,0c1.8-0.1,2.8,0.6,2.8,2.5c0,3.6,0,7.2,0,10.8
	c0,1.9-1,2.6-2.8,2.5c-4.6-0.1-9.2-0.1-13.7,0c-1.8,0-2.8-0.6-2.8-2.5c0-3.6,0-7.2,0-10.8c0-1.7,0.7-2.6,2.5-2.5
	C450.7,147.1,453,147,455.4,147z M451.4,156.1c-1.6,0-3.5-0.3-3.4,2.4c0,2.5,1.9,2,3.3,2.2c1.7,0.1,3.1,0,3-2.4
	C454.3,155.9,452.9,156.1,451.4,156.1z M459.7,160.5c1.5,0.1,3.1,0.3,3.2-2.2c0-2.3-1.4-2.3-3-2.2c-1.5,0.1-3.3-0.5-3.4,2.1
	C456.4,160.7,458,160.6,459.7,160.5z M451.1,149.3c-1.2,0.1-3.1-0.6-3.1,2c0,2.5,1.6,2.5,3.4,2.5c1.8,0.1,3-0.2,3-2.5
	C454.4,149,452.8,149.3,451.1,149.3z M459.5,149.3c-1,0.1-2.9-0.6-3,2c0,2.6,1.8,2.4,3.5,2.4c1.7,0.1,2.9-0.2,2.9-2.4
	C462.9,149.2,461.5,149.2,459.5,149.3z M387.4,147c2.2,0,4.4,0.1,6.6,0c1.8-0.1,2.8,0.6,2.8,2.5c0,3.6,0,7.1,0,10.7
	c0,1.9-0.9,2.6-2.8,2.6c-4.6-0.1-9.1,0-13.7,0c-2,0-2.9-0.8-2.9-2.8c0-3.4,0-6.8,0-10.1c0-2,0.8-2.9,2.8-2.9
	C382.6,147.1,385,147,387.4,147z M383.2,160.6c1.2,0,2.9,0.5,2.9-2.2c0-2.5-1.5-2.4-3.1-2.4c-1.6,0-3.2-0.3-3.3,2.2
	C379.6,160.8,381.3,160.6,383.2,160.6z M392.1,160.6c0.9,0,2.4,0.2,2.4-2.3c0-2.8-2-2.1-3.5-2.2c-1.7-0.1-2.9,0.1-2.9,2.3
	C388.2,160.9,389.8,160.6,392.1,160.6z M382.5,149.4c-0.8,0.1-2.7-0.6-2.8,2c-0.1,2.6,1.5,2.5,3.3,2.5c1.7,0,3.1,0,3.1-2.4
	C386.1,149.1,384.7,149.2,382.5,149.4z M391.5,149.3c-1.8,0-3.3-0.2-3.3,2.1c0,2.4,1.5,2.4,3.2,2.4c1.7,0,3.2,0,3.2-2.4
	C394.6,148.7,392.7,149.4,391.5,149.3z M421.4,89.4c-43.4,0-86.8,0-130.1,0c-1.3,0-3.4,0.7-3.7-0.9c-0.3-1.7,1.8-1.6,3-2.1
	c12.8-5.3,26.1-9.4,39.1-14.2c2-0.7,4-2,6.7-1.7c1.3,0.1,3.4-1.7,5.4-2.4c6.3-2.1,12.4-4.6,18.8-6.6c8.7-2.7,17-6.3,25.6-9.4
	c9-3.2,18.2-5.8,26.8-9.7c6.4-2.9,11.9-1.9,17.9,0.4c7,2.8,14.1,5.5,21.3,7.7c7.5,2.3,14.6,5.7,22.2,7.9
	c10.1,3.1,19.9,7.4,29.9,10.7c7.2,2.4,14.4,5,21.6,7.5c8.9,3.1,17.9,6.2,26.8,9.4c1,0.4,2.7,0.5,2.3,2.1c-0.4,1.5-2,0.9-3.1,0.9
	c-41.4,0.1-82.8,0.1-124.2,0.1C425.6,89.5,423.5,89.5,421.4,89.4C421.4,89.5,421.4,89.4,421.4,89.4z M544.8,87
	c0-0.3,0.1-0.5,0.2-0.8c-8-2.9-16-5.8-24-8.6c-7.4-2.6-14.8-5.1-22.1-7.8c-7.1-2.5-14.1-5.1-21.2-7.7c-5.9-2.1-11.8-4.2-17.8-6.2
	c-5.4-1.9-10.8-3.9-16.2-5.8c-5.6-2-11.3-3.7-16.8-5.9c-3.4-1.4-6.5-1.7-9.8-0.6c-2.5,0.8-4.9,1.8-7.3,2.8
	c-3.9,1.6-8.1,2.7-12.1,4.1c-9.1,3.2-18.1,6.6-27.2,9.7c-5.6,1.9-11.1,4.2-16.9,5.9c-3.9,1.1-7.6,3.1-11.5,4.4
	c-5.6,2-11.2,3.8-16.8,5.7c-6,2.1-12,4.1-17.9,6.3c-3.2,1.2-6.3,2.5-9.5,3.8c0.1,0.2,0.1,0.4,0.2,0.6C380.2,87,462.5,87,544.8,87z
	 M336.1,169.7c-2.3,0-4.6-0.1-6.9,0c-2.1,0.1-2.9-0.9-2.9-2.9c0-3.5,0-7,0-10.5c0-1.7,0.7-2.6,2.5-2.6c4.8,0,9.6,0,14.3,0
	c1.7,0,2.6,0.8,2.5,2.5c0,3.6,0,7.2,0,10.8c0,1.9-0.9,2.7-2.8,2.6C340.7,169.7,338.4,169.7,336.1,169.7z M340.5,160.6
	c1.4,0,3,0.3,3-2.2c0-2.5-1.6-2.3-3.2-2.3c-1.6,0-3.2-0.3-3.2,2.2C337.1,160.8,338.8,160.6,340.5,160.6z M332,167.4
	c1.5,0.1,3,0.2,3.1-2.2c0-2.1-1-2.6-2.7-2.4c-1.6,0.1-3.8-0.6-3.7,2.4C328.6,167.6,330.1,167.5,332,167.4z M340.2,167.4
	c1.7,0,3.3,0.3,3.4-2.2c0-2.5-1.4-2.4-3.1-2.4c-1.6,0-3.3-0.3-3.3,2.2C337.1,167.4,338.5,167.6,340.2,167.4z M331.9,156.1
	c-1.5,0.1-3.3-0.4-3.4,2.1c-0.1,2.7,1.8,2.3,3.5,2.4c1.5,0,3,0.2,3-2.1C335.1,156,333.6,156,331.9,156.1z M310.4,169.7
	c-2.3,0-4.6,0-6.9,0c-1.8,0-2.8-0.7-2.8-2.6c0-3.7,0-7.4,0-11c0-1.5,0.9-2.2,2.2-2.2c5,0,9.9,0,14.9,0c1.5,0,2.1,0.8,2.1,2.3
	c0,3.8,0,7.5,0,11.3c0,1.6-0.8,2.3-2.4,2.3C315.2,169.7,312.8,169.7,310.4,169.7z M306.3,162.9c-1.8-0.1-3.4-0.1-3.4,2.5
	c0,2.4,1.3,2.6,3.2,2.7c2.1,0,3.1-0.6,3.2-2.8C309.4,162.8,308,162.7,306.3,162.9z M314.5,168c2.2,0.1,3.2-0.5,3.3-2.8
	c0-2.4-1.4-2.4-3.1-2.4c-1.8,0-3.4-0.1-3.3,2.5C311.5,167.6,312.7,168.3,314.5,168z M305.6,156.1c-0.9,0.1-2.7-0.4-2.7,2.2
	c0,2.8,1.9,2.2,3.4,2.3s2.9,0,3-2.2C309.4,156,307.9,156,305.6,156.1z M314.9,156.1c-1.5,0.1-3.4-0.5-3.4,2.1
	c-0.1,2.7,1.9,2.3,3.5,2.4c1.7,0.1,2.9-0.2,2.9-2.3C317.9,156,316.5,156,314.9,156.1z M531.8,169.7c-2.1,0-4.2-0.1-6.3,0
	c-2.1,0.1-3.2-0.7-3.1-2.9c0.1-3.5,0.1-7,0-10.4c0-2,1-2.6,2.8-2.6c4.6,0,9.2,0,13.7,0c2,0,2.9,0.9,2.8,2.9c-0.1,3.4-0.1,6.8,0,10.1
	c0,2.2-1,3-3.1,2.9C536.4,169.7,534.1,169.7,531.8,169.7z M536.6,167.4c1.7,0.2,3.1,0.1,3-2.3c0-2.5-1.7-2.2-3.3-2.2
	c-1.5,0-3-0.3-3.1,2.1C533.2,167.6,534.7,167.6,536.6,167.4z M536.4,160.6c1.8,0.1,3.3,0.1,3.2-2.4c0-2.6-1.9-2-3.4-2.1
	c-1.5-0.1-3-0.1-3,2.2C533.2,160.8,534.8,160.6,536.4,160.6z M527.7,160.6c1.9,0,3.3,0,3.3-2.2c0-2.5-1.6-2.3-3.2-2.3
	c-1.6,0-3.2-0.1-3.1,2.4C524.8,161,526.6,160.5,527.7,160.6z M528.2,167.4c1.6,0.2,2.9-0.1,2.9-2.3c0-2.7-2-2.2-3.5-2.3
	c-1.7-0.1-2.8,0.3-2.8,2.4C524.7,167.7,526.3,167.5,528.2,167.4z M506.5,169.7c-2.3,0-4.6,0-6.9,0c-1.9,0-2.7-0.8-2.7-2.7
	c0-3.6,0.1-7.2,0-10.8c0-1.9,0.9-2.5,2.6-2.5c4.8,0,9.5,0,14.3,0c1.8,0,2.4,0.9,2.4,2.6c0,3.5,0,7,0,10.5c0,2-0.8,2.9-2.9,2.8
	C511,169.7,508.7,169.7,506.5,169.7z M510.6,167.5c1.5-0.1,3.4,0.6,3.3-2.3c0-2.5-1.5-2.3-3.1-2.3c-1.5,0-3.2-0.4-3.2,2.2
	C507.6,167.3,508.8,167.7,510.6,167.5z M511.3,156.1c-2.2,0-3.8-0.2-3.8,2.3c0,2.2,1.4,2.4,2.9,2.2c1.5-0.1,3.5,0.5,3.5-2.3
	C513.9,155.8,512.3,156.1,511.3,156.1z M502.1,156.1c-1.8-0.2-3.1,0.1-3,2.5c0.1,1.5,0.7,2.9,2.1,2.5c1.5-0.5,4.3,0.5,4.2-2.9
	C505.3,155.5,503.5,156.2,502.1,156.1z M502.6,167.5c1.6,0.2,2.8-0.1,2.8-2.4c0-2.5-1.8-2.1-3.3-2.2c-1.8-0.1-3.1,0-3,2.5
	C499.1,167.9,500.8,167.4,502.6,167.5z M59.5,159c2.2,0,4.4,0.1,6.6,0c2.1-0.1,3.1,0.6,3.1,2.9c0,9.3,0.6,7.6-7.5,7.8
	c-3.1,0.1-6.2-0.1-9.2,0c-1.8,0-2.4-0.8-2.6-2.5c-0.9-7.9-0.6-8.2,7.3-8.2C57.9,159,58.7,159,59.5,159z M55,167.5
	c2,0.2,3.7,0.2,3.5-2.6c-0.2-1.9,0.2-3.7-2.8-3.7c-2.5,0.1-3.8,0.4-3.8,3.4C52,167.1,52.9,167.8,55,167.5z M63.3,167.5
	c2,0.1,3.8,0.3,3.7-2.7c-0.1-2.4-0.5-3.6-3.3-3.5c-2.5,0-3.3,0.8-3.2,3.2C60.6,166.5,60.7,168.1,63.3,167.5z M117.4,169.7
	c-1.9,0-3.8,0-5.7,0c-0.5,0-1,0-1.5,0c-2.7,0.1-2.6-1.9-2.3-3.5c0.5-2.4-2.1-6.4,2.1-6.9c4.9-0.7,10-0.5,14.9,0
	c4.1,0.4,1.7,4.1,2.1,6.3c0.2,1.5,1,4.1-2.1,4.2C122.3,169.7,119.9,169.7,117.4,169.7C117.4,169.7,117.4,169.7,117.4,169.7z
	 M121.7,167.4c2.5,0.6,3.2-0.4,3.3-3c0-2.7-1-3.3-3.5-3.3c-2.5,0-2.9,1-2.9,3.2C118.5,166.7,119,168.1,121.7,167.4z M113.1,167.5
	c2.2,0.4,3.5-0.1,3.4-2.9c-0.1-2.2-0.3-3.4-3-3.4c-2.6,0-3.5,0.7-3.4,3.3C110,166.9,110.7,167.9,113.1,167.5z M725.1,169.7
	c-2.4,0-4.8,0-7.2,0c-1.6,0-2.4-0.6-2.5-2.2c0-0.1,0-0.2,0-0.3c-0.8-8-0.7-8.1,7.3-8.1c3.1,0,6.2,0,9.3,0c1.8,0,2.8,0.7,2.8,2.7
	c0,9.5,0.5,7.8-7.3,8C726.7,169.8,726,169.8,725.1,169.7C725.1,169.7,725.1,169.7,725.1,169.7z M732.5,164.3c0.6-2.8-1-3-3.2-3.1
	c-2.7-0.1-3,1.1-3.1,3.4c-0.1,2.9,1.4,2.9,3.5,2.9C732.1,167.6,733,166.7,732.5,164.3z M721.1,167.4c2.3,0.6,3-0.5,3-2.9
	c0-2.3-0.6-3.3-3.2-3.4c-2.8-0.1-3.3,1.1-3.3,3.5C717.5,167.4,718.9,167.8,721.1,167.4z M783,159c2.1,0,4.2,0,6.3,0
	c0.6,0,1.3-0.1,1.8,0.1c3.4,1.9,1.2,5.1,1.7,7.7c0.3,1.7-0.3,2.9-2.4,2.8c-4.8-0.1-9.5,0-14.3,0c-1.8,0-2.5-0.8-2.5-2.6
	c0-9.9-0.8-7.9,7.4-8.1C781.6,159,782.2,159,783,159z M787.4,161.4c-2.5-0.6-3.2,0.6-3.2,3.1c0,2.2,0.5,3.2,3,3.1
	c2.1-0.1,3.7-0.1,3.5-3C790.4,162.4,790.3,160.7,787.4,161.4z M781.9,164.8c0.2-2.2-0.1-3.6-2.9-3.6c-2.6,0-3.5,0.8-3.5,3.4
	c0,2.5,1,3,3.2,3C780.8,167.5,782.5,167.4,781.9,164.8z M273.2,160.7c2.1,0,4.2,0,6.3,0c2-0.1,3,0.7,3,2.8c0,2.4,0,4.8,0,7.2
	c0,1.7-0.8,2.6-2.5,2.6c-4.8,0-9.6,0-14.3,0c-1.4,0-2.3-0.5-2.3-2.1c0-2.7,0-5.4,0-8.1c0-1.7,0.9-2.3,2.4-2.3
	C268.2,160.7,270.7,160.7,273.2,160.7z M268.4,165.9c1.1-0.4,3.2,0.7,3.2-1.5c0-2.1-1.9-1.5-3.2-1.5c-1.2,0-2.9-0.5-2.9,1.5
	C265.5,166.5,267.3,165.6,268.4,165.9z M277.1,162.9c-1.1,0.2-2.9-0.7-3,1.4c-0.1,1.9,1.5,1.6,2.6,1.5c1.2-0.1,3.2,0.7,3.4-1.4
	C280.2,162.4,278.2,163.1,277.1,162.9z M268.5,171c0.9-0.5,3,0.9,3.1-1.4s-1.9-1.5-3.1-1.5c-1.1,0-2.9-0.7-3,1.3
	C265.4,171.5,267.2,170.8,268.5,171z M277,171.1c1.1-0.4,3.1,0.5,3-1.7c-0.1-1.9-2-1.2-3.1-1.2c-1.1,0-2.9-0.6-2.8,1.5
	C274.2,171.5,275.8,170.8,277,171.1z M236.9,173.2c-2.1,0-4.2-0.1-6.2,0c-2.7,0.2-3.5-1.1-3.3-3.6c0.1-1.5,0.1-3,0-4.5
	c0-4.4,0.2-4.6,4.4-4.5c4,0,7.9,0,11.9,0c2,0,2.9,0.8,2.9,2.9c-0.1,2.3,0,4.6,0,6.9c0.1,2-0.8,2.9-2.8,2.9
	C241.5,173.3,239.2,173.3,236.9,173.2C236.9,173.3,236.9,173.3,236.9,173.2z M232.8,165.9c1.2-0.1,2.9,0.5,3-1.4
	c0.1-1.9-1.5-1.5-2.6-1.4c-1.3,0.1-3.4-0.8-3.4,1.6C229.8,166.6,231.7,165.6,232.8,165.9z M241.3,165.9c1.1-0.3,3,0.5,2.9-1.5
	c-0.1-2-2-1.4-3.3-1.4c-1.2,0-2.9-0.3-2.7,1.6C238.4,166.5,240.2,165.7,241.3,165.9z M232.8,168.1c-1.1,0.3-2.9-0.7-3.1,1.4
	c-0.1,2.1,1.7,1.5,2.8,1.5c1.2,0,3.2,0.8,3.2-1.4C235.8,167.4,233.9,168.4,232.8,168.1z M241.2,171c1.1-0.3,3,0.7,3-1.4
	c0-2.2-2-1.4-3.2-1.5c-1.1,0-2.9-0.6-2.8,1.5C238.3,171.7,240.2,170.7,241.2,171z M569.7,160.7c2.3,0,4.6,0,6.9,0
	c2-0.1,3,0.8,2.9,2.8c0,2.4,0,4.8,0,7.1c0,1.7-0.8,2.6-2.5,2.6c-4.8,0-9.5,0-14.3,0c-1.8,0-2.5-0.9-2.4-2.6c0.1-2.4,0.1-4.8,0-7.1
	c-0.1-2.1,1-2.8,2.9-2.8C565.3,160.7,567.5,160.7,569.7,160.7C569.7,160.7,569.7,160.7,569.7,160.7z M565.7,162.9
	c-1.1,0.3-3.1-0.7-3.1,1.5c0,2,1.8,1.4,3,1.3c1.1,0,2.9,0.7,3-1.3C568.7,162.5,567,163,565.7,162.9z M573.8,166
	c1.1-0.5,3.1,0.6,3.2-1.6c0-1.9-1.6-1.4-2.7-1.4c-1.3,0-3.2-0.6-3.2,1.5C571,166.3,572.8,165.6,573.8,166z M565.4,171
	c1.1-0.4,3.1,0.8,3.1-1.5c0-1.8-1.6-1.5-2.7-1.3c-1.2,0.1-3.1-0.8-3.3,1.4C562.4,171.6,564.3,170.7,565.4,171z M574,171
	c1.1-0.3,2.9,0.5,3-1.5c0.1-2.1-1.8-1.4-2.9-1.4c-1.1,0-3-0.6-3,1.3C571,171.5,572.8,170.8,574,171z M605.3,160.7c2.4,0,4.8,0,7.2,0
	c1.9,0,2.9,0.9,2.8,3c-0.1,2.2-0.1,4.4,0,6.6c0.1,2-0.7,3-2.8,3c-4.7,0-9.3,0-14,0c-1.5,0-2.5-0.5-2.5-2.2c0-2.7,0-5.4,0-8
	c0-1.6,0.7-2.3,2.4-2.3C600.8,160.8,603,160.8,605.3,160.7C605.3,160.7,605.3,160.7,605.3,160.7z M610.1,166
	c0.9-0.5,2.8,0.6,2.8-1.5c0.1-2-1.6-1.6-2.8-1.5c-1.2,0.1-3.2-0.7-3.2,1.5C606.9,166.5,608.8,165.6,610.1,166z M601.6,166
	c0.9-0.4,2.8,0.5,2.8-1.5c0-1.7-1.7-2-2.8-1.9c-1.2,0.1-3.2,0-3.1,1.9C598.5,166.5,600.4,165.6,601.6,166z M609.8,168.1
	c-1.2,0.3-3.1-0.5-2.9,1.6c0.2,2.2,2.1,1.2,3.3,1.3c1.1,0.1,2.7,0.5,2.7-1.3C612.9,167.4,610.9,168.5,609.8,168.1z M601.5,168.1
	c-1.1,0.3-3-0.6-3,1.4c0,2.2,2,1.3,3.2,1.5c1.1,0.1,2.7,0.5,2.8-1.3C604.5,167.5,602.6,168.4,601.5,168.1z M641.3,160.7
	c2.2,0,4.4,0,6.6,0c2.2-0.1,3.4,0.8,3.2,3.2c-0.1,1.3,0,2.6,0,3.9c0,5.5,0,5.5-5.6,5.5c-3.5,0-7-0.1-10.5,0c-2.2,0-3.3-0.8-3.2-3.2
	c0.2-2.1,0.2-4.2,0-6.3c-0.2-2.4,1-3.2,3.2-3.2C637.2,160.8,639.3,160.7,641.3,160.7C641.3,160.7,641.3,160.7,641.3,160.7z
	 M637.5,162.9c-1.1,0.3-3-0.7-3.2,1.4c-0.1,2.1,1.8,1.5,2.9,1.5c1.2,0,3.2,0.7,3.1-1.5C640.3,162.6,638.7,163,637.5,162.9z
	 M645.8,165.9c1-0.4,3,0.7,2.9-1.5c-0.1-2.1-2-1.4-3.3-1.5c-1.2-0.1-2.7-0.2-2.7,1.5C642.9,166.4,644.6,165.7,645.8,165.9z
	 M637.4,171c1-0.4,2.9,0.6,2.9-1.5c0-2-1.8-1.4-3-1.4c-1.2,0-2.9-0.5-2.8,1.6C634.6,171.7,636.3,170.7,637.4,171z M645.7,171
	c1.1-0.4,3.2,0.7,3.1-1.6c-0.1-2-2-1.2-3.1-1.3c-1.2-0.1-3-0.5-2.8,1.6C642.9,171.5,644.5,170.8,645.7,171z M201.3,173.3
	c-2.4,0-4.8,0-7.1,0c-1.8,0-2.7-0.9-2.6-2.8c0.1-2.4,0.1-4.8,0-7.1c-0.1-1.8,0.8-2.6,2.5-2.6c4.8,0,9.5,0,14.3,0
	c1.8,0,2.5,0.9,2.4,2.6c-0.1,2.5-0.1,5,0,7.5c0,1.8-0.9,2.5-2.6,2.4C205.9,173.2,203.6,173.3,201.3,173.3z M196.9,165.9
	c1.1-0.3,3,0.6,3-1.4c0.1-2-1.7-1.6-2.9-1.5c-1.2,0.1-3.2-0.7-3.2,1.5C193.9,166.5,195.8,165.5,196.9,165.9z M205.3,165.9
	c1.1-0.4,3.1,0.7,3-1.4c-0.1-2.1-2-1.4-3.3-1.5c-1.1-0.1-2.7-0.3-2.7,1.5C202.4,166.5,204.2,165.6,205.3,165.9z M205.4,171
	c1.1-0.3,3,0.5,3-1.5c-0.1-2.1-2-1.3-3.2-1.4c-1.2-0.1-2.9-0.5-2.8,1.5C202.5,171.7,204.3,170.7,205.4,171z M196.8,171
	c1.1-0.4,3.1,0.8,3.1-1.5c0-1.8-1.7-1.4-2.7-1.3c-1.2,0.1-3.2-0.8-3.3,1.3C193.7,171.6,195.6,170.7,196.8,171z M165.1,160.7
	c2.4,0,4.8,0,7.2,0c1.7,0,2.6,0.7,2.6,2.5c-0.1,2.5-0.1,5,0,7.5c0,1.7-0.7,2.6-2.5,2.6c-4.7,0-9.4,0-14.1,0c-1.9,0-2.8-0.8-2.7-2.7
	c0.1-2.4,0.1-4.8,0-7.2c-0.1-2.1,0.9-2.8,2.9-2.7C160.7,160.8,162.9,160.7,165.1,160.7C165.1,160.7,165.1,160.7,165.1,160.7z
	 M169.4,162.9c-1.2,0.1-3-0.6-2.9,1.5c0,2.1,1.9,1.3,3,1.4c1.2,0,3,0.6,3-1.3C172.6,162.1,170.5,163.3,169.4,162.9z M161.1,162.9
	c-1.1,0.3-3.2-0.7-3.1,1.5c0.1,2.1,2,1.4,3.2,1.4c1.1,0,2.9,0.6,2.8-1.5C164,162.3,162.2,163.1,161.1,162.9z M169.2,168
	c-0.9,0.5-2.8-0.6-2.7,1.6c0.1,1.8,1.7,1.4,2.8,1.3c1.2-0.1,3.2,0.8,3.1-1.5C172.4,167.5,170.5,168.4,169.2,168z M161,171
	c1.1-0.2,2.9,0.5,3.1-1.4c0.1-1.9-1.6-1.5-2.6-1.4c-1.2,0.1-3.2-0.8-3.3,1.3C157.9,171.5,159.8,170.8,161,171z M677.4,173.2
	c-2.3,0-4.6,0-6.9,0c-1.8,0-2.8-0.6-2.8-2.6c0.1-2.5,0.1-5,0-7.5c0-1.8,0.8-2.5,2.5-2.5c4.7,0,9.4,0,14,0c1.9,0,2.7,0.9,2.7,2.8
	c0,2.4,0,4.8,0,7.2c0,1.9-0.9,2.7-2.8,2.6C681.9,173.2,679.7,173.2,677.4,173.2z M681.5,165.9c1.1-0.4,3.2,0.6,3.1-1.6
	c-0.1-1.9-1.9-1.4-3.1-1.3c-1.2,0-3-0.5-3,1.4C678.5,166.4,680.3,165.7,681.5,165.9z M673.2,165.9c1.4,0,3,0.4,3-1.6
	c0-1.8-1.6-1.4-2.7-1.4c-1.3,0.1-3.2-0.6-3.3,1.4C670,166.6,672.1,165.5,673.2,165.9z M673,168.1c-1,0.3-2.8-0.5-2.8,1.3
	c0,2.2,1.9,1.5,3.1,1.6c1.2,0.1,3,0.3,2.8-1.6C675.9,167.5,674.1,168.3,673,168.1z M681.6,171c1.1-0.3,3,0.6,3-1.5
	c0-2-1.9-1.4-3-1.4c-1.1,0-3-0.7-3,1.4C678.6,171.5,680.5,170.8,681.6,171z M421.4,168.1c-2.8,0-5.6-0.1-8.4,0
	c-2.6,0.1-3.3-1.2-2.9-3.5c0.7-3.9,4.8-8,8.8-8.8c4.5-0.9,9.8,1.4,11.9,5c0.4,0.7,0.8,1.4,1.1,2.1c1.6,3.6,0.6,5.1-3.4,5.2
	c-1.2,0-2.4,0-3.6,0C423.8,168.1,422.6,168.1,421.4,168.1C421.4,168.1,421.4,168.1,421.4,168.1z M421.3,165.8c2.3,0,4.6,0,6.9,0
	c1.6,0,2.1-0.7,1.4-2.3c-1.4-3.2-4.9-5.8-8.5-5.6c-3.8,0.2-6.5,2.1-8.1,5.6c-0.7,1.6-0.2,2.3,1.4,2.3
	C416.7,165.8,419,165.8,421.3,165.8z"/>
</svg>
