<?xml version="1.0" encoding="UTF-8"?>
<svg id="_Слой_1" data-name="Слой 1" xmlns="http://www.w3.org/2000/svg" viewBox="0 0 595.28 841.89">
  <defs>
    <style>
      .cls-1 {
        fill: #009c6d;
      }

      .cls-1, .cls-2 {
        stroke-width: 0px;
      }

      .cls-3 {
        fill: none;
        stroke: #009c6c;
        stroke-miterlimit: 10;
        stroke-width: 7.93px;
      }

      .cls-2 {
        fill: #009c6c;
      }
    </style>
  </defs>
  <circle class="cls-3" cx="297.64" cy="399.1" r="257.07"/>
  <g>
    <path class="cls-2" d="m187.93,589.07l-8.7,14.4-10.55-6.37,8.7-14.4,2.96,1.79-7.06,11.68,4.63,2.8,7.06-11.68,2.96,1.79Z"/>
    <path class="cls-2" d="m160.51,570.74l8.77,6.48-10,13.53-8.7-6.43,1.86-2.51,5.93,4.38,2.19-2.96-5.22-3.86,1.86-2.51,5.22,3.86,2.24-3.03-6.01-4.44,1.86-2.51Z"/>
    <path class="cls-2" d="m136.3,567.96l3.13,2.77,9.02-10.18,2.61,2.31-9.01,10.18,3.15,2.79-2.13,2.41-8.89-7.87,2.13-2.41Z"/>
    <path class="cls-2" d="m131.53,543.71l7.49,7.93-12.23,11.55-7.43-7.86,2.27-2.15,5.07,5.36,2.67-2.52-4.46-4.72,2.27-2.15,4.45,4.72,2.74-2.59-5.13-5.43,2.27-2.14Z"/>
    <path class="cls-2" d="m109.69,534.35c1.47-1.16,2.98-1.59,4.51-1.3,1.53.29,2.87,1.16,4.01,2.61l1.22,1.55,4.03-3.16,2.14,2.72-13.23,10.38-3.44-4.38c-1.17-1.49-1.69-2.98-1.56-4.49.13-1.51.91-2.82,2.33-3.94Zm2.22,2.72c-.7.55-1.09,1.16-1.16,1.83-.07.67.16,1.34.7,2.02l1.25,1.59,4.27-3.35-1.26-1.61c-.51-.65-1.11-1.02-1.8-1.11-.68-.08-1.35.13-1.99.63Z"/>
    <path class="cls-2" d="m113.35,520.47l-14.15,9.1-5.99-9.32,2.67-1.72,4.12,6.41,2.49-1.6-1.69-2.63c-.94-1.46-1.28-2.87-1.04-4.23.24-1.37,1.06-2.5,2.45-3.39,1.44-.93,2.85-1.19,4.22-.79,1.37.4,2.52,1.32,3.44,2.75l3.48,5.42Zm-4.5-1.22l-1.68-2.61c-.37-.58-.83-.92-1.38-1.04-.55-.11-1.1,0-1.65.36-.62.4-.98.87-1.08,1.4-.1.53.03,1.1.42,1.69l1.66,2.59,3.72-2.39Z"/>
    <path class="cls-2" d="m101.37,500.31c.49.95.69,1.88.59,2.78l-2.74.19c-.05-.62-.17-1.11-.35-1.47-.37-.73-1.14-1.08-2.31-1.08l-8.54,10.7-1.74-3.38,5.79-7.07-8.97.9-1.68-3.27,13.75-1.06c1.66-.13,2.96,0,3.89.39.93.39,1.7,1.18,2.31,2.36Z"/>
    <path class="cls-2" d="m78.4,476.56c1.74-.7,3.3-.69,4.69.02,1.39.71,2.43,1.92,3.12,3.63l.74,1.83,4.75-1.91,1.29,3.21-15.61,6.28-2.08-5.17c-.71-1.75-.79-3.34-.24-4.75.55-1.41,1.66-2.45,3.34-3.13Zm1.38,3.23c-.83.33-1.38.81-1.63,1.43s-.22,1.33.11,2.13l.75,1.87,5.04-2.03-.76-1.9c-.31-.77-.78-1.29-1.42-1.57-.64-.27-1.33-.25-2.09.05Z"/>
    <path class="cls-2" d="m71.74,464.88l13.06-3.97,1.01,3.31-16.09,4.89-2.91-9.59,3.03-.92,1.91,6.28Z"/>
    <path class="cls-2" d="m76.26,434.65c.89.58,1.61,1.25,2.15,2.02.54.76.94,1.73,1.18,2.91.44,2.12.04,4.02-1.21,5.72s-3.12,2.8-5.61,3.32l-.21.04c-2.49.52-4.66.25-6.49-.83-1.84-1.07-2.98-2.7-3.44-4.88-.42-2.02-.15-3.86.82-5.5l3.08,1.02c-.73,1.35-.98,2.59-.74,3.74.25,1.18.91,2.04,1.99,2.59,1.08.55,2.41.66,4,.33l.23-.05c1.61-.34,2.81-.97,3.58-1.9.77-.93,1.03-2,.78-3.21-.24-1.18-.99-2.24-2.24-3.19l2.13-2.14Z"/>
    <path class="cls-2" d="m75.4,412.26l.45,4.08-6.42,4.92,2.13,1.33,4.92-.55.38,3.44-16.72,1.86-.38-3.44,7.21-.8-7.82-4.64-.46-4.11,7.69,4.83,9-6.92Z"/>
    <path class="cls-2" d="m57.96,391.54l16.82-.21.04,3.41-10.55.13,10.62,5.95.04,3.2-16.82.21-.04-3.41,10.4-.13-10.48-5.92-.04-3.22Z"/>
    <path class="cls-2" d="m57.93,373.64c-.09,1.02-.45,1.83-1.09,2.42-.64.59-1.52.92-2.63.96l-.19-1.99c1.04-.15,1.6-.68,1.68-1.59.08-.88-.38-1.49-1.38-1.83l.53-1.91c1.09.24,1.9.71,2.42,1.4.53.69.74,1.54.66,2.54Zm1.58-6.13l16.76,1.48-.3,3.4-10.51-.93,9.98,6.98-.28,3.18-16.76-1.48.3-3.4,10.37.91-9.83-6.95.28-3.21Z"/>
    <path class="cls-2" d="m67.59,340.26l13.27,3.21-.82,3.36-16.35-3.96,2.36-9.74,3.08.75-1.55,6.38Z"/>
    <path class="cls-2" d="m81.68,312.38c2.36.82,4.07,2.16,5.11,4.03,1.05,1.87,1.21,3.85.49,5.94-.73,2.1-2.07,3.57-4.04,4.39-1.96.82-4.12.82-6.49,0l-.27-.09c-2.38-.82-4.09-2.17-5.12-4.04-1.04-1.87-1.19-3.85-.47-5.96.72-2.09,2.07-3.54,4.03-4.36,1.96-.82,4.12-.82,6.49,0l.27.09Zm-1.13,3.4l-.27-.09c-1.54-.53-2.9-.61-4.06-.22s-1.93,1.14-2.32,2.26c-.39,1.14-.26,2.2.4,3.2s1.77,1.77,3.31,2.3l.27.09c1.54.54,2.9.61,4.05.22,1.16-.39,1.93-1.14,2.32-2.26.39-1.13.26-2.2-.4-3.2-.66-1-1.76-1.77-3.31-2.3Z"/>
    <path class="cls-2" d="m96.38,294.64c.37,1,.54,1.97.52,2.9-.02.94-.28,1.95-.79,3.04-.91,1.96-2.37,3.25-4.39,3.86-2.01.61-4.18.38-6.49-.69l-.2-.09c-2.31-1.07-3.88-2.59-4.71-4.54-.83-1.96-.78-3.95.16-5.97.87-1.87,2.18-3.18,3.94-3.92l1.86,2.67c-1.39.64-2.34,1.49-2.83,2.55-.51,1.09-.49,2.18.05,3.27.54,1.09,1.54,1.97,3.01,2.66l.22.1c1.5.69,2.83.9,4.01.61,1.18-.28,2.02-.99,2.54-2.11.51-1.09.54-2.39.11-3.89l2.99-.44Z"/>
    <path class="cls-2" d="m103.67,285.71c-.54.93-1.22,1.59-2.03,1.99l-1.63-2.21c.5-.38.85-.74,1.05-1.08.41-.71.3-1.55-.33-2.53l-13.61-1.48,1.92-3.28,9.07,1.11-5.56-7.1,1.86-3.17,8.26,11.05c1,1.33,1.59,2.5,1.76,3.49.17,1-.09,2.07-.76,3.22Z"/>
    <path class="cls-2" d="m119.7,260.97l-5.17,7.11,2.35,2.12-1.75,2.41-5.11-3.72.78-1.07c-.83-1.34-1.88-2.63-3.14-3.87-1.26-1.25-3-2.67-5.22-4.29l-1.69-1.23,6.3-8.67,11.04,8.03,1.02-1.4,4.86,4.07-1.71,2.35-2.55-1.85Zm-12.13-6.53l-2.3,3.17.21.16c1.9,1.38,3.42,2.62,4.56,3.72,1.14,1.09,2.09,2.25,2.85,3.46l3.15-4.33-8.47-6.16Z"/>
    <path class="cls-2" d="m136.36,241.15l-2.38,2.68-3.56-1.49-3.83,4.31,1.9,3.36-2.31,2.6-8.66-15.73,2.2-2.48,16.64,6.75Zm-8.94-.07l-5.31-2.27,2.87,5.02,2.44-2.75Z"/>
    <path class="cls-2" d="m143.46,219.15c1.28,1.37,1.83,2.84,1.66,4.39-.17,1.55-.92,2.96-2.27,4.21l-1.44,1.34,3.48,3.75-2.54,2.35-11.44-12.33,4.09-3.79c1.39-1.29,2.84-1.93,4.35-1.92,1.51,0,2.89.67,4.12,2Zm-2.52,2.44c-.61-.66-1.25-.99-1.92-1.01-.67-.01-1.32.27-1.95.86l-1.48,1.37,3.69,3.98,1.5-1.39c.61-.57.93-1.2.95-1.89s-.24-1.34-.79-1.93Z"/>
    <path class="cls-2" d="m166.14,212.55c-.14,1.06-.44,1.99-.89,2.81-.45.82-1.15,1.6-2.11,2.33-1.72,1.32-3.61,1.78-5.68,1.38-2.07-.39-3.88-1.6-5.43-3.62l-.13-.17c-1.55-2.02-2.24-4.09-2.07-6.21.17-2.12,1.14-3.86,2.91-5.21,1.64-1.26,3.41-1.81,5.31-1.65l.41,3.23c-1.53-.08-2.76.24-3.69.95-.95.73-1.45,1.7-1.47,2.92-.03,1.21.45,2.46,1.43,3.75l.15.19c1,1.31,2.09,2.11,3.26,2.4,1.17.29,2.25.06,3.23-.69.95-.73,1.59-1.86,1.91-3.4l2.85.99Z"/>
    <path class="cls-2" d="m176.68,191.83l-3.54,2.23,7.24,11.51-2.95,1.85-7.24-11.51-3.56,2.24-1.71-2.73,10.05-6.32,1.72,2.73Z"/>
    <path class="cls-2" d="m200.57,189.26c.67,1.33.7,2.6.08,3.81-.62,1.21-1.75,2.24-3.41,3.08l-5.7,2.89-7.6-15,5.55-2.81c1.49-.75,2.85-1.02,4.1-.79,1.25.23,2.19.97,2.82,2.21.75,1.49.63,2.92-.37,4.31,1.05-.08,1.95.03,2.68.35.74.32,1.34.94,1.81,1.87l.04.09Zm-6.97-4.55c-.57-1.13-1.56-1.34-2.96-.63l-2.29,1.16,1.73,3.41,2.14-1.09c1.5-.76,1.96-1.71,1.38-2.86Zm3.71,5.77c-.61-1.2-1.69-1.41-3.25-.62l-2.68,1.36,1.79,3.54,2.77-1.4c.71-.36,1.19-.79,1.44-1.28.24-.49.22-1.02-.07-1.6Z"/>
    <path class="cls-2" d="m220.96,185.8l-10.15,4.01-6.18-15.64,10.06-3.97,1.15,2.91-6.86,2.71,1.35,3.42,6.03-2.38,1.15,2.91-6.03,2.38,1.39,3.51,6.95-2.75,1.15,2.91Z"/>
    <path class="cls-2" d="m241.56,179.37l-3.32.96-1.9-6.58-5.33,1.54,1.9,6.58-3.33.96-4.67-16.16,3.32-.96,1.88,6.49,5.33-1.54-1.88-6.49,3.32-.96,4.68,16.16Z"/>
    <path class="cls-2" d="m263.28,174.87l-3.4.63-1.24-6.73-5.46,1.01,1.24,6.73-3.4.63-3.06-16.54,3.4-.63,1.23,6.64,5.46-1.01-1.23-6.64,3.4-.63,3.05,16.54Z"/>
    <path class="cls-2" d="m272.88,173.51l-1.24-16.77,3.45-.26.41,5.58,2.44-.18c1.82-.13,3.3.25,4.42,1.17,1.13.91,1.75,2.23,1.88,3.96.13,1.79-.33,3.22-1.39,4.28-1.06,1.07-2.47,1.66-4.23,1.79l-5.75.43Zm3.22-3.37l2.42-.18c.77-.06,1.35-.32,1.76-.79.41-.47.58-1.08.53-1.83-.06-.81-.33-1.42-.8-1.81-.47-.39-1.1-.56-1.88-.5l-2.4.18.37,4.94Zm10.13,2.38l-1.24-16.77,3.45-.26,1.24,16.77-3.45.26Z"/>
    <path class="cls-2" d="m312.61,155.82l-.59,16.81-3.41-.12.37-10.54-6.45,10.33-3.19-.11.59-16.81,3.41.12-.37,10.4,6.42-10.19,3.22.11Zm-6.21-1.25c-1.02-.04-1.85-.36-2.48-.96-.63-.61-.99-1.47-1.1-2.58l1.98-.29c.21,1.03.76,1.57,1.68,1.6.88.03,1.47-.46,1.76-1.48l1.93.43c-.18,1.1-.6,1.93-1.27,2.49-.66.56-1.5.82-2.5.79Z"/>
    <path class="cls-2" d="m336.57,175.78c-1.05-.2-1.9-.62-2.55-1.25l1.54-2.27c.52.35.98.56,1.37.63.8.15,1.56-.23,2.28-1.15l-3.13-13.33,3.73.72,1.97,8.92,4.84-7.61,3.61.7-7.67,11.47c-.92,1.39-1.82,2.33-2.71,2.82-.89.49-1.98.61-3.29.36Z"/>
    <path class="cls-2" d="m367.05,183.22l-3.32-.98,1.95-6.57-5.32-1.58-1.95,6.56-3.32-.99,4.79-16.12,3.32.99-1.92,6.47,5.32,1.58,1.92-6.47,3.32.98-4.79,16.12Z"/>
    <path class="cls-2" d="m394.34,175.71l-6.39,15.56-3.16-1.3,4.01-9.76-9.63,7.45-2.96-1.21,6.39-15.56,3.16,1.3-3.95,9.62,9.55-7.33,2.98,1.22Z"/>
    <path class="cls-2" d="m409.93,197.18c-.7,1.32-1.72,2.07-3.06,2.26-1.35.19-2.84-.15-4.48-1.02l-5.65-3,7.89-14.86,5.5,2.92c1.47.78,2.47,1.75,3,2.9.53,1.15.47,2.34-.18,3.58-.78,1.47-2.03,2.2-3.74,2.18.67.81,1.09,1.61,1.26,2.4.16.79,0,1.64-.49,2.56l-.04.08Zm-2.88-1.96c.63-1.19.18-2.19-1.37-3.01l-2.65-1.41-1.86,3.5,2.74,1.45c.71.38,1.33.52,1.88.44.54-.08.96-.41,1.26-.97Zm2.59-6.35c.59-1.12.2-2.04-1.19-2.78l-2.27-1.21-1.79,3.37,2.12,1.13c1.49.79,2.53.62,3.13-.51Z"/>
    <path class="cls-2" d="m424.5,211.85l-9.12-5.98,9.22-14.07,9.04,5.93-1.71,2.61-6.17-4.04-2.02,3.07,5.43,3.56-1.71,2.61-5.42-3.56-2.07,3.15,6.25,4.1-1.71,2.61Z"/>
    <path class="cls-2" d="m447.93,215.87c-1.16,1.47-2.52,2.24-4.08,2.31-1.56.07-3.06-.46-4.51-1.61l-1.54-1.22-3.18,4.01-2.71-2.15,10.44-13.19,4.37,3.46c1.48,1.17,2.33,2.51,2.56,4,.22,1.5-.22,2.95-1.35,4.37Zm-2.79-2.12c.56-.7.79-1.39.7-2.05-.09-.66-.47-1.26-1.15-1.8l-1.58-1.25-3.37,4.26,1.6,1.27c.65.52,1.32.74,2.01.66.69-.08,1.28-.44,1.79-1.08Z"/>
    <path class="cls-2" d="m457.92,237.26c-1.07.02-2.04-.12-2.92-.44-.88-.32-1.75-.9-2.62-1.73-1.56-1.49-2.31-3.29-2.24-5.4.07-2.1.99-4.08,2.75-5.92l.15-.16c1.76-1.84,3.7-2.84,5.82-3,2.12-.16,3.99.54,5.6,2.07,1.49,1.43,2.31,3.09,2.44,4.99l-3.12.9c-.16-1.53-.66-2.69-1.51-3.5-.87-.83-1.91-1.17-3.11-1.01-1.2.16-2.36.82-3.48,1.99l-.17.17c-1.14,1.19-1.76,2.39-1.87,3.59-.11,1.2.28,2.23,1.17,3.08.87.83,2.09,1.28,3.65,1.36l-.54,2.97Z"/>
    <path class="cls-2" d="m483.65,243.83l-12.76,10.96-2.22-2.59,8-6.88-11.96,2.26-2.08-2.42,12.76-10.96,2.22,2.59-7.89,6.78,11.84-2.19,2.1,2.44Z"/>
    <path class="cls-2" d="m494.2,263.53l-2.41-3.42-11.11,7.84-2.01-2.85,11.11-7.84-2.43-3.44,2.63-1.86,6.85,9.7-2.63,1.86Z"/>
    <path class="cls-2" d="m493.27,288.23l-5.47-9.44,14.55-8.43,5.42,9.36-2.7,1.57-3.7-6.38-3.18,1.84,3.25,5.61-2.7,1.57-3.25-5.61-3.26,1.89,3.75,6.47-2.7,1.57Z"/>
    <path class="cls-2" d="m514.37,300.45l-1.76-3.79-12.33,5.74-1.47-3.16,12.33-5.74-1.78-3.81,2.92-1.36,5.01,10.76-2.92,1.36Z"/>
    <path class="cls-2" d="m509.63,326.28l16.14-4.74,3.47,11.83-16.14,4.74-.97-3.32,13.1-3.84-1.52-5.19-13.1,3.84-.97-3.32Z"/>
    <path class="cls-2" d="m515.66,349.88c-.2-1.05-.13-2,.22-2.83l2.68.59c-.13.61-.15,1.11-.08,1.51.15.8.79,1.37,1.91,1.69l11.22-7.84.71,3.73-7.56,5.14,8.86,1.68.69,3.61-13.49-2.88c-1.63-.34-2.84-.83-3.62-1.47-.78-.64-1.3-1.62-1.55-2.92Z"/>
    <path class="cls-2" d="m533.48,378.04l-.41-4.16-13.54,1.32-.34-3.47,13.54-1.32-.41-4.18,3.21-.31,1.16,11.81-3.21.31Z"/>
    <path class="cls-2" d="m520.48,399.03l-.1-10.91,16.82-.15.1,10.81-3.12.03-.07-7.38-3.68.03.06,6.49-3.12.03-.06-6.49-3.77.03.07,7.47-3.12.03Z"/>
    <path class="cls-2" d="m535.82,422.23l-16.76-1.45.29-3.4,10.51.91-9.99-6.96.28-3.18,16.76,1.45-.29,3.4-10.37-.9,9.84,6.93-.28,3.21Zm1.57-6.13c.09-1.02.45-1.83,1.09-2.43.64-.6,1.51-.92,2.63-.97l.19,2c-1.04.15-1.6.68-1.68,1.59-.08.88.39,1.49,1.39,1.83l-.53,1.91c-1.09-.24-1.9-.7-2.42-1.39-.53-.69-.75-1.54-.66-2.54Z"/>
    <path class="cls-2" d="m514.36,455.36c-.55-.91-.91-1.83-1.07-2.75-.16-.92-.1-1.97.19-3.13.52-2.1,1.71-3.64,3.57-4.63,1.86-.99,4.03-1.17,6.5-.56l.21.05c2.47.61,4.3,1.79,5.5,3.56,1.19,1.76,1.52,3.72.99,5.89-.5,2.01-1.53,3.54-3.11,4.6l-2.34-2.26c1.24-.9,2.01-1.91,2.29-3.05.29-1.17.06-2.23-.67-3.2-.74-.96-1.89-1.64-3.46-2.03l-.23-.06c-1.6-.4-2.95-.34-4.05.16-1.1.5-1.79,1.36-2.09,2.55-.29,1.17-.07,2.45.64,3.84l-2.85,1.01Z"/>
    <path class="cls-2" d="m512.77,479.87c-2.35-.84-4.04-2.2-5.07-4.08s-1.17-3.86-.43-5.95c.75-2.1,2.11-3.55,4.08-4.35,1.97-.8,4.13-.78,6.49.06l.27.1c2.37.85,4.06,2.21,5.08,4.09,1.02,1.88,1.16,3.87.41,5.96-.75,2.08-2.1,3.52-4.07,4.32-1.97.8-4.13.78-6.49-.06l-.27-.1Zm1.16-3.39l.27.1c1.54.55,2.89.64,4.05.26,1.16-.38,1.95-1.12,2.34-2.24.4-1.13.28-2.2-.37-3.21s-1.75-1.79-3.29-2.34l-.27-.1c-1.54-.55-2.89-.64-4.05-.26-1.16.38-1.94,1.12-2.34,2.24-.4,1.13-.28,2.2.37,3.21.65,1.01,1.75,1.79,3.29,2.33Z"/>
    <path class="cls-2" d="m502.56,502.16c-2.25-1.09-3.79-2.62-4.61-4.6-.82-1.98-.75-3.97.21-5.96.97-2,2.47-3.3,4.52-3.89,2.04-.59,4.19-.34,6.44.75l.26.12c2.26,1.09,3.81,2.63,4.62,4.61.82,1.98.74,3.97-.23,5.97-.96,1.99-2.46,3.28-4.51,3.87-2.05.59-4.19.34-6.44-.75l-.26-.13Zm1.51-3.24l.26.12c1.47.71,2.81.94,4,.69,1.2-.25,2.05-.91,2.57-1.97.52-1.08.51-2.16-.03-3.23-.54-1.07-1.55-1.96-3.02-2.67l-.26-.12c-1.47-.71-2.8-.94-4-.69-1.2.25-2.05.91-2.57,1.98-.52,1.08-.51,2.16.03,3.23.54,1.07,1.55,1.96,3.02,2.67Z"/>
    <path class="cls-2" d="m490.63,506.53l14.34,8.8-5.79,9.44-2.7-1.66,3.98-6.49-2.52-1.55-1.63,2.66c-.9,1.48-2.03,2.4-3.36,2.77-1.34.37-2.71.13-4.12-.74-1.46-.9-2.31-2.05-2.54-3.46-.23-1.41.09-2.84.98-4.29l3.37-5.49Zm.85,4.58l-1.62,2.64c-.36.59-.47,1.15-.34,1.7.14.54.48.99,1.04,1.33.63.38,1.21.51,1.73.37s.97-.51,1.34-1.11l1.61-2.62-3.77-2.31Z"/>
    <path class="cls-2" d="m465.53,536.92l2.48,1.94,11.36-14.54,13.25,10.36-2.13,2.73-10.75-8.4-2.97,3.8,10.75,8.41-2.13,2.73-10.75-8.41-2.99,3.82,10.75,8.41-2.13,2.73-10.75-8.4-1.05,1.34-4.71-4.23,1.78-2.27Z"/>
    <path class="cls-2" d="m452.5,555.38l7.64-7.79,12.01,11.78-7.57,7.72-2.23-2.19,5.17-5.27-2.63-2.57-4.54,4.63-2.23-2.19,4.54-4.63-2.69-2.64-5.23,5.34-2.23-2.19Z"/>
    <path class="cls-2" d="m436.3,569.61l2.65-2.23,4.41,5.24,4.25-3.58-4.41-5.24,2.65-2.23,10.84,12.87-2.65,2.23-4.35-5.17-4.25,3.58,4.35,5.17-2.65,2.23-10.84-12.87Z"/>
    <path class="cls-2" d="m427.58,596.54l-9.49-13.89,2.82-1.92,5.95,8.71-.93-12.14,2.64-1.8,9.49,13.89-2.82,1.92-5.87-8.59.87,12.01-2.66,1.82Z"/>
    <path class="cls-2" d="m407.62,608.06l-8.07-14.76,3.06-1.67,2.65,4.85,1.92-1.05.07-6.34,3.48-1.9-.12,7.19c2.26-.21,3.98.77,5.17,2.95.79,1.45.99,2.82.58,4.12-.4,1.3-1.34,2.39-2.8,3.29-.9.55-1.83,1.08-2.77,1.6l-3.16,1.73Zm1.45-10.16l-2.34,1.28,2.42,4.43.57-.31c.49-.27.86-.47,1.1-.62.24-.14.55-.34.91-.59.36-.25.62-.48.75-.67.14-.19.27-.43.39-.71.12-.28.15-.57.09-.88s-.19-.65-.39-1.02c-.38-.69-.88-1.11-1.5-1.26s-1.29-.03-2.01.36Z"/>
  </g>
  <path class="cls-1" d="m143.53,269.78l-.96-1.24-4.48-6.39c-30.3,36.11-48.54,82.68-48.54,133.51s17.82,96.32,47.49,132.26l.65-1.03,4.55-7.21c-27.25-34.02-43.54-77.19-43.54-124.16s16.81-91.49,44.83-125.74Zm102.98,317.91c-.37-.1-.74-.2-1.11-.3-34.68-9.39-65.6-27.92-90-52.85l-12.61.06c26.59,29.59,61.56,51.51,101.18,62.02.06.02.13.04.19.05l3.11.02,1.39-8.99h-2.15Zm101.31,9.74c.36-.09.72-.18,1.08-.27,40.57-10.32,76.38-32.58,103.46-62.82h-12.66c-24.9,25.53-56.63,44.37-92.23,53.6-.62.16-1.24.31-1.87.47m111.61-325.77c-.31.7-3.97,6.67-5.07,8.11,27.56,34.11,44.06,77.52,44.06,124.78,0,44.83-14.85,86.2-39.89,119.45h11.42c23.72-33.77,37.63-74.92,37.63-119.32,0-50.6-18.08-96.98-48.15-133.03Zm-159.76-74.88c-61.34,0-116.47,26.57-154.52,68.82h12.44c36.06-36.9,86.41-59.79,142.08-59.79s106.4,23.07,142.49,60.21h12.41c-38.07-42.5-93.36-69.23-154.9-69.23Z"/>
  <path class="cls-1" d="m283.24,506.02h14.51l30.4-55.71-21.45.15-6.64,11.88h3.7c1.03,0,1.75.36,2.16,1.08.31.62.15,1.44-.46,2.47l-22.22,40.12Z"/>
  <path class="cls-1" d="m318.12,505.09h17.59c2.57-.1,4.68-.57,6.33-1.39,1.75-.72,3.24-2.01,4.48-3.86l2.01-3.09,7.1-13.43c.93-1.75,1.34-3.19,1.23-4.32-.31-1.23-1.29-2.31-2.93-3.24l2.31-.93c1.95-.72,3.29-1.75,4.01-3.09l8.02-13.58.93-2.01c.41-1.85-.21-3.45-1.85-4.78-1.65-1.34-3.55-2.01-5.71-2.01l-21.6.46c-1.03.51-2.37,2.21-4.01,5.09l-7.41,13.73c-.62,1.23-.87,2.47-.77,3.7.1,1.54.87,2.47,2.31,2.78-2.37,0-4.32.57-5.86,1.7-1.23.82-2.57,2.47-4.01,4.94l-7.1,13.43c-1.34,2.57-1.65,4.78-.93,6.64.82,2.16,2.78,3.24,5.86,3.24Zm22.38-35.8l4.48-8.02.77-.46.77-.31.77-.15h4.78c.41,0,.62.26.62.77l-.15,1.08-4.17,7.41-1.85,1.85-.46.15-4.63-.15-.93-.93c-.1-.41-.1-.82,0-1.23Zm-12.96,24.54l.77-2.16,4.63-8.64c1.23-2.47,2.16-3.75,2.78-3.86l7.41.15c.82.1,1.13.57.93,1.39l-8.33,14.66c-.41.51-1.13.77-2.16.77l-5.56-.31c-.41-.41-.57-1.08-.46-2.01Z"/>
  <path class="cls-1" d="m270.9,381.64c3.81,11.52,5.2,21.91,4.17,31.17l71.45-127,72.22.15c8.95-.51,16.25-2.98,21.91-7.41,4.42-3.6,8.95-9.57,13.58-17.9l-121.91-.15-50.31,86.57-66.05-86.11-32.41-.15,69.13,88.58c8.02,8.95,14.09,19.7,18.21,32.25Z"/>
  <path class="cls-1" d="m357.93,504.32c1.03,1.13,2.73,1.7,5.09,1.7h16.67l6.33-.77,2.78-.93c1.95-1.23,3.81-3.39,5.56-6.48l21.3-40.58.46-1.54c.21-1.95-.26-3.5-1.39-4.63-1.23-1.13-3.03-1.7-5.4-1.7l-17.13.15-6.17.77-3.24,1.08c-1.95,1.34-3.75,3.55-5.4,6.64l-19.91,38.42-1.08,3.55c-.21,1.95.31,3.39,1.54,4.32Zm17.28-12.96l.46-1.23,12.65-24.38c.62-1.13,1.44-2.01,2.47-2.62.82-.62,1.85-.93,3.09-.93.93,0,1.65.21,2.16.62.41.41.62,1.03.62,1.85l-.15.46-13.12,25-2.16,2.78-2.78.93c-1.13,0-1.95-.26-2.47-.77-.62-.31-.87-.87-.77-1.7Z"/>
  <path class="cls-1" d="m460.39,452.01c-1.13-1.13-2.88-1.7-5.25-1.7l-18.98.46c-2.78.31-4.99.93-6.64,1.85-1.95,1.34-3.81,3.5-5.56,6.48l-11.42,20.99-.46,1.54c-.21,1.85.21,3.34,1.23,4.48,1.03.93,2.67,1.39,4.94,1.39h11.88l-1.7,2.93-2.31,2.78-3.39.77h-17.13l-6.79,12.04h25.15c4.01,0,7.05-.57,9.1-1.7l3.09-2.93,2.47-3.39,21.45-37.96.93-2.01.46-1.54c.41-1.95.05-3.45-1.08-4.48Zm-17.44,12.35l-.15.77-6.02,10.49h-4.01c-1.23,0-2.11-.21-2.62-.62-.62-.41-.87-1.03-.77-1.85l.31-.77,3.7-6.64c.93-1.23,1.85-2.26,2.78-3.09,1.13-.62,2.37-.93,3.7-.93,1.03,0,1.85.26,2.47.77s.82,1.13.62,1.85Z"/>
  <path class="cls-1" d="m241.27,399.7c2.06,8.85,2.01,17.44-.15,25.77-2.26,8.23-6.33,14.92-12.19,20.06-6.28,5.56-13.89,8.44-22.84,8.64l-11.26.31-12.5,22.99h30.09c13.17-2.57,24.12-8.28,32.87-17.13,8.02-8.02,13.73-18,17.13-29.94,3.19-11.11,4.01-22.53,2.47-34.26-1.54-11.62-5.25-21.66-11.11-30.09l-83.02-105.4-29.94-.46,87.8,114.81c6.38,7.1,10.6,15.33,12.65,24.69Z"/>
  <path class="cls-1" d="m139.42,530.96l316.43-.31,4.79-5.6s4.7-5.91,5.07-6.44c-1.86,0-318.81.77-318.81.77l-7.49,11.57Z"/>
  <path class="cls-1" d="m312.56,360.81l-53.55,96.6c-5.56,7.3-12.76,13.84-21.6,19.6-9.57,6.38-17.85,9.57-24.84,9.57l-35.8-.15-13.27,22.68,53.39-.15c13.37-.1,26.9-5.4,40.58-15.89,10.39-8.13,18.05-16.51,22.99-25.15l60.95-106.63-28.86-.46Z"/>
  <path class="cls-1" d="m427.97,307.26l6.17-10.49-85.95.93-13.43,23.76h67.59c4.53-.41,9.05-1.7,13.58-3.86,5.66-2.57,9.67-6.02,12.04-10.34Z"/>
  <path class="cls-1" d="m329.82,331.03l-13.58,23.92,67.74-.15c4.32-.31,9.16-1.8,14.51-4.48,6.28-3.29,10.54-7.1,12.81-11.42l4.94-9.57-86.41,1.7Z"/>
  <path class="cls-1" d="m326.75,592.49c1.88-5.2,1.57-10.35-.94-15.46-.45-1.7-.54-3.36-.27-4.97l-5.25-1.08c-3.05-2.33-7.8-3.14-14.26-2.42v-2.82c-4.93,2.96-7.53,6.81-7.8,11.56,2.6-2.87,5.92-3.45,9.95-1.75,0-1.79-.76-3.18-2.29-4.17,2.6-.63,4.71.04,6.32,2.02,1.08,1.97,1.21,3.9.4,5.78-1.88,3.05-6.05,7.39-12.51,13.04l-1.29,1.09c-4.81-5.67-8.96-10.65-12.43-14.93l.4-1.34-3.36-3.63-1.08.13-1.75-2.02-2.02.4-1.08,1.48,1.61,2.28c-3.32,2.42-8.07,3.76-14.26,4.03,1.52,7.26,5.96,12.45,13.32,15.59,1.35-5.82,2.82-10.35,4.44-13.57.09-.18.27-.27.54-.27l.4-.27c3.52,4.89,7.31,10.02,11.36,15.39l-12.17,10.28-.81-.81v-.81c-.18-.54-.45-.81-.81-.81l-1.21.13-1.21-.94.13-.81-.67-.81-.81.54-1.75-1.61-2.15,1.88.94,1.75-.4,1.21.54.67.67-.27,1.08,1.48-.4,1.08.81.94.81-.27.94,1.61-1.88,1.61c-.99-.54-2.02-.81-3.09-.81-1.61,0-2.96.54-4.04,1.61-1.26,1.25-1.84,2.73-1.75,4.44,0,1.7.49,3.14,1.48,4.3,1.17,1.16,2.6,1.75,4.3,1.75,1.7.09,3.18-.58,4.44-2.02,1.26-1.34,1.75-2.69,1.48-4.03l-.27-2.02,2.15-1.75,1.35,1.21-.54.81.67.67.81-.13,1.61,1.34-.4.67.67.67,1.48-.4,1.61,1.34,2.56-2.02-1.48-2.28.54-.67-.54-.81-.67.27-.81-1.21c.36-.72.4-1.3.13-1.75-.36-.45-.94-.58-1.75-.4l-.94-.94,12.09-10.28c5,6.57,10.39,13.49,16.15,20.76l2.96,2.02,1.61.13,1.48-.27c1.26-1.79,1.08-3.72-.54-5.78-6.56-7.5-12.42-14.27-17.59-20.33l1.85-1.57c6.82-5.64,11.7-9.27,14.66-10.89,1.88-.09,3.68.4,5.38,1.48.99,2.51,1.26,4.39.81,5.64-.99-.72-2.02-1.25-3.09-1.61,1.08,3.14-.27,6.09-4.04,8.87,4.93.63,8.97-1.08,12.11-5.11-1.79-.18-2.69-.54-2.69-1.08Zm-50.58,27.82c-.54.63-1.3.94-2.29.94s-1.84-.36-2.56-1.08c-.81-.72-1.21-1.48-1.21-2.28s.31-1.57.94-2.28c.54-.72,1.12-1.08,1.75-1.08.81,0,1.12.18.94.54-.09.63.09,1.34.54,2.15l1.75.54c.45-.18.67-.09.67.27.18.9,0,1.66-.54,2.28Z"/>
  <path class="cls-1" d="m356.51,637.21h-.1l-3.91-25.03-1.57-10-.74-4.74-1.45-9.29-4.18-26.74-2.88,1.65-3.03.7h-3.16l-3.16-.55-11.41-3.85v.14l-4.67-1.65h-.14l-3.02-.69h-.28l-2.48-.28-.27-.14h-.14l-2.48.14c-2.84,0-5.18.6-7.01,1.78-1.28.74-2.38,1.83-3.3,3.3-1.19-1.28-2.42-2.29-3.71-3.02-2.48-1.46-5.59-2.2-9.34-2.2v.14h-.15l-2.75.28h-.14l-3.02.69h-.13l-6.33,2.06-.28.14-2.88,1.1h-.14l-6.46,2.06-3.16.55h-3.16l-2.88-.7-3.02-1.65-4.1,26.19-1.45,9.29-1.43,9.14-.57,4.03-.66,4.34-.24,1.39-3.49,22c-.1-.02-.2-.03-.29-.06l10.03,8.79,100.87.14,7.48-8.59.77-.19-.08-.59.08-.1Zm-4.25-1.37c-1.7.59-3.55.99-5.55,1.19l-4.9-.1c-1.06,0-2.16-.05-3.29-.14-2.61-.35-5.41-.94-8.39-1.78-4.31-1.38-9.85-3.89-16.62-7.55l-.14-.14h-.55v-.14h-.27l-3.31-.28h-.13l-.14-.14h-3.3l-.28.14h-.14l-2.75.55h-.27l-.28.14-.13.13h-.28l-2.48,1.51-.27.14-.14.28-1.38,1.51-2.06-1.93-.27-.14-2.34-1.38h-.14l-.28-.13h-.28l-.27-.14-2.48-.55h-.28l-.14-.14h-3.57l-.14.14h-.15l-3.15.28h-.14l-.28.14h-.28l-.13.14c-5.5,2.93-10.49,5.04-14.99,6.31-3.84,1.29-8.01,2.15-12.5,2.61l-12.09-.68,6.04-38.72,1.41-9.05,3.41-21.84,2.34.55h4.67l3.17-.55h.55l3.16-1.1h.14l3.16-.96.14-.13h.14l6.18-2.2h.14l2.89-.96,5.36-.96c3.02-.09,5.49.46,7.42,1.65,1.56.92,3.02,2.38,4.4,4.39l1.65,2.75,1.37-2.88c.74-2.2,1.84-3.71,3.31-4.53,1.09-.83,2.84-1.24,5.22-1.24l2.48-.14,5.22.96,9.34,3.16.14.13,3.16.96.14.14,3.3.96h.41l3.17.55h4.4l2.47-.55,3.6,22.53,1.45,9.08.91,5.67.19,1.21,4.98,31.12-.68.14Z"/>
</svg>