<svg width="153" height="153" viewBox="0 0 153 153" fill="none" xmlns="http://www.w3.org/2000/svg">
<path d="M116.766 101.484C128.138 90.7642 135.248 75.5718 135.248 58.7481C135.248 45.3573 130.86 32.745 122.557 22.2746C114.504 12.1184 103.178 4.81828 90.6663 1.72003C89.0651 1.32468 87.444 2.30065 87.0472 3.90267C86.6506 5.50439 87.6275 7.12463 89.2295 7.52148C112.806 13.3594 129.272 34.4247 129.272 58.7481C129.272 87.8465 105.598 111.52 76.5 111.52C47.4016 111.52 23.7285 87.8465 23.7285 58.7481C23.7285 34.425 40.1942 13.3594 63.7702 7.52148C65.3722 7.12463 66.3491 5.50439 65.9526 3.90267C65.556 2.30035 63.9358 1.32408 62.3338 1.72003C49.8218 4.81828 38.4959 12.1184 30.4428 22.2746C22.1405 32.745 17.7522 45.3573 17.7522 58.7481C17.7522 75.5718 24.8628 90.7645 36.2338 101.484L20.5887 131.405C19.8252 132.866 20.3879 134.668 21.8464 135.435L21.954 135.492C22.6216 135.842 23.3971 135.928 24.1256 135.731L45.808 129.861L53.3629 151.016C53.7622 152.134 54.7857 152.91 55.9699 152.992C56.0396 152.997 56.1089 152.999 56.1779 152.999C57.2842 152.999 58.3074 152.386 58.8252 151.396L76.5 117.593L94.1751 151.396C94.693 152.387 95.7161 153 96.8224 153C96.8911 153 96.9608 152.998 97.0304 152.993C98.2147 152.911 99.2381 152.135 99.6374 151.017L107.192 129.861L128.875 135.732C129.603 135.929 130.378 135.843 131.046 135.492L131.154 135.436C132.612 134.669 133.175 132.866 132.411 131.406L116.766 101.484ZM56.6937 142.574L50.507 125.25C49.9826 123.781 48.417 122.962 46.9118 123.37L28.9983 128.22L40.9042 105.45C49.1635 111.76 59.1375 115.932 69.9954 117.134L56.6937 142.574ZM106.088 123.371C104.582 122.963 103.017 123.781 102.493 125.25L96.306 142.574L83.0043 117.134C93.8622 115.933 103.836 111.761 112.096 105.451L124.001 128.221L106.088 123.371Z" fill="#FF0000"/>
<path d="M76.5 5.97656C78.1504 5.97656 79.4883 4.63866 79.4883 2.98828C79.4883 1.3379 78.1504 0 76.5 0C74.8496 0 73.5117 1.3379 73.5117 2.98828C73.5117 4.63866 74.8496 5.97656 76.5 5.97656Z" fill="#FF0000"/>
<path d="M32.6933 58.7481C32.6933 82.9033 52.3448 102.555 76.5 102.555C100.655 102.555 120.307 82.9033 120.307 58.7481C120.307 34.5929 100.655 14.9414 76.5 14.9414C52.3451 14.9414 32.6933 34.5929 32.6933 58.7481ZM114.33 58.7481C114.33 79.6078 97.3597 96.5783 76.5 96.5783C55.6403 96.5783 38.6699 79.6078 38.6699 58.7481C38.6699 37.8884 55.6403 20.918 76.5 20.918C97.3597 20.918 114.33 37.8884 114.33 58.7481Z" fill="#FF0000"/>
<path d="M69.8708 51.5727C66.0617 48.4221 60.3995 48.9588 57.2489 52.7686C54.0993 56.578 54.6357 62.2399 58.4451 65.3899L67.6075 72.9664C69.3942 74.4438 71.5532 75.1738 73.7045 75.1738C76.1552 75.1738 78.5957 74.2265 80.4634 72.3591L95.1819 57.6404C98.6773 54.145 98.6773 48.4577 95.1819 44.962C93.4884 43.2688 91.2373 42.3362 88.8428 42.3362C86.4483 42.3362 84.1969 43.2688 82.5041 44.962L73.1675 54.2983L69.8708 51.5727ZM75.4706 60.4467L86.7295 49.188C87.294 48.6235 88.0441 48.3124 88.8422 48.3124C89.6404 48.3124 90.3908 48.6235 90.9552 49.188C92.1204 50.3528 92.1204 52.2489 90.9552 53.414L76.2368 68.1328C74.9216 69.4477 72.8489 69.5454 71.4161 68.3608H71.4158L62.2534 60.7843C60.9837 59.734 60.805 57.8469 61.8551 56.5768C62.3637 55.9615 63.0815 55.5814 63.876 55.5061C63.9723 55.4972 64.0679 55.4927 64.1632 55.4927C64.8559 55.4927 65.5214 55.7312 66.0623 56.1782L71.4534 60.6364C72.641 61.619 74.381 61.5362 75.4706 60.4467Z" fill="#FF0000"/>
</svg>
