<svg width="112.000000" height="112.000000" viewBox="0 0 112 112" fill="none" xmlns="http://www.w3.org/2000/svg" xmlns:xlink="http://www.w3.org/1999/xlink">
	<desc>
			Created with Pixso.
	</desc>
	<defs>
		<clipPath id="clip217_97">
			<rect id="quotation_10426376 1" width="112.000000" height="112.000000" fill="white" fill-opacity="0"/>
		</clipPath>
	</defs>
	<rect id="quotation_10426376 1" width="112.000000" height="112.000000" fill="#FFFFFF" fill-opacity="0"/>
	<g clip-path="url(#clip217_97)">
		<path id="Vector" d="M25.12 68.04C14.13 65.91 5.83 56.23 5.83 44.63C5.83 31.47 16.51 20.79 29.67 20.79C42.83 20.79 53.51 31.47 53.51 44.63C53.51 62.16 47.6 73.06 40.67 79.87C30.05 90.29 16.76 91.2 16.76 91.2C15.4 91.29 14.12 90.6 13.46 89.42C12.79 88.24 12.87 86.78 13.65 85.68C13.65 85.68 19.97 76.79 23.91 70.21C24.32 69.51 24.74 68.75 25.12 68.04ZM29.67 27.79C20.37 27.79 12.83 35.33 12.83 44.63C12.83 53.92 20.37 61.47 29.67 61.47C30.99 61.47 31.91 62.01 32.59 62.79C33.15 63.44 33.68 64.48 33.5 66.02C33.34 67.35 31.98 70.35 29.92 73.8C28.35 76.42 26.42 79.38 24.64 82.05C28.08 80.68 32.12 78.46 35.77 74.87C41.7 69.04 46.51 59.64 46.51 44.63C46.51 35.33 38.97 27.79 29.67 27.79Z" fill="#FF0000" fill-opacity="1.000000" fill-rule="evenodd"/>
		<path id="Vector" d="M77.76 68.04C66.78 65.91 58.48 56.23 58.48 44.63C58.48 31.47 69.16 20.79 82.32 20.79C95.48 20.79 106.16 31.47 106.16 44.63C106.16 62.16 100.25 73.06 93.32 79.87C82.7 90.29 69.41 91.2 69.41 91.2C68.05 91.29 66.77 90.6 66.11 89.42C65.44 88.24 65.52 86.78 66.3 85.68C66.3 85.68 72.62 76.79 76.56 70.21C76.97 69.51 77.39 68.75 77.76 68.04ZM82.32 27.79C73.02 27.79 65.48 35.33 65.48 44.63C65.48 53.92 73.02 61.47 82.32 61.47C83.64 61.47 84.56 62.01 85.24 62.79C85.8 63.44 86.33 64.48 86.15 66.02C85.99 67.35 84.63 70.35 82.57 73.8C81 76.42 79.07 79.38 77.28 82.05C80.73 80.68 84.76 78.46 88.41 74.87C94.35 69.04 99.16 59.64 99.16 44.63C99.16 35.33 91.62 27.79 82.32 27.79Z" fill="#FF0000" fill-opacity="1.000000" fill-rule="evenodd"/>
	</g>
</svg>
