<svg width="112.000000" height="112.000000" viewBox="0 0 112 112" fill="none" xmlns="http://www.w3.org/2000/svg" xmlns:xlink="http://www.w3.org/1999/xlink">
	<desc>
			Created with Pixso.
	</desc>
	<defs>
		<clipPath id="clip217_101">
			<rect id="quotation_10426376 2" width="112.000000" height="112.000000" transform="translate(112.000000 112.000000) rotate(179.999985)" fill="white" fill-opacity="0"/>
		</clipPath>
	</defs>
	<rect id="quotation_10426376 2" width="112.000000" height="112.000000" transform="translate(112.000000 112.000000) rotate(179.999985)" fill="#FFFFFF" fill-opacity="0"/>
	<g clip-path="url(#clip217_101)">
		<path id="Vector" d="M86.87 43.96C97.86 46.08 106.16 55.76 106.16 67.36C106.16 80.52 95.48 91.21 82.32 91.21C69.16 91.21 58.48 80.52 58.48 67.36C58.48 49.83 64.39 38.93 71.32 32.12C81.94 21.7 95.23 20.79 95.23 20.79C96.59 20.7 97.87 21.39 98.53 22.57C99.2 23.75 99.12 25.21 98.34 26.31C98.34 26.31 92.02 35.21 88.08 41.79C87.67 42.48 87.25 43.24 86.87 43.96ZM82.32 84.21C91.62 84.21 99.16 76.66 99.16 67.36C99.16 58.07 91.62 50.52 82.32 50.52C81 50.52 80.08 49.98 79.4 49.21C78.84 48.55 78.31 47.51 78.49 45.97C78.65 44.64 80.01 41.64 82.07 38.19C83.64 35.57 85.57 32.61 87.36 29.94C83.91 31.31 79.87 33.53 76.23 37.12C70.29 42.95 65.48 52.36 65.48 67.36C65.48 76.66 73.02 84.21 82.32 84.21Z" fill="#FF0000" fill-opacity="1.000000" fill-rule="evenodd"/>
		<path id="Vector" d="M34.23 43.96C45.21 46.08 53.51 55.76 53.51 67.36C53.51 80.52 42.83 91.21 29.67 91.21C16.51 91.21 5.83 80.52 5.83 67.36C5.83 49.83 11.74 38.93 18.67 32.12C29.29 21.7 42.58 20.79 42.58 20.79C43.94 20.7 45.22 21.39 45.88 22.57C46.54 23.75 46.47 25.21 45.69 26.31C45.69 26.31 39.37 35.21 35.43 41.79C35.02 42.48 34.6 43.24 34.23 43.96ZM29.67 84.21C38.97 84.21 46.51 76.66 46.51 67.36C46.51 58.07 38.97 50.52 29.67 50.52C28.35 50.52 27.43 49.98 26.75 49.21C26.19 48.55 25.66 47.51 25.84 45.97C26 44.64 27.36 41.64 29.42 38.19C30.99 35.57 32.92 32.61 34.71 29.94C31.26 31.31 27.23 33.53 23.58 37.12C17.64 42.95 12.83 52.36 12.83 67.36C12.83 76.66 20.37 84.21 29.67 84.21Z" fill="#FF0000" fill-opacity="1.000000" fill-rule="evenodd"/>
	</g>
</svg>
