<svg xmlns="http://www.w3.org/2000/svg" viewBox="0 0 414.25 411.14">
    <defs>
        <style>.cls-1{fill:#fff;}</style>
    </defs>
    <g id="Слой_2">
        <g id="Слой_1-2">
            <polygon class="cls-1"
                     points="126.92 353.35 124.68 352.03 119.53 360.96 116.02 358.9 121.17 349.97 118.93 348.65 112.58 359.65 120.57 364.35 126.92 353.35"/>
            <polygon class="cls-1"
                     points="112.79 344.6 106.13 339.8 104.77 341.73 109.33 345.02 107.69 347.34 103.72 344.48 102.36 346.41 106.33 349.26 104.72 351.53 100.22 348.28 98.85 350.21 105.46 354.97 112.79 344.6"/>
            <polygon class="cls-1"
                     points="96.95 332.23 90.31 340.05 87.92 337.99 86.35 339.84 93.12 345.69 94.69 343.84 92.29 341.76 98.93 333.95 96.95 332.23"/>
            <polygon class="cls-1"
                     points="89.77 325.6 84.05 319.69 82.37 321.34 86.29 325.39 84.26 327.38 80.86 323.87 79.18 325.52 82.58 329.03 80.61 330.98 76.74 326.98 75.07 328.63 80.73 334.49 89.77 325.6"/>
            <path class="cls-1"
                  d="M69.7,322.53l9.81-8-1.64-2-3,2.44L74,313.76a5,5,0,0,0-3-1.93,4.06,4.06,0,0,0-3.37,1,4.18,4.18,0,0,0-1.7,3,4.78,4.78,0,0,0,1.22,3.38Zm-.45-7.63a2,2,0,0,1,1.49-.51,2,2,0,0,1,1.36.82l1,1.2L69.9,319l-1-1.19a2.13,2.13,0,0,1-.55-1.52A2,2,0,0,1,69.25,314.9Z"/>
            <path class="cls-1"
                  d="M70.12,302.32l-2.68-4.06a4.65,4.65,0,0,0-2.61-2,3.7,3.7,0,0,0-3.16.65,3.84,3.84,0,0,0-1.8,2.59,4.48,4.48,0,0,0,.83,3.2l1.3,2-1.84,1.25L57,301.06l-2,1.34,4.61,7Zm-7.76-2.23a1.68,1.68,0,0,1,.8-1.07,1.59,1.59,0,0,1,1.23-.3,1.66,1.66,0,0,1,1,.77l1.29,2L64,303.3l-1.28-1.93A1.78,1.78,0,0,1,62.36,300.09Z"/>
            <path class="cls-1"
                  d="M51,295.79l6.27-8.21a1.75,1.75,0,0,1,1.75.79,3,3,0,0,1,.28,1.11l2.06-.18a3.75,3.75,0,0,0-.48-2.1,3.67,3.67,0,0,0-1.77-1.76,6.3,6.3,0,0,0-2.92-.24l-10.31,1,1.31,2.45,6.72-.79-4.26,5.42Z"/>
            <path class="cls-1"
                  d="M42.76,279.39l11.63-4.94-1-2.41-3.53,1.5-.58-1.38a5.09,5.09,0,0,0-2.38-2.71,4.1,4.1,0,0,0-3.52.05,4.17,4.17,0,0,0-2.47,2.41,4.84,4.84,0,0,0,.24,3.59Zm.47-6.36a2.08,2.08,0,0,1,1.21-1.1,1.88,1.88,0,0,1,2.65,1.1l.59,1.43-3.75,1.59-.59-1.41A2.13,2.13,0,0,1,43.23,273Z"/>
            <polygon class="cls-1"
                     points="48.77 260.07 47.97 257.57 38.22 260.74 36.72 256.01 34.45 256.74 36.75 263.97 48.77 260.07"/>
            <path class="cls-1"
                  d="M33.75,247.9a6.65,6.65,0,0,0,4.89.55l.16,0A6.67,6.67,0,0,0,43,245.83a5.28,5.28,0,0,0,.84-4.34,5.8,5.8,0,0,0-.93-2.19,6,6,0,0,0-1.64-1.5l-1.57,1.65a4.14,4.14,0,0,1,1.72,2.38,2.76,2.76,0,0,1-.55,2.44,4.52,4.52,0,0,1-2.66,1.49l-.17,0a4.42,4.42,0,0,1-3-.2,2.71,2.71,0,0,1-1.52-1.93,4.07,4.07,0,0,1,.51-2.84l-2.33-.74a5.67,5.67,0,0,0-.55,4.17A5.35,5.35,0,0,0,33.75,247.9Z"/>
            <polygon class="cls-1"
                     points="29.07 232.47 41.59 230.85 41.26 228.25 37.57 228.73 35.96 227.75 40.71 223.94 40.32 220.86 33.66 226.21 27.82 222.65 28.22 225.75 34.14 229.17 28.74 229.87 29.07 232.47"/>
            <polygon class="cls-1"
                     points="27.26 214.99 39.88 214.62 39.81 212.2 31.76 207.83 39.67 207.6 39.6 205.02 26.98 205.38 27.05 207.82 34.99 212.18 27.18 212.4 27.26 214.99"/>
            <polygon class="cls-1"
                     points="27.17 196.75 39.76 197.67 39.93 195.25 32.36 190.09 40.26 190.66 40.44 188.09 27.85 187.17 27.68 189.6 35.14 194.74 27.35 194.18 27.17 196.75"/>
            <path class="cls-1"
                  d="M23.82,192.93l.17,1.51a3,3,0,0,0,2-.76,2.77,2.77,0,0,0,.79-1.85,2.7,2.7,0,0,0-.52-1.91,3,3,0,0,0-1.84-1L24,190.34a1.3,1.3,0,0,1,1.06,1.37A1.28,1.28,0,0,1,23.82,192.93Z"/>
            <polygon class="cls-1"
                     points="32.34 161.07 30.69 168.47 43 171.28 43.57 168.72 33.58 166.45 34.66 161.6 32.34 161.07"/>
            <path class="cls-1"
                  d="M38.74,145.19a5.26,5.26,0,0,0-3,3.35,5.38,5.38,0,0,0,.42,4.51,6.69,6.69,0,0,0,3.9,3l.2.07a6.62,6.62,0,0,0,4.87-.08,5.67,5.67,0,0,0,2.54-7.87,6.73,6.73,0,0,0-3.89-3l-.2-.07A6.57,6.57,0,0,0,38.74,145.19Zm4.06,2.5.21.07a4.72,4.72,0,0,1,2.51,1.7,2.65,2.65,0,0,1,.34,2.42,2.61,2.61,0,0,1-1.71,1.74,4.62,4.62,0,0,1-3-.12l-.2-.06a4.65,4.65,0,0,1-2.51-1.71,2.75,2.75,0,0,1,1.37-4.16A4.72,4.72,0,0,1,42.8,147.69Z"/>
            <path class="cls-1"
                  d="M47,129.61l-1.43-2a5.63,5.63,0,0,0-2.91,3,5.39,5.39,0,0,0,0,4.51,6.72,6.72,0,0,0,3.59,3.39l.15.06a6.61,6.61,0,0,0,4.88.45,5.18,5.18,0,0,0,3.24-3,5.89,5.89,0,0,0,.56-2.31,6,6,0,0,0-.43-2.19l-2.23.37a4.18,4.18,0,0,1,0,2.95,2.73,2.73,0,0,1-1.88,1.62,4.51,4.51,0,0,1-3-.42l-.17-.07a4.54,4.54,0,0,1-2.29-2,2.78,2.78,0,0,1-.07-2.48A4.07,4.07,0,0,1,47,129.61Z"/>
            <path class="cls-1"
                  d="M47.5,120.88l10.23,1a1.79,1.79,0,0,1,.28,1.92,3.08,3.08,0,0,1-.78.83l1.25,1.65a3.58,3.58,0,0,0,1.5-1.53,3.62,3.62,0,0,0,.53-2.44,6.48,6.48,0,0,0-1.36-2.63l-6.33-8.26-1.36,2.42,4.26,5.31-6.82-.73Z"/>
            <path class="cls-1"
                  d="M57.45,104.11l1.28.91a33.68,33.68,0,0,1,4,3.18,16.28,16.28,0,0,1,2.41,2.89l-.57.82,3.88,2.75,1.28-1.84-1.79-1.58,3.8-5.45,1.93,1.37,1.25-1.8-3.69-3-.75,1.07-8.38-5.94ZM69,105.56l-2.31,3.31a14.79,14.79,0,0,0-2.18-2.58A34.38,34.38,0,0,0,61,103.53l-.16-.11L62.53,101Z"/>
            <path class="cls-1"
                  d="M69.78,87.58l6.68,11.8,1.71-2L76.7,94.86l2.82-3.31,2.69,1.09L84,90.58,71.4,85.68Zm7.48,3.06-1.8,2.11L73.24,89Z"/>
            <path class="cls-1"
                  d="M90.32,77.14a4.73,4.73,0,0,0-4.41-4.76,4.68,4.68,0,0,0-3.24,1.5l-3,2.92L88.38,86l1.88-1.81-2.66-2.8,1.07-1A5,5,0,0,0,90.32,77.14Zm-3.23,1.47L86,79.68l-2.82-3,1.09-1.06A2.11,2.11,0,0,1,85.71,75a2.08,2.08,0,0,1,1.38,3.63Z"/>
            <path class="cls-1"
                  d="M97.36,64a4.06,4.06,0,0,1,2.76-.76l-.35-2.44a5.56,5.56,0,0,0-4,1.31,5.36,5.36,0,0,0-2.12,4,6.76,6.76,0,0,0,1.63,4.68l.1.13a6.75,6.75,0,0,0,4.11,2.68,5.1,5.1,0,0,0,4.24-1.12,5.8,5.8,0,0,0,1.56-1.79,6,6,0,0,0,.63-2.14l-2.15-.72a4.18,4.18,0,0,1-1.39,2.6A2.7,2.7,0,0,1,100,71a4.58,4.58,0,0,1-2.47-1.78l-.12-.14a4.6,4.6,0,0,1-1.12-2.82A2.78,2.78,0,0,1,97.36,64Z"/>
            <polygon class="cls-1"
                     points="112.29 50.72 104.83 55.62 106.15 57.66 108.79 55.93 114.37 64.55 116.56 63.11 110.98 54.49 113.61 52.76 112.29 50.72"/>
            <path class="cls-1"
                  d="M128.31,45.56a2.92,2.92,0,0,0-2.15-1.64,4.76,4.76,0,0,0-3.06.65L119,46.76,124.86,58l4.24-2.26a5.51,5.51,0,0,0,2.52-2.37,3,3,0,0,0-.11-2.88l0-.07a2.87,2.87,0,0,0-1.39-1.39,4.11,4.11,0,0,0-2-.23A3,3,0,0,0,128.31,45.56Zm-6,2.07,1.71-.91c1-.56,1.78-.41,2.23.44s.11,1.58-1,2.18l-1.6.84Zm6.79,3.85a1.31,1.31,0,0,1,.07,1.21,2.34,2.34,0,0,1-1.06,1L126,54.77l-1.39-2.65,2-1.06C127.79,50.44,128.61,50.58,129.08,51.48Z"/>
            <polygon class="cls-1"
                     points="141.87 35.91 134.37 39.04 139.2 50.81 146.76 47.65 145.87 45.47 140.69 47.63 139.6 44.99 144.1 43.11 143.21 40.93 138.71 42.81 137.65 40.23 142.77 38.1 141.87 35.91"/>
            <polygon class="cls-1"
                     points="151.97 32.36 149.49 33.13 153.2 45.3 155.68 44.53 154.17 39.58 158.16 38.34 159.66 43.3 162.15 42.53 158.44 30.36 155.96 31.13 157.44 36.02 153.46 37.25 151.97 32.36"/>
            <polygon class="cls-1"
                     points="169.26 27.73 166.72 28.24 169.21 40.73 171.76 40.21 170.74 35.13 174.83 34.3 175.84 39.38 178.39 38.86 175.89 26.38 173.35 26.89 174.35 31.91 170.27 32.74 169.26 27.73"/>
            <path class="cls-1"
                  d="M193,35.91a4,4,0,0,0,1-3.26,4,4,0,0,0-1.46-3,4.53,4.53,0,0,0-3.33-.83L187.4,29,187,24.8l-2.59.23,1.14,12.69,4.31-.4A4.77,4.77,0,0,0,193,35.91ZM188,35.13l-.34-3.74,1.8-.16a1.89,1.89,0,0,1,1.41.35,1.86,1.86,0,0,1,.62,1.36,1.81,1.81,0,0,1-.37,1.4,1.84,1.84,0,0,1-1.31.62Z"/>
            <polygon class="cls-1" points="197.02 23.89 194.44 24.12 195.57 36.8 198.16 36.57 197.02 23.89"/>
            <polygon class="cls-1"
                     points="205.41 36.39 207.81 36.44 212.51 28.54 212.37 36.53 214.93 36.58 215.16 23.84 212.75 23.8 208.06 31.59 208.2 23.71 205.64 23.66 205.41 36.39"/>
            <path class="cls-1"
                  d="M210.49,23a2.58,2.58,0,0,0,1.87-.63,3,3,0,0,0,.92-1.9l-1.46-.3c-.2.77-.64,1.15-1.3,1.14a1.27,1.27,0,0,1-1.27-1.19l-1.49.25a3,3,0,0,0,.86,1.93A2.68,2.68,0,0,0,210.49,23Z"/>
            <path class="cls-1"
                  d="M233.62,36.47a2.73,2.73,0,0,1-1-.46l-1.13,1.74a3.6,3.6,0,0,0,1.93.91,3.54,3.54,0,0,0,2.46-.3,6.47,6.47,0,0,0,2-2.17l5.62-8.78-2.72-.48-3.54,5.82L235.61,26l-2.81-.5,2.52,10.05A1.75,1.75,0,0,1,233.62,36.47Z"/>
            <polygon class="cls-1"
                     points="250.73 29.12 247.34 41.38 249.84 42.09 251.22 37.1 255.23 38.23 253.85 43.22 256.35 43.93 259.75 31.66 257.25 30.96 255.88 35.88 251.87 34.75 253.23 29.83 250.73 29.12"/>
            <polygon class="cls-1"
                     points="267.87 34.41 263.27 46.26 265.5 47.15 272.64 41.39 269.75 48.83 272.13 49.77 276.74 37.91 274.49 37.02 267.41 42.68 270.26 35.35 267.87 34.41"/>
            <path class="cls-1"
                  d="M290.87,48.47a2.93,2.93,0,0,0,.09-2.71,4.88,4.88,0,0,0-2.29-2.16l-4.16-2.14L278.78,52.8,283.05,55a5.49,5.49,0,0,0,3.37.71A3,3,0,0,0,288.69,54l0-.06a2.94,2.94,0,0,0,.33-1.95,4.24,4.24,0,0,0-1-1.79A2.92,2.92,0,0,0,290.87,48.47Zm-4.36,4.05a1.28,1.28,0,0,1-.93.75,2.28,2.28,0,0,1-1.42-.31l-2.07-1.06,1.35-2.68,2,1C286.62,50.86,287,51.61,286.51,52.52Zm1.86-4.84c-.43.86-1.21,1-2.34.43l-1.6-.83,1.3-2.58,1.72.89C288.5,46.13,288.81,46.83,288.37,47.68Z"/>
            <polygon class="cls-1"
                     points="292.89 60.48 299.81 64.9 301.06 62.9 296.32 59.88 297.83 57.46 301.95 60.09 303.2 58.09 299.09 55.47 300.56 53.11 305.24 56.1 306.49 54.1 299.64 49.72 292.89 60.48"/>
            <path class="cls-1"
                  d="M309.83,67.39l1.17.91a5,5,0,0,0,3.4,1.16,4.14,4.14,0,0,0,3-1.8,4.29,4.29,0,0,0,1-3.33,4.82,4.82,0,0,0-2-3l-3.33-2.57-7.67,10.11,2.06,1.6Zm3.9-5.14,1.2.93a1.88,1.88,0,0,1,.39,2.91,1.9,1.9,0,0,1-2.85.36l-1.22-.94Z"/>
            <path class="cls-1"
                  d="M325.7,71.13a6.59,6.59,0,0,0-4.33,2.34l-.11.12a6.78,6.78,0,0,0-2,4.51A5.22,5.22,0,0,0,321,82.16a5.93,5.93,0,0,0,2,1.27,6,6,0,0,0,2.2.3l.37-2.25a4.09,4.09,0,0,1-2.76-1,2.77,2.77,0,0,1-.92-2.32,4.62,4.62,0,0,1,1.36-2.74l.13-.14A4.46,4.46,0,0,1,326,73.74a2.71,2.71,0,0,1,2.35.73,4.16,4.16,0,0,1,1.17,2.63l2.33-.72a5.63,5.63,0,0,0-1.89-3.75A5.22,5.22,0,0,0,325.7,71.13Z"/>
            <polygon class="cls-1"
                     points="338.26 81.2 328.82 89.66 330.42 91.47 339.36 89.61 333.44 94.91 335.14 96.84 344.58 88.39 342.98 86.57 334.12 88.37 339.96 83.14 338.26 81.2"/>
            <polygon class="cls-1"
                     points="342.65 106.7 350.89 100.63 352.74 103.18 354.69 101.74 349.43 94.48 347.48 95.92 349.35 98.49 341.11 104.57 342.65 106.7"/>
            <polygon class="cls-1"
                     points="348.12 114.81 352.34 121.89 354.35 120.67 351.46 115.82 353.89 114.35 356.4 118.56 358.4 117.34 355.89 113.13 358.26 111.69 361.11 116.48 363.12 115.26 358.94 108.25 348.12 114.81"/>
            <polygon class="cls-1"
                     points="357.77 132.53 366.95 128.03 368.32 130.88 370.5 129.82 366.61 121.73 364.43 122.8 365.81 125.66 356.63 130.16 357.77 132.53"/>
            <polygon class="cls-1"
                     points="365.09 150.5 365.86 153 375.64 149.93 376.85 153.84 367.07 156.91 367.84 159.41 379.89 155.63 377.14 146.72 365.09 150.5"/>
            <path class="cls-1"
                  d="M381.79,162.87,373.46,169c-.84-.23-1.33-.65-1.45-1.26a3,3,0,0,1,0-1.14l-2-.41a3.73,3.73,0,0,0-.13,2.14,3.61,3.61,0,0,0,1.2,2.2,6.48,6.48,0,0,0,2.74,1.07l10.15,2-.56-2.72-6.67-1.17,5.61-4Z"/>
            <polygon class="cls-1"
                     points="382.61 180.46 382.96 183.63 372.82 184.79 373.12 187.41 383.26 186.25 383.62 189.39 386.02 189.12 385.01 180.19 382.61 180.46"/>
            <polygon class="cls-1"
                     points="386.53 196.86 373.91 197.18 374.12 205.43 376.46 205.38 376.32 199.72 379.15 199.65 379.27 204.56 381.61 204.5 381.49 199.59 384.25 199.52 384.39 205.1 386.73 205.04 386.53 196.86"/>
            <path class="cls-1"
                  d="M389.93,217l-.17-1.51a3,3,0,0,0-2,.77,2.77,2.77,0,0,0-.79,1.85,2.71,2.71,0,0,0,.53,1.91,3,3,0,0,0,1.83,1l.38-1.45a1.31,1.31,0,0,1,.18-2.6Z"/>
            <polygon class="cls-1"
                     points="386.58 213.23 373.98 212.34 373.82 214.75 381.39 219.9 373.5 219.34 373.32 221.92 385.91 222.81 386.08 220.38 378.61 215.25 386.4 215.81 386.58 213.23"/>
            <path class="cls-1"
                  d="M378.05,248.61l1.78,1.68a5.6,5.6,0,0,0,2.28-3.52,5.35,5.35,0,0,0-.81-4.45,6.62,6.62,0,0,0-4.16-2.62l-.16,0a6.64,6.64,0,0,0-4.87.51,5.14,5.14,0,0,0-2.62,3.54,5.93,5.93,0,0,0-.11,2.38,6.1,6.1,0,0,0,.84,2.06l2.12-.79a4.14,4.14,0,0,1-.52-2.9,2.72,2.72,0,0,1,1.53-2,4.51,4.51,0,0,1,3-.18l.18,0a4.54,4.54,0,0,1,2.62,1.5,2.76,2.76,0,0,1,.54,2.41A4.18,4.18,0,0,1,378.05,248.61Z"/>
            <path class="cls-1"
                  d="M374.4,266.77a5.24,5.24,0,0,0,3-3.33,5.34,5.34,0,0,0-.38-4.51,6.68,6.68,0,0,0-3.87-3l-.2-.07a6.59,6.59,0,0,0-4.87,0,5.64,5.64,0,0,0-2.61,7.84,6.7,6.7,0,0,0,3.85,3l.21.07A6.59,6.59,0,0,0,374.4,266.77Zm-4-2.55-.21-.07a4.65,4.65,0,0,1-2.49-1.73,2.76,2.76,0,0,1,1.41-4.15,4.77,4.77,0,0,1,3.05.15l.2.07a4.78,4.78,0,0,1,2.5,1.73,2.66,2.66,0,0,1,.31,2.43,2.61,2.61,0,0,1-1.73,1.72A4.61,4.61,0,0,1,370.36,264.22Z"/>
            <path class="cls-1"
                  d="M367,284.31a5.26,5.26,0,0,0,3.33-3,5.36,5.36,0,0,0,.1-4.53,6.75,6.75,0,0,0-3.52-3.43l-.2-.09a6.6,6.6,0,0,0-4.84-.49,5.29,5.29,0,0,0-3.35,3,5.35,5.35,0,0,0-.08,4.51,6.72,6.72,0,0,0,3.51,3.43l.2.09A6.58,6.58,0,0,0,367,284.31Zm-4-3.06a4.73,4.73,0,0,1-2.3-2,2.75,2.75,0,0,1,1.85-4,4.61,4.61,0,0,1,3,.47l.19.09a4.7,4.7,0,0,1,2.3,2,2.63,2.63,0,0,1,.06,2.44,2.6,2.6,0,0,1-1.9,1.53,4.66,4.66,0,0,1-3-.47Z"/>
            <path class="cls-1"
                  d="M359.67,300.88l4.23-7.22L353,287.18l-2.46,4.2a4.67,4.67,0,0,0-.69,3.25,4.29,4.29,0,0,0,5.05,3.1,4.37,4.37,0,0,0,2.49-2.14l1.19-2,1.91,1.14-2.91,5Zm-4.26-6.53a1.71,1.71,0,0,1-1,.85,1.69,1.69,0,0,1-1.87-2.54l1.18-2,2.86,1.7Z"/>
            <polygon class="cls-1"
                     points="353.31 310.56 354.88 308.47 344.81 300.79 336.46 311.93 334.57 310.5 333.27 312.24 336.86 315.38 337.63 314.35 345.8 320.58 347.37 318.5 339.19 312.26 341.39 309.33 349.56 315.56 351.13 313.47 342.96 307.24 345.14 304.32 353.31 310.56"/>
            <polygon class="cls-1"
                     points="334.23 333.34 339.82 327.4 330.66 318.63 325.03 324.62 326.73 326.25 330.59 322.15 332.64 324.12 329.29 327.68 330.99 329.31 334.34 325.74 336.34 327.66 332.53 331.71 334.23 333.34"/>
            <polygon class="cls-1"
                     points="326.44 340.73 328.39 339.01 320.11 329.4 318.15 331.12 321.52 335.03 318.38 337.79 315.01 333.88 313.05 335.6 321.34 345.2 323.3 343.49 319.97 339.63 323.11 336.87 326.44 340.73"/>
            <polygon class="cls-1"
                     points="314.61 350.54 307.32 340.14 305.36 341.54 306.21 350.72 301.64 344.19 299.55 345.69 306.83 356.09 308.81 354.68 308.01 345.6 312.52 352.03 314.61 350.54"/>
            <path class="cls-1"
                  d="M288,352.68l-2.28,1.3L292,365.05l2.35-1.34c.7-.41,1.39-.82,2.06-1.25a4.5,4.5,0,0,0,2.06-2.52,3.89,3.89,0,0,0-.49-3.11,3.75,3.75,0,0,0-3.91-2.17v-5.44l-2.58,1.48,0,4.8-1.43.81Zm4.92,4.66a2.09,2.09,0,0,1,1.51-.29,1.78,1.78,0,0,1,1.14.93,2.9,2.9,0,0,1,.3.77,1.17,1.17,0,0,1-.05.67,3.36,3.36,0,0,1-.29.54,2.42,2.42,0,0,1-.56.52c-.27.2-.49.35-.67.46l-.82.48-.42.24-1.88-3.32Z"/>
            <path class="cls-1"
                  d="M230.53,368.59a14.92,14.92,0,0,0-.74-12.13,9.26,9.26,0,0,1-.21-3.9l-4.12-.85a8.63,8.63,0,0,0-1.57-.92c-2.35-1.1-5.55-1.43-9.62-1V347.6a13.59,13.59,0,0,0-4.46,4,9.85,9.85,0,0,0-1.67,5q3.06-3.37,7.82-1.37a3.67,3.67,0,0,0-1.8-3.27,4.55,4.55,0,0,1,5,1.58,5,5,0,0,1,.32,4.54q-2.22,3.59-9.82,10.23l-1,.86q-5.67-6.67-9.76-11.72l.31-1.06-2.64-2.85-.84.11-1.37-1.59-1.59.32-.84,1.16,1.26,1.79q-3.9,2.85-11.19,3.17,1.8,8.55,10.45,12.24a49.83,49.83,0,0,1,3.49-10.66.42.42,0,0,1,.42-.21l.32-.21q4.14,5.76,8.92,12.09L196,379.89l-.64-.64v-.63q-.21-.63-.63-.63l-.95.1-.95-.74.1-.63-.53-.63-.63.42-1.37-1.27-1.69,1.48.74,1.37-.32,1,.42.53.53-.21.85,1.16-.32.84.63.74.64-.21.74,1.27-1.48,1.26a5.06,5.06,0,0,0-2.43-.63,4.27,4.27,0,0,0-3.17,1.27,4.38,4.38,0,0,0-1.37,3.48,5,5,0,0,0,1.16,3.37,4.57,4.57,0,0,0,3.38,1.38,4.16,4.16,0,0,0,3.48-1.59,3.55,3.55,0,0,0,1.17-3.16l-.22-1.58,1.69-1.38,1.06.95-.42.64.53.52.63-.1,1.27,1.05-.32.53.53.53,1.16-.32,1.27,1.06,2-1.59-1.16-1.79.42-.53-.42-.63-.53.21-.63-.95a1.4,1.4,0,0,0,.11-1.37,1.29,1.29,0,0,0-1.38-.32l-.74-.74,9.5-8.07q5.88,7.74,12.68,16.3l2.33,1.59,1.26.1,1.16-.21q1.49-2.12-.42-4.54-7.72-8.82-13.81-16l1.46-1.23q8-6.66,11.51-8.55a7.08,7.08,0,0,1,4.22,1.16q1.17,3,.63,4.43a9.22,9.22,0,0,0-2.42-1.27q1.26,3.7-3.17,7a9.8,9.8,0,0,0,9.5-4C231.23,369.3,230.53,369,230.53,368.59Zm-39.71,21.85a2.24,2.24,0,0,1-1.79.74,2.75,2.75,0,0,1-2-.85,2.38,2.38,0,0,1-1-1.79,2.67,2.67,0,0,1,.74-1.8,1.75,1.75,0,0,1,1.37-.84c.63,0,.88.14.74.42a2.75,2.75,0,0,0,.42,1.69l1.37.42c.36-.14.53-.07.53.21A2,2,0,0,1,190.82,390.44Z"/>
            <path class="cls-1"
                  d="M253.81,403.7l-1.14-7.33-1.92-12.32-1.24-7.85-.58-3.72-1.14-7.29L245,347.05l-.45-2.85-2.26,1.29-2.38.54h-2.48l-2.48-.43-9-3v.11l-3.66-1.29h-.11l-2.37-.54h-.22l-1.94-.22-.22-.11h-.11l-1.94.11a9.93,9.93,0,0,0-5.5,1.4,7.46,7.46,0,0,0-2.59,2.59,12.54,12.54,0,0,0-2.91-2.38,14.34,14.34,0,0,0-7.34-1.72v.11h-.11l-2.16.22h-.11l-2.37.54h-.1l-5,1.61-.22.11-2.26.86h-.11l-5.07,1.62-2.48.43H174.6l-2.27-.54L170,344.2l-.45,2.85-2.77,17.71-1.14,7.3-1.12,7.18L164,382.4l-.51,3.41-.19,1.09-1.52,9.53-1.23,7.74-.22,0,5.3,4.65,2.57,2.25,11.17,0,54.92.07,13.1,0,2.23-2.56,3.64-4.18.61-.16-.07-.46.07-.08Zm-3.25-1.07a18.92,18.92,0,0,1-4.36.93l-3.85-.07c-.83,0-1.7,0-2.58-.11a48.56,48.56,0,0,1-6.59-1.4c-1.27-.41-2.67-.94-4.22-1.6q-3.84-1.63-8.83-4.33l-.11-.11h-.43v-.11h-.21l-2.6-.21h-.1l-.11-.11H214l-.22.11h-.11l-2.16.43h-.21l-.22.11-.1.1h-.22l-1.94,1.19-.22.11-.11.21L207.39,399l-1.61-1.51-.21-.11-1.84-1.08h-.11l-.22-.1h-.21l-.21-.11-1.95-.43h-.22l-.1-.11H197.9l-.1.11h-.12l-2.47.21h-.11l-.22.11h-.22l-.1.11a66.7,66.7,0,0,1-9.65,4.29c-.72.24-1.43.47-2.11.67a44.94,44.94,0,0,1-9.82,2l-9.5-.53.87-5.54,3.87-24.86,1.11-7.11L172,347.87l1.83.43h3.67l2.48-.43h.43l2.48-.87H183l2.48-.76.11-.1h.11l4.85-1.73h.11l2.27-.75,4.21-.76a10.4,10.4,0,0,1,5.83,1.3,11.36,11.36,0,0,1,3.45,3.44l1.29,2.16,1.08-2.26a6.08,6.08,0,0,1,2.59-3.56,6.93,6.93,0,0,1,4.1-1l1.94-.11,4.1.76,7.34,2.48.11.1,2.48.76.11.11,2.59.76h.32l2.48.43h3.46l1.93-.43,2.83,17.69,1.14,7.12.71,4.45.16.95,3,18.84.89,5.6Z"/>
            <path class="cls-1"
                  d="M91.16,109.8l-.72-.94-3.36-4.78a155.84,155.84,0,0,0-.79,199.23l.49-.77,3.41-5.4a149,149,0,0,1,1-187.34Z"/>
            <path class="cls-1"
                  d="M326.31,104.44c-.23.52-3,5-3.8,6.07a149,149,0,0,1,3.13,183.1h8.56a155.88,155.88,0,0,0-7.89-189.17Z"/>
            <path class="cls-1"
                  d="M206.55,48.3A155.46,155.46,0,0,0,90.71,99.89H100a149,149,0,0,1,213.32.31h9.31A155.49,155.49,0,0,0,206.55,48.3Z"/>
            <path class="cls-1"
                  d="M195.9,286.89h10.87l22.79-41.76-16.08.12-5,8.91h2.78a1.71,1.71,0,0,1,1.62.81,2,2,0,0,1-.35,1.85Z"/>
            <path class="cls-1"
                  d="M222,286.2h13.19a11.83,11.83,0,0,0,4.74-1,7.48,7.48,0,0,0,3.35-2.89l1.51-2.32,5.32-10.06a6.14,6.14,0,0,0,.92-3.24,4.07,4.07,0,0,0-2.19-2.43l1.73-.69a5.3,5.3,0,0,0,3-2.32l6-10.18.7-1.5a3.42,3.42,0,0,0-1.39-3.59,6.59,6.59,0,0,0-4.28-1.5l-16.19.35q-1.17.57-3,3.81l-5.55,10.3a5.06,5.06,0,0,0-.58,2.77,2,2,0,0,0,1.73,2.09,7.2,7.2,0,0,0-4.39,1.27,11.31,11.31,0,0,0-3,3.7l-5.32,10.07c-1,1.92-1.24,3.58-.7,5Q218.57,286.2,222,286.2Zm16.77-26.84,3.36-6,.58-.35.57-.23.58-.12h3.59c.31,0,.46.19.46.58l-.11.81-3.13,5.55L243.32,261l-.34.12-3.47-.12-.7-.69A2.09,2.09,0,0,1,238.81,259.36Zm-9.71,18.39.57-1.62,3.47-6.47c.93-1.85,1.62-2.82,2.09-2.9l5.55.12c.62.08.85.42.69,1l-6.24,11a2,2,0,0,1-1.62.58l-4.17-.23A1.77,1.77,0,0,1,229.1,277.75Z"/>
            <path class="cls-1"
                  d="M186.64,193.66q4.28,12.94,3.12,23.36l53.56-95.2,54.14.11q10.07-.57,16.43-5.55,5-4,10.18-13.42l-91.39-.11L195,167.74l-49.51-64.55-24.29-.11L173,169.48A66.8,66.8,0,0,1,186.64,193.66Z"/>
            <path class="cls-1"
                  d="M251.88,285.62a5,5,0,0,0,3.82,1.27h12.5l4.74-.58,2.08-.69a13.33,13.33,0,0,0,4.16-4.86l16-30.42.35-1.16a4.06,4.06,0,0,0-1.05-3.47,5.76,5.76,0,0,0-4-1.27l-12.84.11-4.63.58-2.43.81a13.53,13.53,0,0,0-4.05,5l-14.92,28.8-.81,2.66A3.3,3.3,0,0,0,251.88,285.62Zm13-9.72.35-.92,9.48-18.28a5.17,5.17,0,0,1,1.85-2,3.78,3.78,0,0,1,2.32-.69,2.54,2.54,0,0,1,1.62.46,1.88,1.88,0,0,1,.46,1.39l-.12.35L271,275l-1.62,2.08-2.08.69a2.55,2.55,0,0,1-1.85-.57A1.13,1.13,0,0,1,264.84,275.9Z"/>
            <path class="cls-1"
                  d="M328.7,246.41a5.37,5.37,0,0,0-3.94-1.28l-14.23.35a13,13,0,0,0-5,1.39,14.87,14.87,0,0,0-4.17,4.86l-8.56,15.73-.34,1.16a4.06,4.06,0,0,0,.92,3.35,5.47,5.47,0,0,0,3.7,1H306l-1.27,2.2L303,277.29l-2.54.58H287.63l-5.09,9h18.85a14.5,14.5,0,0,0,6.83-1.27l2.31-2.2,1.85-2.54,16.08-28.46.7-1.5.34-1.16A3.31,3.31,0,0,0,328.7,246.41Zm-13.08,9.25-.11.58L311,264.1h-3a3.2,3.2,0,0,1-2-.46,1.36,1.36,0,0,1-.58-1.39l.24-.58,2.77-5a15.57,15.57,0,0,1,2.08-2.31,5.66,5.66,0,0,1,2.78-.7,2.82,2.82,0,0,1,1.85.58A1.24,1.24,0,0,1,315.62,255.66Z"/>
            <path class="cls-1"
                  d="M164.43,207.19a39.93,39.93,0,0,1-.11,19.32,30.15,30.15,0,0,1-9.14,15A25.87,25.87,0,0,1,138.06,248l-8.45.24-9.37,17.23H142.8a46.21,46.21,0,0,0,24.64-12.84,50.73,50.73,0,0,0,12.84-22.44,62.49,62.49,0,0,0,1.85-25.68A50.52,50.52,0,0,0,173.8,182l-62.23-79-22.45-.34L155,188.68A40.09,40.09,0,0,1,164.43,207.19Z"/>
            <path class="cls-1" d="M88.08,305.59l237.21-.23,3.59-4.2s3.52-4.43,3.8-4.82l-239,.58Z"/>
            <path class="cls-1"
                  d="M217.87,178l-40.14,72.41a63.45,63.45,0,0,1-16.19,14.69q-10.75,7.19-18.63,7.18l-26.83-.12-10,17,40-.12q15-.12,30.43-11.91,11.68-9.15,17.23-18.86l45.7-79.93Z"/>
            <path class="cls-1"
                  d="M304.39,137.9,309,130l-64.43.7-10.06,17.81h50.66a29.78,29.78,0,0,0,10.18-2.89Q301.72,142.76,304.39,137.9Z"/>
            <path class="cls-1"
                  d="M230.81,155.71l-10.18,17.93,50.79-.11a29.37,29.37,0,0,0,10.87-3.36q7.06-3.71,9.6-8.56l3.7-7.17Z"/>
            <path class="cls-1"
                  d="M414.25,207.13C414.25,92.92,321.34,0,207.13,0S0,92.92,0,207.13c0,93.55,62.35,172.79,147.66,198.41l1.8-11C69.37,369.89,11,295.21,11,207.13,11,99,99,11,207.13,11S403.25,99,403.25,207.13c0,88.08-58.37,162.76-138.46,187.45l1.8,11C351.91,379.92,414.25,300.67,414.25,207.13Z"/>
            <path class="cls-1"
                  d="M100.06,308.27l-9.45.05a156,156,0,0,0,66.28,43.6L158,345A149.06,149.06,0,0,1,100.06,308.27Z"/>
            <path class="cls-1"
                  d="M322.67,308.12h-9.49A149.15,149.15,0,0,1,257,344.28l1.14,7A156.09,156.09,0,0,0,322.67,308.12Z"/>
        </g>
    </g>
</svg>