<svg width="158" height="158" viewBox="0 0 158 158" fill="none" xmlns="http://www.w3.org/2000/svg">
<path d="M75.0923 99.902L86.3254 93.3721C86.7824 93.1071 87.0648 92.618 87.0663 92.0897L87.1012 83.0546C87.1027 82.5203 86.8188 82.0254 86.3559 81.7576C85.8931 81.4912 85.321 81.4897 84.861 81.7605L73.6265 88.2905C73.1694 88.5554 72.887 89.0445 72.8855 89.5729L72.8521 98.608C72.8506 99.1422 73.1344 99.6371 73.5973 99.9049C74.0605 100.172 74.6325 100.171 75.0923 99.902ZM75.8638 90.4375L84.1099 85.6456L84.0881 91.2236L75.8434 96.0169L75.8638 90.4375Z" fill="#FF0000"/>
<path d="M92.0124 90.069L103.247 83.5391C103.704 83.2741 103.986 82.785 103.988 82.2566L104.023 73.2215C104.024 72.6873 103.74 72.1924 103.278 71.9246C102.815 71.6582 102.244 71.6567 101.784 71.9275L90.5481 78.456C90.0895 78.7209 89.8072 79.21 89.8057 79.7384L89.7722 88.775C89.7708 89.3092 90.0546 89.8041 90.5175 90.0719C90.9806 90.3387 91.5526 90.338 92.0124 90.069ZM92.7839 80.6045L101.032 75.8111L101.01 81.3905L92.7635 86.1854L92.7839 80.6045Z" fill="#FF0000"/>
<path d="M108.934 80.2346L120.167 73.7061C120.624 73.4412 120.907 72.9521 120.908 72.4237L120.943 63.3886C120.945 62.8544 120.661 62.3595 120.198 62.0916C119.735 61.8238 119.164 61.8238 118.705 62.0945L107.47 68.623C107.011 68.888 106.729 69.3771 106.728 69.9055L106.694 78.9406C106.693 79.4748 106.976 79.9697 107.439 80.2375C107.902 80.5042 108.475 80.5035 108.934 80.2346ZM109.706 70.7716L117.952 65.9782L117.93 71.5576L109.685 76.351L109.706 70.7716Z" fill="#FF0000"/>
<path d="M125.854 70.4021L137.089 63.8721C137.546 63.6072 137.828 63.1181 137.83 62.5897L137.865 53.5546C137.866 53.0204 137.582 52.5255 137.12 52.2576C136.657 51.9898 136.088 51.9898 135.625 52.2606L124.389 58.7905C123.932 59.0554 123.649 59.5445 123.648 60.0729L123.614 69.108C123.613 69.6422 123.897 70.1372 124.36 70.405C124.823 70.6717 125.395 70.671 125.854 70.4021ZM126.626 60.939L134.874 56.1442L134.852 61.7236L126.606 66.5185L126.626 60.939Z" fill="#FF0000"/>
<path d="M75.0923 118.109L86.3254 111.58C86.7824 111.315 87.0648 110.826 87.0663 110.298L87.1012 101.263C87.1027 100.728 86.8188 100.233 86.3559 99.9656C85.8931 99.6993 85.3224 99.6964 84.8625 99.9686L73.6265 106.497C73.1694 106.762 72.887 107.251 72.8855 107.779L72.8521 116.815C72.8506 117.349 73.1344 117.844 73.5973 118.112C74.0549 118.375 74.624 118.381 75.0923 118.109ZM75.8638 108.646L84.1099 103.852L84.0881 109.432L75.8434 114.225L75.8638 108.646Z" fill="#FF0000"/>
<path d="M92.011 108.276L103.247 101.748C103.704 101.483 103.986 100.994 103.988 100.465L104.023 91.4286C104.024 90.8944 103.74 90.3995 103.278 90.1317C102.815 89.8653 102.246 89.8624 101.783 90.1346L90.5466 96.6645C90.0895 96.9295 89.8072 97.4186 89.8057 97.9469L89.7722 106.982C89.7708 107.516 90.0546 108.011 90.5175 108.279C90.9761 108.543 91.5466 108.548 92.011 108.276ZM92.7839 98.813L101.032 94.0197L101.01 99.5991L92.7635 104.392L92.7839 98.813Z" fill="#FF0000"/>
<path d="M108.934 98.4431L120.167 91.9131C120.624 91.6482 120.907 91.1591 120.908 90.6307L120.943 81.5956C120.945 81.0614 120.661 80.5665 120.198 80.2987C119.735 80.0323 119.163 80.0294 118.703 80.3016L107.468 86.8315C107.011 87.0965 106.729 87.5855 106.728 88.1139L106.694 97.149C106.693 97.6833 106.976 98.1782 107.439 98.446C107.902 98.7127 108.475 98.712 108.934 98.4431ZM109.706 88.9786L117.952 84.1866L117.93 89.7646L109.685 94.558L109.706 88.9786Z" fill="#FF0000"/>
<path d="M125.853 88.6091L137.089 82.0806C137.546 81.8157 137.828 81.3266 137.83 80.7982L137.865 71.7631C137.866 71.2289 137.582 70.734 137.12 70.4661C136.657 70.1998 136.086 70.1968 135.626 70.469L124.39 76.9976C123.932 77.2625 123.649 77.7516 123.648 78.28L123.614 87.3151C123.613 87.8493 123.897 88.3442 124.36 88.612C124.818 88.8761 125.389 88.8808 125.853 88.6091ZM126.626 79.1461L134.874 74.3527L134.852 79.9321L126.606 84.7255L126.626 79.1461Z" fill="#FF0000"/>
<path d="M64.9014 150.348C65.3631 150.614 65.9308 150.614 66.389 150.35C66.3905 150.349 66.3909 150.347 66.3923 150.346C66.3936 150.346 66.395 150.346 66.3963 150.345L87.2999 138.197L107.393 149.798C107.851 150.062 108.422 150.067 108.886 149.795L143.59 129.629C144.048 129.362 144.332 128.87 144.331 128.339C144.329 127.806 144.045 127.316 143.586 127.049L124.973 116.303L145.571 104.333C146.028 104.068 146.31 103.579 146.312 103.05C146.33 98.4323 146.56 38.971 146.561 39.3781C146.56 39.0039 146.362 38.4052 145.816 38.0884L93.0984 7.65266C92.6355 7.38483 92.0649 7.38483 91.6049 7.65557L77.5625 15.8158C76.8507 16.2292 76.6076 17.1419 77.0224 17.8537C77.4373 18.5641 78.3456 18.8028 79.0603 18.3923L92.356 10.6658L142.096 39.384C125.192 49.2076 76.9261 77.256 65.8921 83.6681L16.151 54.9505L65.6583 26.1799C66.3687 25.7665 66.6118 24.8539 66.1969 24.1421C65.782 23.4302 64.8665 23.1901 64.159 23.6035L12.435 53.6621L12.4273 53.6666C12.2246 53.7845 11.6878 54.461 11.6864 54.949L11.439 118.615C11.4375 119.15 11.7214 119.645 12.1843 119.912L64.9014 150.348ZM14.6574 57.5313C35.9201 69.807 57.2089 82.0978 64.4003 86.2496L64.1661 146.48L14.423 117.762L14.6574 57.5313ZM114.194 122.58L124.429 128.489L109.487 137.173L99.2524 131.263L114.194 122.58ZM112.9 119.837L97.7377 128.648L97.7986 112.988L112.962 104.176L112.9 119.837ZM108.135 146.785L90.2818 136.476L96.2808 132.99L108.745 140.186C109.208 140.453 109.78 140.452 110.24 140.184L128.153 129.773C128.611 129.506 128.895 129.014 128.894 128.483C128.892 127.95 128.609 127.46 128.149 127.193L117.165 120.853L122.013 118.036L139.866 128.345L108.135 146.785ZM143.334 102.184L115.888 118.135L115.953 101.586C115.955 101.052 115.671 100.557 115.209 100.289C114.744 100.021 114.174 100.021 113.715 100.292L95.5628 110.839C95.1043 111.104 94.8219 111.593 94.8204 112.122L94.7495 130.42L67.1474 146.462L67.3818 86.2509L143.57 41.975L143.334 102.184Z" fill="#FF0000"/>
<path d="M72.9452 18.4987L69.1155 20.7243C68.4051 21.1377 68.162 22.0504 68.5769 22.7622C68.9898 23.4729 69.9011 23.7149 70.6148 23.3008L74.4445 21.0751C75.1549 20.6617 75.398 19.749 74.9831 19.0372C74.5668 18.3225 73.6556 18.0823 72.9452 18.4987Z" fill="#FF0000"/>
<path d="M29.0972 54.9285C29.0986 55.4598 29.3825 55.9518 29.8425 56.2167L65.1371 76.5955C65.6002 76.8623 66.1723 76.8616 66.6321 76.5926L128.409 40.6895C128.869 40.4216 129.151 39.9296 129.151 39.3983C129.151 38.8656 128.866 38.375 128.406 38.1086L93.1129 17.7298C92.65 17.4634 92.0809 17.4605 91.618 17.7327L29.8381 53.6373C29.3796 53.9037 29.0957 54.3957 29.0972 54.9285ZM41.323 59.3972L92.3705 29.7257L116.926 43.9108L65.8795 73.5824L41.323 59.3972ZM92.3705 20.743L124.686 39.4027L119.899 42.1851L93.1129 26.7125C92.65 26.4461 92.0779 26.4447 91.618 26.7154L38.3435 57.6818L33.563 54.9212L92.3705 20.743Z" fill="#FF0000"/>
<path d="M41.5239 91.5522L52.757 98.0807C53.2246 98.3524 53.7937 98.3475 54.2519 98.0836C54.7148 97.8157 54.9987 97.3208 54.9972 96.7866L54.9637 87.7515C54.9623 87.2231 54.6799 86.734 54.2228 86.4691L42.9868 79.9406C42.5254 79.6699 41.9548 79.6728 41.4933 79.9377C41.0304 80.2055 40.7466 80.7004 40.7481 81.2347L40.783 90.2698C40.7844 90.7981 41.0668 91.2872 41.5239 91.5522ZM51.9855 88.6176L52.0059 94.197L43.7612 89.4037L43.7394 83.8242L51.9855 88.6176Z" fill="#FF0000"/>
<path d="M37.3027 76.6366L26.0666 70.1066C25.6023 69.8359 25.0331 69.8388 24.5717 70.1037C24.1088 70.3716 23.825 70.8665 23.8264 71.4007L23.8614 80.4372C23.8628 80.9656 24.1452 81.4547 24.6023 81.7197L35.8383 88.2482C36.0697 88.3835 36.3274 88.4505 36.5865 88.4505C37.4159 88.4505 38.0793 87.7754 38.077 86.9541L38.0436 77.919C38.0421 77.3906 37.7597 76.9015 37.3027 76.6366ZM26.8396 79.5711L26.8177 73.9903L35.0653 78.7851L35.0857 84.3645L26.8396 79.5711Z" fill="#FF0000"/>
<path d="M54.2228 104.678L42.9883 98.1476C42.5268 97.8784 41.9548 97.8784 41.4933 98.1447C41.0304 98.4126 40.7466 98.9075 40.7481 99.4417L40.783 108.477C40.7844 109.005 41.0668 109.494 41.5239 109.759L52.757 116.289C53.2165 116.558 53.7885 116.559 54.2519 116.292C54.7148 116.024 54.9987 115.529 54.9972 114.995L54.9637 105.96C54.9623 105.432 54.6799 104.943 54.2228 104.678ZM43.7612 107.611L43.7394 102.033L51.9855 106.825L52.0059 112.404L43.7612 107.611Z" fill="#FF0000"/>
<path d="M37.3012 94.8436L26.0652 88.3151C25.6037 88.0458 25.0331 88.0458 24.5717 88.3122C24.1088 88.5801 23.825 89.075 23.8264 89.6092L23.8614 98.6443C23.8628 99.1727 24.1452 99.6618 24.6023 99.9267L35.8368 106.457C36.0683 106.592 36.3274 106.659 36.5865 106.659C37.4159 106.659 38.0793 105.984 38.077 105.163L38.0436 96.126C38.0421 95.5976 37.7597 95.1086 37.3012 94.8436ZM26.8396 97.7782L26.8177 92.1988L35.0653 96.9921L35.0857 102.573L26.8396 97.7782Z" fill="#FF0000"/>
<path d="M54.2228 122.292L42.9868 115.764C42.5254 115.495 41.9548 115.495 41.4933 115.761C41.0304 116.029 40.7466 116.524 40.7481 117.058L40.783 126.093C40.7844 126.621 41.0668 127.11 41.5239 127.375L52.757 133.905C53.2165 134.174 53.7885 134.175 54.2519 133.908C54.7148 133.64 54.9987 133.146 54.9972 132.611L54.9637 123.575C54.9623 123.046 54.6799 122.557 54.2228 122.292ZM43.7612 125.227L43.7394 119.647L51.9855 124.441L52.0059 130.02L43.7612 125.227Z" fill="#FF0000"/>
<path d="M37.3012 112.459L26.0652 105.931C25.6037 105.662 25.0331 105.662 24.5717 105.928C24.1088 106.196 23.825 106.691 23.8264 107.225L23.8614 116.26C23.8628 116.788 24.1452 117.277 24.6023 117.542L35.8383 124.071C36.0697 124.206 36.3274 124.273 36.5865 124.273C37.4159 124.273 38.0793 123.598 38.077 122.777L38.0436 113.742C38.0421 113.213 37.7597 112.724 37.3012 112.459ZM26.8396 115.394L26.8177 109.814L35.0653 114.608L35.0857 120.187L26.8396 115.394Z" fill="#FF0000"/>
</svg>
