<svg width="142" height="142" viewBox="0 0 142 142" fill="none" xmlns="http://www.w3.org/2000/svg">
<path d="M133.125 24.4062H8.875C5.20519 24.4062 2.21875 27.3927 2.21875 31.0625V110.938C2.21875 114.607 5.20519 117.594 8.875 117.594H133.125C136.795 117.594 139.781 114.607 139.781 110.938V31.0625C139.781 27.3927 136.795 24.4062 133.125 24.4062ZM6.65625 55.4688H55.4688V62.125C55.4688 68.2421 60.4454 73.2188 66.5625 73.2188H81.0354L81.721 74.9294C81.9673 75.5507 82.0938 76.203 82.0938 76.8708C82.0938 79.7508 79.7507 82.0938 76.8708 82.0938H63.9355C63.0169 79.5178 60.5763 77.6562 57.6875 77.6562C55.9768 77.6562 54.4304 78.3241 53.25 79.3869C52.0696 78.3219 50.5232 77.6562 48.8125 77.6562C45.9237 77.6562 43.4831 79.5178 42.5645 82.0938H23.9958C23.0794 79.5178 20.6388 77.6562 17.75 77.6562C16.0393 77.6562 14.4929 78.3241 13.3125 79.3869C12.1321 78.3241 10.5857 77.6562 8.875 77.6562C8.094 77.6562 7.35294 77.816 6.65625 78.0645V55.4688ZM59.9062 62.125V55.4688H69.4291C72.1671 55.4688 74.5922 57.1106 75.6083 59.6533L79.2604 68.7812H66.5625C62.8927 68.7812 59.9062 65.7948 59.9062 62.125ZM59.9062 84.3125C59.9062 85.535 58.91 86.5312 57.6875 86.5312C56.465 86.5312 55.4688 85.535 55.4688 84.3125C55.4688 83.09 56.465 82.0938 57.6875 82.0938C58.91 82.0938 59.9062 83.09 59.9062 84.3125ZM51.0312 84.3125C51.0312 85.535 50.035 86.5312 48.8125 86.5312C47.59 86.5312 46.5938 85.535 46.5938 84.3125C46.5938 83.09 47.59 82.0938 48.8125 82.0938C50.035 82.0938 51.0312 83.09 51.0312 84.3125ZM19.9688 84.3125C19.9688 85.535 18.9725 86.5312 17.75 86.5312C16.5275 86.5312 15.5312 85.535 15.5312 84.3125C15.5312 83.09 16.5275 82.0938 17.75 82.0938C18.9725 82.0938 19.9688 83.09 19.9688 84.3125ZM8.875 82.0938C10.0975 82.0938 11.0938 83.09 11.0938 84.3125C11.0938 85.535 10.0975 86.5312 8.875 86.5312C7.65247 86.5312 6.65625 85.535 6.65625 84.3125C6.65625 83.09 7.65247 82.0938 8.875 82.0938ZM6.65625 90.5605C7.35294 90.809 8.094 90.9688 8.875 90.9688C10.5857 90.9688 12.1321 90.3009 13.3125 89.2381C14.4929 90.3009 16.0393 90.9688 17.75 90.9688C20.6388 90.9688 23.0794 89.1072 23.998 86.5312H42.5667C43.4853 89.1072 45.9259 90.9688 48.8147 90.9688C50.5254 90.9688 52.0718 90.3009 53.2522 89.2381C54.4326 90.3031 55.9791 90.9688 57.6897 90.9688C60.5785 90.9688 63.0192 89.1072 63.9377 86.5312H76.873C82.198 86.5312 86.5312 82.198 86.5312 76.8708C86.5312 75.6372 86.3005 74.4302 85.8412 73.2831L79.7308 58.007C78.0357 53.7692 73.9931 51.0312 69.4291 51.0312H6.65625V46.5938H90.9688V95.4062H6.65625V90.5605ZM19.9688 113.156H15.5312V108.719H19.9688V113.156ZM28.8438 113.156H24.4062V108.719H28.8438V113.156ZM37.7188 113.156H33.2812V108.719H37.7188V113.156ZM135.344 110.938C135.344 112.16 134.348 113.156 133.125 113.156H42.1562V104.281H11.0938V113.156H8.875C7.65247 113.156 6.65625 112.16 6.65625 110.938V99.8438H135.344V110.938ZM135.344 95.4062H95.4062V46.5938H135.344V95.4062ZM135.344 42.1562H6.65625V31.0625C6.65625 29.84 7.65247 28.8438 8.875 28.8438H133.125C134.348 28.8438 135.344 29.84 135.344 31.0625V42.1562Z" fill="#FF0000"/>
<path d="M128.688 37.7188C129.913 37.7188 130.906 36.7254 130.906 35.5C130.906 34.2746 129.913 33.2812 128.688 33.2812C127.462 33.2812 126.469 34.2746 126.469 35.5C126.469 36.7254 127.462 37.7188 128.688 37.7188Z" fill="#FF0000"/>
<path d="M119.812 37.7188C121.038 37.7188 122.031 36.7254 122.031 35.5C122.031 34.2746 121.038 33.2812 119.812 33.2812C118.587 33.2812 117.594 34.2746 117.594 35.5C117.594 36.7254 118.587 37.7188 119.812 37.7188Z" fill="#FF0000"/>
<path d="M110.938 37.7188C112.163 37.7188 113.156 36.7254 113.156 35.5C113.156 34.2746 112.163 33.2812 110.938 33.2812C109.712 33.2812 108.719 34.2746 108.719 35.5C108.719 36.7254 109.712 37.7188 110.938 37.7188Z" fill="#FF0000"/>
<path d="M130.906 51.0312H99.8438V64.3438H130.906V51.0312ZM126.469 59.9062H104.281V55.4688H126.469V59.9062Z" fill="#FF0000"/>
<path d="M130.906 68.7812H99.8438V90.9688H130.906V68.7812ZM104.281 73.2188H113.156V77.6562H104.281V73.2188ZM108.719 86.5312H104.281V82.0938H108.719V86.5312ZM113.156 86.5312V82.0938H114.703L121.359 86.5312H113.156ZM126.469 84.6054L117.594 78.688V73.2188H126.469V84.6054Z" fill="#FF0000"/>
<path d="M37.7188 73.2188H46.5938C49.041 73.2188 51.0312 71.2285 51.0312 68.7812V64.3438C51.0312 61.8965 49.041 59.9062 46.5938 59.9062H37.7188C35.2715 59.9062 33.2812 61.8965 33.2812 64.3438V68.7812C33.2812 71.2285 35.2715 73.2188 37.7188 73.2188ZM37.7188 64.3438H46.5938L46.596 68.7812H37.7188V64.3438Z" fill="#FF0000"/>
<path d="M15.5312 73.2188H24.4062C26.8535 73.2188 28.8438 71.2285 28.8438 68.7812V64.3438C28.8438 61.8965 26.8535 59.9062 24.4062 59.9062H15.5312C13.084 59.9062 11.0938 61.8965 11.0938 64.3438V68.7812C11.0938 71.2285 13.084 73.2188 15.5312 73.2188ZM15.5312 64.3438H24.4062L24.4085 68.7812H15.5312V64.3438Z" fill="#FF0000"/>
</svg>
