<svg width="142" height="142" viewBox="0 0 142 142" fill="none" xmlns="http://www.w3.org/2000/svg">
<g clip-path="url(#clip0_248_76)">
<path d="M134.9 23.6667C138.813 23.6473 141.981 20.4799 142 16.5667C142 12.6455 138.821 9.4667 134.9 9.4667H132.533V7.10012C132.547 5.22641 131.801 3.42725 130.465 2.11351C129.146 0.75203 127.329 -0.0112875 125.433 0.000126184C121.512 0.000126184 118.333 3.17894 118.333 7.10012V9.4667H108.867V7.10012C108.881 5.22641 108.135 3.42725 106.798 2.11351C105.48 0.75203 103.662 -0.0112875 101.767 0.000126184C97.8457 0.000126184 94.6669 3.17894 94.6669 7.10012V9.4667H85.2003V7.10012C85.2143 5.22641 84.468 3.42725 83.1319 2.11351C81.8133 0.75203 79.9957 -0.0112875 78.1003 0.000126184C74.1792 0.000126184 71.0004 3.17894 71.0004 7.10012V9.4667H63.1687C63.1687 4.23832 58.9303 0.000126184 53.7021 0.000126184H11.8334C5.30129 0.00781293 0.00791968 5.30118 0 11.8333V130.167C0.00791968 136.699 5.30129 141.992 11.8334 142H130.167C136.699 141.992 141.992 136.699 142 130.167V88.3003C142 83.0719 137.762 78.8337 132.533 78.8337V71H134.9C138.813 70.9807 141.981 67.8133 142 63.9C142 59.9789 138.821 56.8 134.9 56.8H132.533V47.3335H134.9C138.813 47.3141 141.981 44.1467 142 40.2335C142 36.3123 138.821 33.1335 134.9 33.1335H132.533V23.6669H134.9V23.6667ZM134.9 14.2001C136.207 14.2001 137.267 15.2597 137.267 16.5667C137.268 17.2049 137.006 17.8157 136.542 18.254C136.109 18.6929 135.517 18.9379 134.9 18.9333H132.533V14.2001H134.9ZM123.067 7.10012C123.067 5.79314 124.126 4.73353 125.433 4.73353C126.071 4.7326 126.68 4.99465 127.118 5.45771C127.56 5.88934 127.806 6.48261 127.8 7.10012V79.7946C126.974 80.0597 126.195 80.3317 125.433 80.6017C124.671 80.8714 123.878 81.1484 123.067 81.4039V7.10012ZM104.133 23.6667V33.1333H99.3998V23.6667H104.133ZM118.333 23.6667V33.1333H108.867V23.6667H118.333ZM85.1999 66.2666V61.5332H118.333V66.2666H85.1999ZM118.333 37.8667V42.6001H85.1999V37.8667H118.333ZM99.3998 56.8V47.3335H104.133V56.8H99.3998ZM85.1999 56.8V47.3335H94.6664V56.8H85.1999ZM108.867 47.3332H118.333V56.7998H108.867V47.3332ZM94.6667 33.1333H85.2001V23.6667H94.6667V33.1333ZM85.1999 71H94.6664V78.9448C91.8095 78.3444 88.8951 78.0611 85.976 78.1C85.7086 78.1 85.46 78.1308 85.1996 78.1403V71H85.1999ZM99.3998 71H104.133V81.8584C102.713 81.4892 101.454 81.0513 100.179 80.6017L99.3998 80.3296V71ZM108.867 71H118.333V82.4759C116.501 82.726 114.654 82.8453 112.805 82.8332C111.325 82.8332 110.035 82.7694 108.866 82.6627V71H108.867ZM99.3998 7.10012C99.3998 5.79314 100.459 4.73353 101.766 4.73353C102.404 4.7326 103.014 4.99465 103.451 5.45771C103.893 5.88934 104.139 6.48261 104.133 7.10012V9.4667H99.3996V7.10012H99.3998ZM118.333 14.2001V18.9335H85.1999V14.2001H118.333ZM75.7333 7.10012C75.7333 5.79314 76.7929 4.73353 78.0999 4.73353C78.7374 4.7326 79.347 4.99465 79.7849 5.45771C80.2265 5.88934 80.4727 6.48261 80.4665 7.10012V78.8219C78.8418 79.2411 77.2578 79.8041 75.7331 80.5046V7.10012H75.7333ZM63.0597 47.3332H70.9999V56.7998H63.8596C63.8596 56.5324 63.8999 56.2769 63.8999 56.0046C63.9386 53.0922 63.6569 50.1843 63.0597 47.3332ZM70.9999 33.1333H59.3393C59.2305 31.9618 59.1665 30.6649 59.1665 29.1762C59.1551 27.3337 59.2736 25.4924 59.5215 23.6667H70.9999V33.1333ZM70.9999 37.8667V42.6001H61.6775C61.5829 42.335 61.4904 42.0653 61.3982 41.8025C60.951 40.534 60.5131 39.2843 60.1462 37.8667H70.9999ZM63.1757 61.5332H70.9999V66.2666H61.4884C62.1893 64.7416 62.7539 63.1577 63.1757 61.5332ZM59.0388 71H70.9999V82.9541C65.6418 85.8958 63.1899 86.8685 59.1665 82.8334C55.1431 78.7983 56.1018 76.3509 59.0388 71ZM70.9999 18.9333H60.5867C60.8422 18.1192 61.1168 17.3428 61.3938 16.5667C61.6707 15.7903 61.9335 15.0307 62.196 14.2001H70.9999V18.9333ZM137.267 88.3003V130.167C137.267 134.088 134.088 137.266 130.167 137.266H11.8334C7.91222 137.266 4.7334 134.088 4.7334 130.167V11.8333C4.7334 7.91211 7.91222 4.7333 11.8334 4.7333H53.6996C55.1507 4.73493 56.5213 5.40065 57.42 6.53991C58.3186 7.67942 58.6464 9.16738 58.31 10.5789C57.9308 12.0699 57.4719 13.5393 56.935 14.9809C55.1752 19.5035 54.325 24.3291 54.4336 29.1809C54.3248 34.0326 55.175 38.8582 56.935 43.3808C58.5117 47.3982 59.2704 51.6902 59.1667 56.0046C58.9336 60.4128 57.5248 64.6785 55.0867 68.3586C52.2468 73.518 49.0114 79.3683 55.8181 86.1795C62.6246 92.9906 68.4703 89.7627 73.6297 86.9132C77.3074 84.4753 81.5705 83.0666 85.9765 82.8332C90.2924 82.7295 94.5858 83.4884 98.6051 85.0649C103.127 86.8256 107.953 87.6758 112.805 87.5663C117.657 87.6758 122.483 86.8247 127.005 85.0623C128.451 84.5254 129.924 84.0665 131.419 83.6873C132.831 83.3517 134.319 83.6804 135.459 84.5792C136.598 85.4781 137.264 86.8489 137.267 88.3003ZM134.9 61.5332C136.207 61.5332 137.267 62.5928 137.267 63.8998C137.268 64.538 137.006 65.1488 136.542 65.5872C136.109 66.026 135.517 66.271 134.9 66.2664H132.533V61.533H134.9V61.5332ZM134.9 37.8667C136.207 37.8667 137.267 38.9263 137.267 40.2332C137.268 40.8715 137.006 41.4822 136.542 41.9206C136.109 42.3594 135.517 42.6045 134.9 42.5998H132.533V37.8664L134.9 37.8667Z" fill="#FF0000"/>
<path d="M18.9335 115.966C15.0123 115.966 11.8335 119.145 11.8335 123.066C11.8335 126.987 15.0123 130.166 18.9335 130.166C22.8547 130.166 26.0335 126.987 26.0335 123.066C26.0335 119.145 22.8547 115.966 18.9335 115.966ZM18.9335 125.433C17.6265 125.433 16.5669 124.373 16.5669 123.066C16.5669 121.759 17.6265 120.7 18.9335 120.7C20.2405 120.7 21.3001 121.759 21.3001 123.066C21.3001 124.374 20.2405 125.433 18.9335 125.433Z" fill="#FF0000"/>
<path d="M42.6 11.833C38.6788 11.833 35.5 15.0118 35.5 18.933C35.5 22.8542 38.6788 26.033 42.6 26.033C46.5212 26.033 49.7 22.8542 49.7 18.933C49.7 15.0118 46.5214 11.833 42.6 11.833ZM42.6 21.2998C41.293 21.2998 40.2334 20.2402 40.2334 18.9332C40.2334 17.6262 41.293 16.5666 42.6 16.5666C43.907 16.5666 44.9666 17.6262 44.9666 18.9332C44.9668 20.2402 43.9072 21.2998 42.6 21.2998Z" fill="#FF0000"/>
<path d="M21.2999 111.233C22.607 111.233 23.6665 110.174 23.6665 108.867C23.6665 107.56 22.607 106.5 21.2999 106.5C19.9929 106.5 18.9333 107.56 18.9333 108.867C18.9333 110.174 19.9929 111.233 21.2999 111.233Z" fill="#FF0000"/>
<path d="M37.8668 35.4998C39.1739 35.4998 40.2334 34.4402 40.2334 33.1332C40.2334 31.8262 39.1739 30.7666 37.8668 30.7666C36.5598 30.7666 35.5002 31.8262 35.5002 33.1332C35.5002 34.4402 36.5598 35.4998 37.8668 35.4998Z" fill="#FF0000"/>
<path d="M127.8 97.033C129.107 97.033 130.167 95.9734 130.167 94.6664C130.167 93.3594 129.107 92.2998 127.8 92.2998C126.493 92.2998 125.433 93.3594 125.433 94.6664C125.433 95.9734 126.493 97.033 127.8 97.033Z" fill="#FF0000"/>
<path fill-rule="evenodd" clip-rule="evenodd" d="M114.511 116.466C113.754 117.053 113.425 118.039 113.679 118.963C113.932 119.887 114.718 120.567 115.669 120.685C116.62 120.803 117.548 120.337 118.02 119.503C118.493 118.669 118.415 117.632 117.824 116.878C117.022 115.852 115.541 115.668 114.511 116.466Z" fill="#FF0000"/>
<path fill-rule="evenodd" clip-rule="evenodd" d="M109.778 92.7994C109.02 93.3864 108.692 94.3722 108.945 95.2964C109.199 96.2205 109.985 96.9006 110.936 97.0187C111.887 97.1368 112.815 96.67 113.287 95.8361C113.759 95.0022 113.682 93.9659 113.091 93.2115C112.288 92.1854 110.807 92.0014 109.778 92.7994Z" fill="#FF0000"/>
</g>
<defs>
<clipPath id="clip0_248_76">
<rect width="142" height="142" fill="white"/>
</clipPath>
</defs>
</svg>
